<ttFont>
<head>
    <!-- Most of this table will be recalculated by the compiler -->
    <tableVersion value="1.0"/>
    <fontRevision value="1.0"/>
    <checkSumAdjustment value="0xd1d2070c"/>
    <magicNumber value="0x5f0f3cf5"/>
    <flags value="00000000 00000011"/>
    <unitsPerEm value="2048"/>
    <created value="Thu Aug 15 19:10:28 2019"/>
    <modified value="Fri Aug 16 02:19:18 2019"/>
    <xMin value="-446"/>
    <yMin value="-519"/>
    <xMax value="3544"/>
    <yMax value="1983"/>
<macStyle value="00000000 00000010"/>
    <lowestRecPPEM value="3"/>
    <fontDirectionHint value="2"/>
    <indexToLocFormat value="0"/>
    <glyphDataFormat value="0"/>
  </head>
          <CharString index="0">
            92 rlineto
            -32 -38 -54 -12 return
          </CharString>
          <CharString index="1">
            -61 callsubr
            112 hhcurveto
            return
          </CharString>
          <CharString index="2">
            -234 304 -414 -471 -292 -406 -422 return
          </CharString>
          <CharString index="3">
            rmoveto
            -245 128 -126 148 return
          </CharString>
          <CharString index="4">
            rmoveto
            -405 -52 -19 -84 90 -14 return
          </CharString>
          <CharString index="5">
            rmoveto
            471 292 406 422 364 return
          </CharString>
          <CharString index="6">
            hvcurveto
            -364 1 232 -304 return
          </CharString>
          <CharString index="7">
            90 111 43 59 49 hvcurveto
            19 return
          </CharString>
          <CharString index="8">
            -32 hhcurveto
            -48 -13 34 54 11 hvcurveto
            return
          </CharString>
          <CharString index="9">
            rmoveto
            -28 callsubr
            34 callsubr
            endchar
          </CharString>
          <CharString index="10">
            46 callgsubr
            -9 -32 -4 vvcurveto
            -123 -24 44 -72 113 hhcurveto
            return
          </CharString>
          <CharString index="11">
            138 callsubr
            endchar
          </CharString>
          <CharString index="12">
            38 callsubr
            endchar
          </CharString>
          <CharString index="13">
            132 callsubr
            endchar
          </CharString>
          <CharString index="14">
            151 -14 11 -19 -18 -86 rlinecurve
            -72 callgsubr
            593 0 return
          </CharString>
          <CharString index="15">
            92 111 43 59 50 hvcurveto
            19 92 rlineto
            -32 return
          </CharString>
          <CharString index="16">
            rlineto
            51 -10 9 -18 -10 -47 -125 -587 rcurveline
            -152 -33 49 -76 124 hhcurveto
            return
          </CharString>
          <CharString index="17">
            rmoveto
            -1064 hlineto
            -23 callsubr
            1105 -27 callsubr
            endchar
          </CharString>
          <CharString index="18">
            -26 callsubr
            endchar
          </CharString>
          <CharString index="19">
            rmoveto
            58 callgsubr
            return
          </CharString>
          <CharString index="20">
            1855 rmoveto
            -225 -289 return
          </CharString>
          <CharString index="21">
            1544 rmoveto
            -254 -375 return
          </CharString>
          <CharString index="22">
            -102 callgsubr
            endchar
          </CharString>
          <CharString index="23">
            31 callsubr
            endchar
          </CharString>
          <CharString index="24">
            rmoveto
            316 238 202 366 80 hvcurveto
            152 685 21 94 22 20 136 20 rlinecurve
            19 88 -455 0 82 callsubr
            rlineto
            128 -20 15 -20 -20 -94 -135 -633 rcurveline
            -12 callsubr
            endchar
          </CharString>
          <CharString index="25">
            rmoveto
            219 1030 18 86 19 18 return
          </CharString>
          <CharString index="26">
            158 15 rlinecurve
            18 88 -593 0 -19 -88 return
          </CharString>
          <CharString index="27">
            -170 -798 235 0 return
          </CharString>
          <CharString index="28">
            -32 callsubr
            endchar
          </CharString>
          <CharString index="29">
            114 0 413 363 rlineto
            12 vlineto
            return
          </CharString>
          <CharString index="30">
            -54 55 -75 -77 -63 -62 return
          </CharString>
          <CharString index="31">
            1566 rmoveto
            202 148 134 -148 92 0 return
          </CharString>
          <CharString index="32">
            rmoveto
            538 hlineto
            28 133 rlineto
            -538 hlineto
            endchar
          </CharString>
          <CharString index="33">
            1222 rmoveto
            78 62 62 79 71 return
          </CharString>
          <CharString index="34">
            190 348 -104 callsubr
            return
          </CharString>
          <CharString index="35">
            -73 -59 -58 -74 -68 51 -51 71 hvcurveto
            return
          </CharString>
          <CharString index="36">
            -78 -73 54 -54 75 hvcurveto
            return
          </CharString>
          <CharString index="37">
            rmoveto
            -362 -51 -16 -86 82 -13 54 -10 16 -17 3 -45 rlinecurve
            50 -858 -119 -116 -192 -161 -146 -107 rlinecurve
            -20 261 vlineto
            113 125 100 117 89 106 56 66 54 66 50 61 rrcurveto
            323 406 141 263 135 vvcurveto
            89 -60 59 -85 -82 -61 -59 -75 -71 59 -59 75 vhcurveto
            1 hlineto
            -53 -175 -128 -201 -190 -235 rrcurveto
            endchar
          </CharString>
          <CharString index="38">
            -98 -468 rlineto
            -152 -31 46 -76 125 hhcurveto
            -92 callsubr
            -38 -55 -12 -32 hhcurveto
            -48 -13 34 54 12 hvcurveto
            97 453 rlineto
            61 callgsubr
            return
          </CharString>
          <CharString index="39">
            rmoveto
            -64 -55 -53 -67 -60 46 -48 65 65 -65 callsubr
          </CharString>
          <CharString index="40">
            68 60 -46 47 -65 -65 -54 -52 -68 -60 47 -47 64 hvcurveto
            return
          </CharString>
          <CharString index="41">
            rmoveto
            -65 -54 -53 -67 -60 46 -48 64 66 return
          </CharString>
          <CharString index="42">
            54 53 67 61 -47 47 -64 hvcurveto
            endchar
          </CharString>
          <CharString index="43">
            -404 -52 -19 -84 90 -14 return
          </CharString>
          <CharString index="44">
            -393 121 callsubr
            return
          </CharString>
          <CharString index="45">
            rmoveto
            199 -540 -90 -423 -18 -85 -21 -17 -175 -17 rlinecurve
            -19 -87 632 0 18 87 -168 17 -13 17 18 85 rlinecurve
            91 -78 callgsubr
            19 88 -450 0 -18 -88 148 147 callsubr
            -17 -88 109 -16 28 -27 53 -144 rlinecurve
            endchar
          </CharString>
          <CharString index="46">
            141 116 84 156 70 vhcurveto
            -2 -3 -7 -32 -4 vvcurveto
            -123 -25 44 -72 return
          </CharString>
          <CharString index="47">
            50 -10 10 -19 -10 -46 rlinecurve
            -270 -1271 return
          </CharString>
          <CharString index="48">
            113 hhcurveto
            91 110 43 59 49 hvcurveto
            20 return
          </CharString>
          <CharString index="49">
            rmoveto
            214 180 132 -180 return
          </CharString>
          <CharString index="50">
            -33 hhcurveto
            -47 -13 34 54 12 hvcurveto
            return
          </CharString>
          <CharString index="51">
            1597 rmoveto
            64 55 52 return
          </CharString>
          <CharString index="52">
            1544 rmoveto
            -231 -199 -141 199 -103 0 130 -375 return
          </CharString>
          <CharString index="53">
            -56 -266 -50 -140 -197 -84 rlinecurve
            28 -79 333 102 return
          </CharString>
          <CharString index="54">
            50 -10 10 -18 -10 -47 rlinecurve
            -151 -710 return
          </CharString>
          <CharString index="55">
            96 0 352 279 rlineto
            9 vlineto
            return
          </CharString>
          <CharString index="56">
            96 0 351 279 rlineto
            9 vlineto
            return
          </CharString>
          <CharString index="57">
            rmoveto
            72 57 56 71 hvcurveto
            65 -1 return
          </CharString>
          <CharString index="58">
            -283 19 -63 callgsubr
            59 callgsubr
            return
          </CharString>
          <CharString index="59">
            1230 rmoveto
            73 58 58 74 68 -51 51 -70 return
          </CharString>
          <CharString index="60">
            1169 rmoveto
            231 200 141 -200 return
          </CharString>
          <CharString index="61">
            rmoveto
            159 100 69 121 108 -79 70 -100 return
          </CharString>
          <CharString index="62">
            1597 rmoveto
            65 54 52 68 60 -46 47 return
          </CharString>
          <CharString index="63">
            rmoveto
            311 110 265 -110 20 94 return
          </CharString>
          <CharString index="64">
            168 0 289 375 rlineto
            return
          </CharString>
          <CharString index="65">
            236 16 callgsubr
            return
          </CharString>
          <CharString index="66">
            rmoveto
            264 245 125 202 142 -94 92 -193 36 hvcurveto
            -195 38 rlineto
            -91 18 -19 25 -1 33 -1 39 40 33 58 19 rrcurveto
            -9 37 40 -4 44 hhcurveto
            269 153 178 202 65 -18 60 -36 51 hvcurveto
            228 -25 24 122 -346 -13 rlineto
            35 -61 -79 21 -98 hhcurveto
            -267 -1 -154 -173 -204 vvcurveto
            -122 66 -106 123 -53 vhcurveto
            -140 -39 -72 -65 2 -91 1 -63 33 -55 76 -35 rrcurveto
            -176 -34 -115 -86 -104 vvcurveto
            -165 201 -89 252 vhcurveto
            -19 1081 rmoveto
            145 64 164 130 101 49 -90 -108 -147 -65 -161 -129 -102 -48 90 107 vhcurveto
            -243 -802 rmoveto
            75 62 57 123 41 vhcurveto
            4 -1 4 -1 5 -1 186 -34 rcurveline
            128 -22 50 -51 -68 vvcurveto
            -105 -133 -61 -151 -170 -108 69 102 vhcurveto
            endchar
          </CharString>
          <CharString index="67">
            -39 -62 -39 callgsubr
            110 525 151 callsubr
            -116 -546 rlineto
            -211 -44 87 -133 190 hhcurveto
            return
          </CharString>
          <CharString index="68">
            rmoveto
            438 254 302 305 218 115 -121 -223 9 vhcurveto
            4 callgsubr
            return
          </CharString>
          <CharString index="69">
            rmoveto
            174 143 101 157 26 hvcurveto
            -96 hlineto
            -68 -16 -92 -46 -109 hhcurveto
            -108 return
          </CharString>
          <CharString index="70">
            -127 289 -151 0 -250 -289 rlineto
            return
          </CharString>
          <CharString index="71">
            -237 143 -58 0 -295 -143 rlineto
            return
          </CharString>
          <CharString index="72">
            -225 168 -56 0 -295 -168 rlineto
            return
          </CharString>
          <CharString index="73">
            -64 -66 -54 -52 -68 -60 47 -47 64 hvcurveto
            return
          </CharString>
          <CharString index="74">
            1544 rmoveto
            -250 -12 hlineto
            return
          </CharString>
          <CharString index="75">
            -39 -53 -12 -99 callsubr
            return
          </CharString>
          <CharString index="76">
            1209 rmoveto
            98 75 73 return
          </CharString>
          <CharString index="77">
            rmoveto
            -360 -51 -18 -86 83 -13 rlineto
            53 -9 13 -17 3 -43 57 -805 rcurveline
            160 hlineto
            149 193 122 209 68 167 30 -569 rcurveline
            156 hlineto
            274 279 270 417 189 vvcurveto
            89 -59 59 -85 -83 -61 -59 -75 -70 57 -57 72 -3 vhcurveto
            -58 -201 -122 -190 -157 -183 rrcurveto
            -43 829 -214 -36 7 -132 -19 -215 -134 -230 -119 -196 rlinecurve
            endchar
          </CharString>
          <CharString index="78">
            rmoveto
            -2 -424 286 -257 387 -1 rrcurveto
            186 194 62 67 87 hvcurveto
            84 390 19 88 15 17 139 13 rlinecurve
            18 87 -563 0 -18 -87 rlineto
            165 -16 11 -13 -18 -87 -72 -343 rcurveline
            -35 -50 -89 -19 -79 hhcurveto
            -253 -167 211 309 438 255 302 304 219 114 -121 -223 9 hvcurveto
            78 -5 56 312 rlineto
            79 -90 84 callgsubr
            endchar
          </CharString>
          <CharString index="79">
            -151 1163 -207 0 -644 -1157 -89 -160 -28 -24 -130 -15 rlinecurve
            -19 -88 462 0 18 88 -148 20 -12 27 79 148 rlinecurve
            109 204 471 0 23 -204 return
          </CharString>
          <CharString index="80">
            0 101 413 rlineto
            -78 hlineto
            -107 -269 -65 -24 -269 -10 rrcurveto
            -241 -9 123 587 rlineto
            243 -84 callgsubr
            -9 callgsubr
            56 -40 4 -213 rlinecurve
            78 hlineto
            return
          </CharString>
          <CharString index="81">
            172 803 -403 -59 -17 -78 86 -14 rlineto
            49 -10 11 -18 -10 -47 -82 -384 rcurveline
            -168 -36 -102 -117 -128 hhcurveto
            -94 -52 67 133 28 hvcurveto
            return
          </CharString>
          <CharString index="82">
            1333 1586 1444 rmoveto
            -1226 hlineto
            44 callsubr
            98 callsubr
            -95 callgsubr
            93 callsubr
            return
          </CharString>
          <CharString index="83">
            -425 -3 283 -257 382 hhcurveto
            183 171 51 68 84 hvcurveto
            69 319 rlineto
            30 callgsubr
          </CharString>
          <CharString index="84">
            -19 -88 151 -15 12 -18 -18 -86 rlinecurve
            -220 -1030 -19 -86 -19 -18 -157 -15 rlinecurve
            -18 -88 return
          </CharString>
          <CharString index="85">
            108 449 rlineto
            -78 hlineto
            -127 -296 -86 -37 -211 -7 rrcurveto
            -209 -8 return
          </CharString>
          <CharString index="86">
            1544 rmoveto
            -175 -391 131 0 286 379 rlineto
            12 vlineto
            return
          </CharString>
          <CharString index="87">
            1603 rmoveto
            51 callgsubr
            337 hmoveto
            51 callgsubr
            return
          </CharString>
          <CharString index="88">
            1267 rmoveto
            578 hlineto
            31 147 rlineto
            -578 hlineto
            return
          </CharString>
          <CharString index="89">
            232 27 hvcurveto
            -97 hlineto
            -118 -17 -27 -27 -38 hhcurveto
            return
          </CharString>
          <CharString index="90">
            1199 618 1024 -88 callsubr
            return
          </CharString>
          <CharString index="91">
            1178 rmoveto
            188 118 134 220 return
          </CharString>
          <CharString index="92">
            431 hmoveto
            73 58 58 74 68 -51 51 -70 return
          </CharString>
          <CharString index="93">
            rmoveto
            72 58 56 71 -1 hvcurveto
            65 -51 49 -70 return
          </CharString>
          <CharString index="94">
            1585 826 32 callsubr
            return
          </CharString>
          <CharString index="95">
            -402 -85 229 -218 324 hhcurveto
            return
          </CharString>
          <CharString index="96">
            723 1496 33 callsubr
            return
          </CharString>
          <CharString index="97">
            113 0 413 363 rlineto
            12 vlineto
            return
          </CharString>
          <CharString index="98">
            rmoveto
            94 87 65 138 29 hvcurveto
            -96 hlineto
            return
          </CharString>
          <CharString index="99">
            590 60 callsubr
            endchar
          </CharString>
          <CharString index="100">
            264 -363 rlineto
            99 hlineto
            return
          </CharString>
          <CharString index="101">
            rmoveto
            103 486 151 0 276 -693 327 0 18 82 -71 22 -46 51 -86 211 rlinecurve
            -201 493 280 259 186 169 54 47 132 22 rlinecurve
            19 88 -500 0 -18 -88 150 -13 13 -38 -128 -126 rlinecurve
            -386 -382 -148 0 94 440 18 86 21 19 143 14 rlinecurve
            18 88 -580 0 -19 -88 151 -15 11 -18 -18 -86 rlinecurve
            -72 callgsubr
            580 0 18 88 -136 14 -12 19 18 86 rlinecurve
            endchar
          </CharString>
          <CharString index="102">
            -22 -18 -149 -14 rlinecurve
            -18 -88 589 0 18 88 -148 15 -17 20 19 87 rlinecurve
            219 1024 19 87 24 20 155 15 rlinecurve
            18 88 -589 0 -19 102 callgsubr
            95 445 18 86 25 19 146 14 rlinecurve
            18 88 -590 0 -17 -88 150 -15 13 -21 -18 -86 rlinecurve
            -218 -1024 -19 -86 -22 -21 -157 -15 rlinecurve
            -19 -88 return
          </CharString>
          <CharString index="103">
            rmoveto
            102 -1163 205 0 545 1075 75 -1075 208 0 594 1158 83 161 34 22 129 15 rlinecurve
            18 88 -459 0 -18 -88 146 -18 7 -26 -72 -147 rlinecurve
            -448 -928 -58 925 -9 148 15 26 203 callsubr
            endchar
          </CharString>
          <CharString index="104">
            241 1137 18 85 20 17 169 17 rlinecurve
            18 87 -605 0 -19 -88 rlineto
            151 -15 11 -17 -18 -87 -219 -1030 rcurveline
            -18 -86 -19 -17 -158 -16 -18 -88 rcurveline
            return
          </CharString>
          <CharString index="105">
            101 413 rlineto
            -79 hlineto
            -107 -267 -89 -24 -262 -9 rrcurveto
            -299 -12 1007 1261 18 82 -993 0 -90 -371 rlineto
            79 hlineto
            35 callgsubr
            endchar
          </CharString>
          <CharString index="106">
            -58 -46 42 136 -4 hvcurveto
            217 -2 75 265 131 hhcurveto
            58 46 -42 -137 4 hvcurveto
            -216 2 -75 -265 -131 hhcurveto
            return
          </CharString>
          <CharString index="107">
            270 1275 -64 callsubr
            rlineto
            50 -10 9 -19 -9 -46 -67 -315 rcurveline
            97 callgsubr
            return
          </CharString>
          <CharString index="108">
            rmoveto
            128 132 96 callgsubr
            135 callsubr
            -295 199 -143 194 vhcurveto
            endchar
          </CharString>
          <CharString index="109">
            1604 525 207 rmoveto
            101 476 642 0 -101 -476 -18 -87 return
          </CharString>
          <CharString index="110">
            rmoveto
            -386 121 callsubr
            -80 callsubr
            141 callsubr
            endchar
          </CharString>
          <CharString index="111">
            19 callsubr
            -107 callgsubr
            158 0 251 290 rlineto
            return
          </CharString>
          <CharString index="112">
            1855 rmoveto
            -224 -289 95 0 352 279 rlineto
            9 vlineto
            return
          </CharString>
          <CharString index="113">
            1164 1106 hmoveto
            -22 callsubr
            -3 callsubr
            return
          </CharString>
          <CharString index="114">
            707 525 207 -82 callsubr
            -81 callsubr
            return
          </CharString>
          <CharString index="115">
            1637 rmoveto
            521 hlineto
            29 134 rlineto
            -521 hlineto
            return
          </CharString>
          <CharString index="116">
            1534 rmoveto
            557 -91 19 92 -544 156 rlineto
            return
          </CharString>
          <CharString index="117">
            0 -123 338 -156 0 -267 -338 rlineto
            endchar
          </CharString>
          <CharString index="118">
            542 1215 rmoveto
            81 66 95 callgsubr
            return
          </CharString>
          <CharString index="119">
            -50 -10 -30 -22 -39 hhcurveto
            -24 -25 7 16 -35 hvcurveto
            return
          </CharString>
          <CharString index="120">
            -491 rmoveto
            168 100 80 115 102 return
          </CharString>
          <CharString index="121">
            745 489 -18 116 callsubr
            return
          </CharString>
          <CharString index="122">
            13 47 hhcurveto
            70 32 -25 -40 -51 -60 -52 return
          </CharString>
          <CharString index="123">
            -17 -81 rlineto
            24 hlineto
            82 46 -32 -53 -48 return
          </CharString>
          <CharString index="124">
            109 150 62 289 rlinecurve
            endchar
          </CharString>
          <CharString index="125">
            hlineto
            -53 -49 -36 -46 -10 hvcurveto
            -47 -10 return
          </CharString>
          <CharString index="126">
            1880 rmoveto
            -202 -148 return
          </CharString>
          <CharString index="127">
            1587 44 callgsubr
            return
          </CharString>
          <CharString index="128">
            1544 rmoveto
            -216 -8 hlineto
            return
          </CharString>
          <CharString index="129">
            41 55 12 hvcurveto
            55 12 -35 43 return
          </CharString>
          <CharString index="130">
            120 569 rlineto
            181 return
          </CharString>
          <CharString index="131">
            -53 -66 -62 46 -46 64 hvcurveto
            return
          </CharString>
          <CharString index="132">
            rmoveto
            -139 -162 -44 -24 -129 -13 rrcurveto
            -19 -88 478 0 17 88 -152 21 2 30 103 126 rlinecurve
            287 355 153 -354 53 -125 -15 -31 -162 -21 rlinecurve
            -18 -88 605 0 19 88 -100 21 -37 22 -49 111 rlinecurve
            -215 502 358 420 131 153 43 25 130 13 rlinecurve
            19 88 -477 0 -19 -88 152 -21 -1 -29 -103 -127 rlinecurve
            -274 -339 -145 339 -55 125 15 31 162 21 rlinecurve
            19 88 -606 0 -18 -88 rlineto
            104 -21 34 -22 47 -112 209 -486 rcurveline
            endchar
          </CharString>
          <CharString index="133">
            296 hlineto
            18 82 rlineto
            -76 18 -37 42 -88 215 -126 308 rcurveline
            211 64 159 132 213 vvcurveto
            234 -195 136 -333 vhcurveto
            -547 hlineto
            -18 -88 150 -14 14 -16 -18 -88 rlinecurve
            -221 -1032 -19 -87 -19 -16 -157 -15 rlinecurve
            -19 -88 582 0 18 88 rlineto
            -137 14 -12 18 18 86 88 413 rcurveline
            120 hlineto
            33 34 1 3 33 hvcurveto
            340 444 rmoveto
            -220 -164 -116 -247 -7 vhcurveto
            -127 -4 132 621 104 -3 rlineto
            195 -6 107 -93 -172 vvcurveto
            return
          </CharString>
          <CharString index="134">
            rmoveto
            -442 hlineto
            -19 -88 142 -14 10 -28 -24 -104 rlinecurve
            -227 -989 -21 -93 -24 -21 -146 -19 rlinecurve
            -18 -88 455 0 19 88 -141 19 -11 21 20 93 rlinecurve
            204 984 194 -1205 127 0 176 315 512 887 -195 -997 -17 -86 -19 -17 -158 -14 rlinecurve
            -18 -88 587 0 18 88 -145 14 -17 17 18 86 rlinecurve
            204 1033 16 87 21 17 157 14 rlinecurve
            18 88 -468 0 -617 -1108 rlineto
            endchar
          </CharString>
          <CharString index="135">
            rmoveto
            -363 233 -304 415 470 293 406 423 238 -101 212 -184 118 vhcurveto
            -6 34 38 -3 41 hhcurveto
            176 153 73 158 81 -40 76 -51 47 hvcurveto
            -81 hlineto
            6 -16 3 -27 -26 vvcurveto
            -148 -93 -136 -178 vhcurveto
            -124 -86 26 -161 hhcurveto
            -471 -292 -406 -423 hvcurveto
            275 -58 rmoveto
            -88 callgsubr
            -77 callgsubr
            -214 -144 163 323 vhcurveto
            endchar
          </CharString>
          <CharString index="136">
            18 88 rlineto
            -171 15 -10 28 17 84 72 336 rcurveline
            142 hlineto
            383 316 155 331 253 -184 154 -370 hvcurveto
            -525 hlineto
            -19 -88 rlineto
            153 -14 13 -22 -18 -85 -219 -1026 rcurveline
            -19 -85 -21 -22 -159 -14 -18 -88 rcurveline
            713 1342 rmoveto
            92 -3 rlineto
            194 -8 121 -95 -191 vvcurveto
            -262 -185 -118 -258 -9 vhcurveto
            -111 -3 rlineto
            endchar
          </CharString>
          <CharString index="137">
            rmoveto
            -405 -52 -18 -85 90 -14 rlineto
            50 -8 9 -19 -9 -47 -98 -458 rcurveline
            -216 -45 93 -147 200 hhcurveto
            141 124 83 157 80 hvcurveto
            -1 -4 -8 -32 -4 vvcurveto
            -123 -24 44 -71 113 hhcurveto
            -100 callsubr
            183 callsubr
            endchar
          </CharString>
          <CharString index="138">
            rmoveto
            127 131 49 95 74 hvcurveto
            20 95 rlineto
            136 callsubr
            -295 190 -143 203 vhcurveto
            131 946 rmoveto
            72 35 -44 -78 -130 -140 -93 -204 -61 hvcurveto
            -42 -13 rlineto
            255 15 123 164 141 hhcurveto
            return
          </CharString>
          <CharString index="139">
            rmoveto
            374 -1 -275 244 -457 hhcurveto
            -488 hlineto
            -19 -88 rlineto
            150 -15 13 -55 callgsubr
            -157 -15 -18 -88 rcurveline
            539 hlineto
            579 410 345 481 hvcurveto
            return
          </CharString>
          <CharString index="140">
            rmoveto
            -406 -52 -18 -84 90 -14 rlineto
            50 -10 10 -19 -10 -46 -226 -1060 rcurveline
            -152 -33 49 -76 124 hhcurveto
            -92 callsubr
            -32 callsubr
            return
          </CharString>
          <CharString index="141">
            16 -147 -23 -28 -159 -20 rlinecurve
            -18 -88 593 0 -48 callgsubr
            -702 314 rmoveto
            331 621 70 -621 rlineto
            return
          </CharString>
          <CharString index="142">
            56 hhcurveto
            358 hmoveto
            56 53 41 55 11 hvcurveto
            55 12 -35 43 -55 hhcurveto
            -56 callgsubr
            55 hhcurveto
            return
          </CharString>
          <CharString index="143">
            -367 rlineto
            107 hlineto
            244 375 rmoveto
            -205 -8 hlineto
            145 -367 rlineto
            100 hlineto
            return
          </CharString>
          <CharString index="144">
            -39 -112 hhcurveto
            -111 -76 39 58 11 hvcurveto
            -98 hlineto
            -134 -37 107 -85 178 hhcurveto
            return
          </CharString>
          <CharString index="145">
            91 110 43 59 50 hvcurveto
            19 -107 callsubr
            -32 hhcurveto
            -27 callgsubr
            return
          </CharString>
          <CharString index="146">
            rmoveto
            79 -73 134 153 1 1 61 -40 rlineto
            -88 198 callsubr
            endchar
          </CharString>
          <CharString index="147">
            -86 -53 hvcurveto
            97 hlineto
            122 52 83 57 81 vvcurveto
            76 -66 60 -110 vhcurveto
            return
          </CharString>
          <CharString index="148">
            1169 rmoveto
            232 200 140 -200 -71 callgsubr
            return
          </CharString>
          <CharString index="149">
            101 476 642 0 -101 -476 -18 -87 -5 callsubr
            return
          </CharString>
          <CharString index="150">
            -51 49 -69 hhcurveto
            -72 -58 -56 -71 hvcurveto
            -65 1 51 -49 70 hhcurveto
            endchar
          </CharString>
          <CharString index="151">
            -90 -371 rlineto
            79 hlineto
            85 225 73 34 263 9 rrcurveto
            55 return
          </CharString>
          <CharString index="152">
            rmoveto
            -176 -391 131 0 286 378 rlineto
            13 vlineto
            endchar
          </CharString>
          <CharString index="153">
            1855 rmoveto
            -201 -9 hlineto
            234 -279 rlineto
            80 hlineto
            return
          </CharString>
          <CharString index="154">
            rmoveto
            -254 142 -192 267 186 callsubr
            endchar
          </CharString>
          <CharString index="155">
            1899 rmoveto
            -78 -70 -31 -38 -36 hvcurveto
            -15 -67 rlineto
            18 return
          </CharString>
          <CharString index="156">
            1880 rmoveto
            -203 -148 -135 148 -96 0 return
          </CharString>
          <CharString index="157">
            1534 rmoveto
            33 157 -610 -156 -19 -92 rlineto
            return
          </CharString>
          <CharString index="158">
            103 0 -130 375 -168 0 -289 -375 rlineto
            return
          </CharString>
          <CharString index="159">
            rmoveto
            169 100 80 115 102 -69 68 -116 16 hvcurveto
            return
          </CharString>
          <CharString index="160">
            49 35 47 10 hvcurveto
            46 10 -33 36 -54 hhcurveto
            -11 hlineto
            return
          </CharString>
          <CharString index="161">
            -6 -14 36 hvcurveto
            29 -9 rlineto
            -16 41 39 -10 48 hhcurveto
            return
          </CharString>
          <CharString index="162">
            rmoveto
            96 87 56 117 25 hvcurveto
            -99 hlineto
            -43 -8 -30 return
          </CharString>
          <CharString index="163">
            -126 289 -152 0 -249 -289 rlineto
            return
          </CharString>
          <CharString index="164">
            241 142 250 239 -2 hvcurveto
            179 return
          </CharString>
          <CharString index="165">
            -23 14 27 -29 hvcurveto
            -33 31 rlineto
            39 -44 -45 23 return
          </CharString>
          <CharString index="166">
            13 25 -27 hvcurveto
            -31 27 rlineto
            35 -41 -42 21 return
          </CharString>
          <CharString index="167">
            0 18 88 -138 14 -17 19 18 86 rlinecurve
            return
          </CharString>
          <CharString index="168">
            -58 -56 -71 vhcurveto
            -65 1 50 -49 70 hhcurveto
            endchar
          </CharString>
          <CharString index="169">
            rmoveto
            53 48 35 47 10 hvcurveto
            46 11 -34 36 return
          </CharString>
          <CharString index="170">
            rmoveto
            179 143 85 134 21 hvcurveto
            return
          </CharString>
          <CharString index="171">
            143 -58 0 -296 -143 rlineto
            return
          </CharString>
          <CharString index="172">
            -68 68 -116 16 hvcurveto
            100 110 return
          </CharString>
          <CharString index="173">
            1856 rmoveto
            -173 -7 hlineto
            return
          </CharString>
          <CharString index="174">
            1603 rmoveto
            60 52 50 64 return
          </CharString>
          <CharString index="175">
            159 0 250 290 rlineto
            return
          </CharString>
          <CharString index="176">
            34 -35 53 hhcurveto
            341 hmoveto
            53 return
          </CharString>
          <CharString index="177">
            -12 rlineto
            -17 39 38 -12 47 hhcurveto
            return
          </CharString>
          <CharString index="178">
            -50 49 -70 hhcurveto
            -72 -58 -56 -71 return
          </CharString>
          <CharString index="179">
            rmoveto
            -71 50 -54 77 92 63 57 214 128 vhcurveto
            65 111 38 -114 rlineto
            -191 63 62 -74 118 hhcurveto
            90 68 38 59 41 hvcurveto
            19 91 rlineto
            -25 -27 -33 -16 -37 hhcurveto
            -56 -46 37 163 -51 hvcurveto
            -67 204 109 172 44 69 33 47 27 31 rlinecurve
            -42 19 42 -30 50 hhcurveto
            70 54 58 70 71 -50 54 -77 -91 -68 -56 -215 -123 hvcurveto
            -73 -127 -127 387 -323 -49 -16 -86 86 -12 56 -9 14 -15 18 -51 rlinecurve
            111 -337 -102 -157 -45 -68 -33 -47 -27 -31 rlinecurve
            42 -19 -42 30 -49 hhcurveto
            -71 -54 -59 -69 hvcurveto
            endchar
          </CharString>
          <CharString index="180">
            rmoveto
            294 245 173 275 165 -81 120 -191 119 hvcurveto
            -78 48 rlineto
            -151 94 -54 76 101 vvcurveto
            130 111 81 150 183 109 -105 -198 11 vhcurveto
            78 hlineto
            47 315 rlineto
            61 -76 -171 51 -176 hhcurveto
            -322 -191 -174 -238 -166 92 -119 190 -118 hvcurveto
            77 -48 rlineto
            149 -93 48 -77 -108 vvcurveto
            -152 -132 -89 -155 -195 -133 112 202 -11 vhcurveto
            -78 hlineto
            -52 -315 rlineto
            -64 82 205 -59 176 hhcurveto
            return
          </CharString>
          <CharString index="181">
            rmoveto
            291 228 235 398 58 hvcurveto
            273 38 -76 150 -147 hhcurveto
            -84 -73 -75 -118 9 hvcurveto
            150 -40 53 -151 -27 -177 rrcurveto
            -206 -32 -123 -145 -162 hhcurveto
            -137 -49 85 161 34 hvcurveto
            5 22 70 293 16 77 rrcurveto
            186 40 -71 78 -147 hhcurveto
            -79 -77 -29 -30 -49 hvcurveto
            -18 -86 rlineto
            5 11 18 5 25 hhcurveto
            71 49 -37 -99 -22 hvcurveto
            -19 -92 -67 -289 -7 -31 rrcurveto
            -215 -46 95 -148 251 hhcurveto
            endchar
          </CharString>
          <CharString index="182">
            -138 -114 -81 -152 -71 vhcurveto
            50 223 -63 callsubr
            -229 -1076 -11 -57 -23 -13 -135 -22 rlinecurve
            -19 -90 582 0 19 90 rlineto
            -168 23 -21 11 12 58 70 335 rcurveline
            -47 42 71 -33 97 hhcurveto
            316 217 321 364 hvcurveto
            -243 -18 rmoveto
            -243 -1 -108 -307 -212 hhcurveto
            -84 -57 39 46 -12 hvcurveto
            88 407 rlineto
            198 42 102 101 99 hhcurveto
            90 53 -68 -173 hvcurveto
            endchar
          </CharString>
          <CharString index="183">
            rmoveto
            -66 68 133 -43 147 hhcurveto
            237 157 142 172 120 -49 89 -142 86 hvcurveto
            -71 41 rlineto
            -95 59 -36 41 68 vvcurveto
            76 1 57 51 102 hhcurveto
            124 78 -79 -136 -2 hvcurveto
            78 hlineto
            51 249 rlineto
            47 -68 -106 30 -155 hhcurveto
            -238 -144 -130 -171 -117 62 -90 133 -80 hvcurveto
            70 -41 rlineto
            98 -59 29 -46 -71 vvcurveto
            -84 -61 -56 -110 -126 -95 85 159 -4 vhcurveto
            -77 hlineto
            return
          </CharString>
          <CharString index="184">
            rmoveto
            -388 hlineto
            -18 -88 142 -13 9 -29 -23 -104 rlinecurve
            -218 -988 -21 -97 -24 -20 -135 -17 rlinecurve
            -19 -88 456 0 19 88 -151 19 -11 18 20 98 rlinecurve
            188 951 526 -1174 226 0 269 1222 22 97 23 20 135 17 rlinecurve
            19 88 -455 0 -19 -88 rlineto
            151 -18 10 -19 -20 -97 -187 -953 rcurveline
            return
          </CharString>
          <CharString index="185">
            1644 931 -31 rmoveto
            436 344 346 470 377 -281 315 -410 -429 -351 -348 -468 -379 290 -313 401 hvcurveto
            -2 82 rmoveto
            -342 -254 272 337 433 325 302 363 350 246 -273 -336 -434 -318 -301 -370 hvcurveto
            return
          </CharString>
          <CharString index="186">
            1509 787 -31 rmoveto
            316 238 202 366 80 hvcurveto
            152 685 21 94 22 20 136 20 rlinecurve
            19 88 -455 0 82 callsubr
            rlineto
            128 -20 15 -20 -20 -94 -135 -633 rcurveline
            -12 callsubr
            return
          </CharString>
          <CharString index="187">
            157 16 rlinecurve
            19 88 -593 0 -19 -88 150 -16 13 -17 -18 -86 rlinecurve
            -202 -951 -74 -345 12 callgsubr
            endchar
          </CharString>
          <CharString index="188">
            -34 36 -52 hhcurveto
            -12 hlineto
            -53 -48 -36 -46 -11 hvcurveto
            -47 -9 33 -35 53 hhcurveto
            341 hmoveto
            54 48 35 47 10 hvcurveto
            46 10 -33 36 -53 hhcurveto
            -12 hlineto
            -52 -49 -37 callgsubr
            endchar
          </CharString>
          <CharString index="189">
            -18 -88 rlineto
            150 -21 11 -19 -20 -94 -137 -667 rcurveline
            -295 -63 -182 -123 -189 hhcurveto
            -220 -144 142 322 70 hvcurveto
            134 621 20 94 24 19 155 21 rlinecurve
            18 88 -575 0 -19 -88 return
          </CharString>
          <CharString index="190">
            rmoveto
            163 -125 130 -210 29 vhcurveto
            215 28 169 113 4 195 rrcurveto
            203 3 -175 128 -366 hhcurveto
            -511 hlineto
            -19 -88 rlineto
            151 -15 12 -55 callgsubr
            185 callsubr
            endchar
          </CharString>
          <CharString index="191">
            731 1445 rmoveto
            -79 hlineto
            -261 -110 -13 -64 143 28 7 1 3 -4 -1 -6 rlinecurve
            -106 -500 -11 -54 -33 -12 -120 -10 rlinecurve
            -13 -64 463 0 13 64 -113 10 -31 12 13 54 rlinecurve
            return
          </CharString>
          <CharString index="192">
            rmoveto
            -140 -714 rlineto
            -226 -44 96 -93 164 hhcurveto
            111 108 46 64 69 hvcurveto
            18 84 rlineto
            -29 -42 -55 -12 -60 hhcurveto
            -115 -50 60 140 33 hvcurveto
            161 680 rlineto
            endchar
          </CharString>
          <CharString index="193">
            rmoveto
            56 53 41 55 12 hvcurveto
            55 11 -34 43 -56 hhcurveto
            -56 callgsubr
            56 hhcurveto
            358 hmoveto
            56 52 22 callsubr
            -55 hhcurveto
            -12 -42 callgsubr
            55 hhcurveto
            endchar
          </CharString>
          <CharString index="194">
            40 -32 -44 -50 -47 -29 -68 -47 100 callgsubr
          </CharString>
          <CharString index="195">
            -30 hhcurveto
            -22 -18 11 23 -23 hvcurveto
            -26 23 rlineto
            31 -37 -38 18 -48 hhcurveto
            -81 -65 -59 -190 -20 hvcurveto
            85 hlineto
            95 13 23 21 return
          </CharString>
          <CharString index="196">
            579 633 rmoveto
            241 141 249 240 -2 hvcurveto
            178 -90 163 -192 -241 85 callgsubr
            return
          </CharString>
          <CharString index="197">
            -41 -32 -71 -58 -69 callgsubr
            endchar
          </CharString>
          <CharString index="198">
            9 hvcurveto
            -92 162 callsubr
            -93 hlineto
            -11 -28 -9 -39 -35 vvcurveto
            -147 114 -105 160 vhcurveto
            return
          </CharString>
          <CharString index="199">
            1215 632 1023 rmoveto
            -63 callsubr
            -80 callsubr
            148 callsubr
            return
          </CharString>
          <CharString index="200">
            17 18 85 rlinecurve
            242 1137 55 -2 257 -9 59 -34 -10 -225 rlinecurve
            78 hlineto
            return
          </CharString>
          <CharString index="201">
            -26 11 rlineto
            19 -40 -39 11 -47 hhcurveto
            -92 -88 -65 -138 -30 hvcurveto
            96 hlineto
            51 11 30 20 return
          </CharString>
          <CharString index="202">
            hvcurveto
            2 -85 -52 -60 -157 -127 rrcurveto
            -237 -189 -25 -117 rlineto
            endchar
          </CharString>
          <CharString index="203">
            -8 hvcurveto
            92 hlineto
            12 29 8 39 35 vvcurveto
            147 -114 104 -159 vhcurveto
            return
          </CharString>
          <CharString index="204">
            -18 -39 hhcurveto
            -26 -26 7 12 -36 hvcurveto
            -28 11 rlineto
            14 -41 -40 10 -48 hhcurveto
            return
          </CharString>
          <CharString index="205">
            2 -242 -1137 -18 -85 -21 -17 -175 -17 rlinecurve
            -18 -87 return
          </CharString>
          <CharString index="206">
            -73 46 68 13 hvcurveto
            -95 hlineto
            -157 -42 100 -101 175 hhcurveto
            endchar
          </CharString>
          <CharString index="207">
            rmoveto
            159 99 69 121 108 -79 70 -99 -65 -49 -19 -35 return
          </CharString>
          <CharString index="208">
            1113 rmoveto
            251 431 -203 0 -135 -431 rlineto
            return
          </CharString>
          <CharString index="209">
            59 40 -32 -44 -50 -47 -29 -69 -47 -42 223 callsubr
          </CharString>
          <CharString index="210">
            0 -127 -139 -17 -81 rlineto
            23 hlineto
            83 46 -32 -53 -48 return
          </CharString>
          <CharString index="211">
            1849 rmoveto
            574 -78 17 78 -564 133 rlineto
            return
          </CharString>
          <CharString index="212">
            1829 rmoveto
            574 -78 17 77 -564 133 rlineto
            return
          </CharString>
          <CharString index="213">
            1637 rmoveto
            522 hlineto
            28 134 rlineto
            -520 hlineto
            return
          </CharString>
          <CharString index="214">
            1603 rmoveto
            83 62 59 190 22 hvcurveto
            -85 hlineto
            -95 return
          </CharString>
          <CharString index="215">
            1534 rmoveto
            34 157 -611 -156 -19 -92 rlineto
            return
          </CharString>
          <CharString index="216">
            1267 rmoveto
            579 hlineto
            31 147 rlineto
            -579 hlineto
            return
          </CharString>
          <CharString index="217">
            -73 -232 -26 hvcurveto
            97 hlineto
            117 17 27 28 37 hhcurveto
            return
          </CharString>
          <CharString index="218">
            1891 rmoveto
            -172 -106 -116 -188 -6 hvcurveto
            return
          </CharString>
          <CharString index="219">
            1544 rmoveto
            -255 -375 -78 callsubr
            return
          </CharString>
          <CharString index="220">
            1530 744 1444 77 callsubr
            return
          </CharString>
          <CharString index="221">
            1230 rmoveto
            73 59 58 74 68 -51 51 -71 -72 return
          </CharString>
          <CharString index="222">
            168 100 80 115 102 -68 68 -116 16 hvcurveto
            return
          </CharString>
          <CharString index="223">
            rmoveto
            109 115 44 67 53 hvcurveto
            19 91 rlineto
            -35 return
          </CharString>
          <CharString index="224">
            rmoveto
            96 88 56 117 24 hvcurveto
            -98 hlineto
            -43 -9 -29 return
          </CharString>
          <CharString index="225">
            1345 rmoveto
            -125 103 -81 146 171 return
          </CharString>
          <CharString index="226">
            -127 289 -151 0 -249 -289 rlineto
            return
          </CharString>
          <CharString index="227">
            42 -102 hhcurveto
            -633 -453 -91 callgsubr
            return
          </CharString>
          <CharString index="228">
            -52 -18 -84 90 -14 50 -10 9 -18 -9 -47 rlinecurve
            return
          </CharString>
          <CharString index="229">
            rmoveto
            91 69 66 209 24 hvcurveto
            -91 hlineto
            -106 -15 return
          </CharString>
          <CharString index="230">
            73 57 56 71 -1 hvcurveto
            65 -51 49 -70 -71 return
          </CharString>
          <CharString index="231">
            58 74 68 -51 51 -71 -72 -59 -58 -74 -68 return
          </CharString>
          <CharString index="232">
            -99 hlineto
            -58 -14 -92 37 callsubr
            endchar
          </CharString>
          <CharString index="233">
            rmoveto
            577 hlineto
            25 120 rlineto
            -577 hlineto
            return
          </CharString>
          <CharString index="234">
            rmoveto
            -68 54 -50 68 69 56 54 65 38 -18 34 -28 21 vhcurveto
            18 39 48 11 55 hhcurveto
            143 86 -90 -207 -28 hvcurveto
            -6 -42 -150 -12 rlineto
            -327 -25 -180 -113 -194 vvcurveto
            -155 126 -98 170 189 120 121 159 47 vhcurveto
            -182 49 134 -98 175 hhcurveto
            142 121 59 85 67 hvcurveto
            20 92 rlineto
            -60 -72 -82 -29 -85 hhcurveto
            -165 -96 118 202 hvcurveto
            13 1 12 12 vvcurveto
            69 4 rlineto
            395 23 140 130 157 vvcurveto
            146 -121 92 -194 -125 -118 -55 -95 -92 vhcurveto
            93 -57 -109 57 -161 hhcurveto
            -205 -164 -107 -136 hvcurveto
            1015 130 rmoveto
            74 49 -42 -75 -107 -86 -96 -246 -22 hvcurveto
            -56 -5 rlineto
            206 30 103 141 132 hhcurveto
            -902 -655 rmoveto
            118 96 68 207 19 vhcurveto
            109 9 -2 -15 rlineto
            -250 -34 -92 -91 -129 hhcurveto
            -92 -63 48 94 hvcurveto
            endchar
          </CharString>
          <CharString index="235">
            rmoveto
            -1042 hlineto
            -819 -1191 -89 -130 -36 -22 -133 -13 rlinecurve
            -17 -88 484 0 19 88 -156 18 -8 22 82 125 rlinecurve
            203 305 454 0 -60 -324 -21 -114 -8 -16 -157 -16 rlinecurve
            -19 -88 1098 0 103 413 rlineto
            -75 hlineto
            -102 -252 -85 -38 -261 -11 rrcurveto
            -245 -11 108 582 rlineto
            237 hlineto
            68 18 -29 -169 -8 hvcurveto
            75 hlineto
            106 505 rlineto
            -76 hlineto
            -172 -68 -27 -25 -65 hhcurveto
            -239 hlineto
            102 550 232 -11 243 -10 32 -41 9 -208 rlinecurve
            76 hlineto
            -929 261 rmoveto
            83 hlineto
            -124 -664 rlineto
            -401 hlineto
            endchar
          </CharString>
          <CharString index="236">
            1377 525 207 rmoveto
            103 486 151 0 276 -693 327 0 18 82 -71 22 -46 51 -86 211 rlinecurve
            -201 493 280 259 186 169 54 47 132 22 rlinecurve
            19 88 -500 0 -18 -88 150 -13 13 -38 -128 -126 rlinecurve
            -386 -382 -148 0 94 440 18 86 21 19 143 14 rlinecurve
            18 88 -580 0 -19 -88 151 -15 11 -18 -18 -86 rlinecurve
            -72 callgsubr
            580 0 18 88 -136 14 -12 19 18 86 rlinecurve
            return
          </CharString>
          <CharString index="237">
            rmoveto
            88 66 39 58 42 hvcurveto
            19 91 rlineto
            -25 -25 -33 -14 -34 hhcurveto
            -56 -43 37 165 -56 hvcurveto
            -106 305 137 108 170 136 68 35 96 18 rlinecurve
            15 74 -445 0 -15 -74 129 -12 12 -27 -122 -105 rlinecurve
            -319 -272 207 976 -64 callsubr
            -60 callsubr
            235 0 86 405 115 90 76 -232 rlineto
            -196 64 68 -84 114 hhcurveto
            return
          </CharString>
          <CharString index="238">
            -159 -633 rmoveto
            143 -43 callgsubr
            -1072 -726 rmoveto
            -21 callgsubr
            955 -736 rmoveto
            57 callsubr
            -90 163 -192 -241 -142 -250 -240 2 vhcurveto
            -177 90 -164 192 vhcurveto
            return
          </CharString>
          <CharString index="239">
            rmoveto
            328 214 290 321 253 -142 192 -267 -328 -214 -290 -320 -254 142 -192 267 hvcurveto
            7 114 rmoveto
            -104 -69 90 177 158 callsubr
            hvcurveto
            return
          </CharString>
          <CharString index="240">
            rmoveto
            169 111 62 82 74 hvcurveto
            20 92 rlineto
            -68 -83 -100 -33 -122 hhcurveto
            -116 -77 50 79 79 42 53 165 59 hvcurveto
            34 11 rlineto
            192 66 121 82 179 vvcurveto
            164 return
          </CharString>
          <CharString index="241">
            1467 -9 callsubr
            -51 -10 -30 -20 -38 hhcurveto
            -26 -24 7 15 -35 hvcurveto
            -27 155 callsubr
            39 hhcurveto
            24 24 -7 -16 36 hvcurveto
            27 -11 rlineto
            -18 40 38 -11 46 hhcurveto
            return
          </CharString>
          <CharString index="242">
            -105 122 201 272 139 202 181 33 29 -6 -11 23 hvcurveto
            -46 -19 -32 -45 -53 vvcurveto
            -69 54 -55 71 78 58 58 75 135 -110 102 111 callgsubr
            return
          </CharString>
          <CharString index="243">
            -71 -80 -95 -20 -68 hhcurveto
            -144 -101 99 185 -13 hvcurveto
            50 14 rlineto
            328 94 212 114 180 vvcurveto
            135 -118 87 -174 -279 -263 -256 -362 return
          </CharString>
          <CharString index="244">
            -18 -40 hhcurveto
            -25 -26 7 12 -37 hvcurveto
            -28 11 rlineto
            14 -41 -40 10 -48 hhcurveto
            -94 -89 -55 -118 -24 hvcurveto
            98 hlineto
            43 9 30 19 39 hhcurveto
            27 24 54 callsubr
            endchar
          </CharString>
          <CharString index="245">
            415 hhcurveto
            -16 123 rmoveto
            -213 -144 163 322 391 197 374 307 212 145 -162 -323 -391 -202 -374 -302 hvcurveto
            return
          </CharString>
          <CharString index="246">
            111 97 133 125 -104 81 -146 -170 -111 -97 -133 vhcurveto
            160 -6 rmoveto
            83 57 59 62 57 35 -40 -66 -84 -58 -59 -61 -58 -34 41 66 vhcurveto
            return
          </CharString>
          <CharString index="247">
            244 18 rmoveto
            243 1 107 308 213 hhcurveto
            82 57 -40 -45 13 hvcurveto
            -87 -408 rlineto
            -198 -43 -101 -101 -100 hhcurveto
            -90 -53 69 172 1 hvcurveto
            return
          </CharString>
          <CharString index="248">
            133 672 rlineto
            105 73 114 56 122 hhcurveto
            38 34 -6 -8 21 hvcurveto
            12 18 12 37 32 vvcurveto
            73 -37 46 -67 -94 -75 -71 -204 -143 vhcurveto
            return
          </CharString>
          <CharString index="249">
            -27 11 rlineto
            19 -39 -39 11 -47 hhcurveto
            -92 -89 -65 -138 -29 hvcurveto
            96 hlineto
            51 11 30 20 39 hhcurveto
            25 23 -7 -15 35 hvcurveto
            28 70 callsubr
            endchar
          </CharString>
          <CharString index="250">
            21 101 -263 0 38 163 -239 -20 -31 -143 -163 0 -21 -101 163 0 -255 -1200 -42 callsubr
            return
          </CharString>
          <CharString index="251">
            11 23 -22 hvcurveto
            -27 23 rlineto
            31 -36 -39 18 -47 hhcurveto
            -82 -64 -59 -190 -20 hvcurveto
            85 hlineto
            95 13 22 21 30 hhcurveto
            23 18 -11 -22 return
          </CharString>
          <CharString index="252">
            132 -619 -133 -16 -77 rlineto
            -55 -263 -91 callgsubr
            return
          </CharString>
          <CharString index="253">
            359 hmoveto
            56 53 42 55 11 hvcurveto
            55 12 -35 42 -56 hhcurveto
            -11 hlineto
            -55 -53 -42 -55 -12 hvcurveto
            -55 -11 34 -42 56 hhcurveto
            return
          </CharString>
          <CharString index="254">
            -18 -1 -33 -104 -135 rlinecurve
            -327 -432 -147 432 -46 134 14 34 156 18 rlinecurve
            19 88 -588 0 return
          </CharString>
          <CharString index="255">
            119 567 rlineto
            183 40 124 137 113 hhcurveto
            91 47 -74 -134 -29 hvcurveto
            -69 callsubr
            return
          </CharString>
          <CharString index="256">
            1550 rmoveto
            -90 -79 -36 -44 -41 hvcurveto
            -18 -80 rlineto
            22 32 48 15 52 hhcurveto
            77 36 -29 -47 -61 -67 -62 return
          </CharString>
          <CharString index="257">
            1127 19 90 18 13 154 16 rlinecurve
            18 88 -588 0 -18 -88 142 -14 20 -15 -19 -90 rlinecurve
            endchar
          </CharString>
          <CharString index="258">
            287 0 25 117 -287 -9 51 234 -246 -36 -43 -200 -166 -26 -16 -80 159 0 return
          </CharString>
          <CharString index="259">
            846 625 1023 rmoveto
            -386 121 callsubr
            -80 callsubr
            141 callsubr
            return
          </CharString>
          <CharString index="260">
            -64 81 -8 5 -18 -13 -56 rlinecurve
            -118 -515 -11 -47 -14 -12 -83 -10 rlinecurve
            -14 -64 272 0 return
          </CharString>
          <CharString index="261">
            486 1237 rmoveto
            -218 -1030 rlineto
            -19 -90 -24 -14 -152 -15 -19 -88 rcurveline
            return
          </CharString>
          <CharString index="262">
            12 rlineto
            17 -39 -39 11 -47 hhcurveto
            -92 -89 -65 -137 -29 hvcurveto
            96 hlineto
            50 11 30 21 return
          </CharString>
          <CharString index="263">
            -26 -30 -44 hvcurveto
            -17 -76 rlineto
            16 30 54 14 49 hhcurveto
            65 31 -24 -40 -8 hvcurveto
            -9 -39 return
          </CharString>
          <CharString index="264">
            96 188 62 hvcurveto
            -93 29 rlineto
            -131 -48 -99 -82 -121 hhcurveto
            -30 -27 6 10 return
          </CharString>
          <CharString index="265">
            245 91 316 201 104 68 -90 -177 -244 -91 -317 -200 return
          </CharString>
          <CharString index="266">
            19 89 22 15 150 15 rlinecurve
            18 88 -588 0 -18 -88 145 -15 17 return
          </CharString>
          <CharString index="267">
            10 -48 hhcurveto
            -95 -89 -56 -117 -24 hvcurveto
            98 hlineto
            43 9 30 19 40 hhcurveto
            25 return
          </CharString>
          <CharString index="268">
            rmoveto
            237 4 158 152 -40 callgsubr
            80 callgsubr
            endchar
          </CharString>
          <CharString index="269">
            hlineto
            -114 -20 -73 -66 -120 hhcurveto
            -105 -70 65 81 13 2 13 2 8 hvcurveto
            return
          </CharString>
          <CharString index="270">
            1603 rmoveto
            84 62 -65 callgsubr
            -22 -19 144 callsubr
            return
          </CharString>
          <CharString index="271">
            1544 rmoveto
            -166 -375 115 0 260 367 rlineto
            8 vlineto
            return
          </CharString>
          <CharString index="272">
            1510 rmoveto
            34 156 -611 -156 -19 -92 rlineto
            -47 -226 rmoveto
            return
          </CharString>
          <CharString index="273">
            -136 148 -95 0 127 -290 158 0 251 290 rlineto
            return
          </CharString>
          <CharString index="274">
            rmoveto
            471 292 407 422 157 -44 147 -84 115 hvcurveto
            166 166 -74 75 -162 -160 rlineto
            104 -109 -151 63 -190 hhcurveto
            -471 -292 -406 -422 hvcurveto
            1 -158 43 -146 84 -115 rrcurveto
            -168 -168 75 -75 163 162 rlineto
            -104 108 152 -64 190 hhcurveto
            -373 609 rmoveto
            -88 callgsubr
            130 105 -61 -121 62 vhcurveto
            -779 -775 rlineto
            -14 56 -7 65 72 vvcurveto
            358 -486 rmoveto
            -131 -105 61 121 -61 hvcurveto
            779 776 rlineto
            14 -56 7 -65 -72 vvcurveto
            -392 -203 -373 -300 vhcurveto
            endchar
          </CharString>
          <CharString index="275">
            rmoveto
            -210 -9 115 -167 214 hhcurveto
            156 106 95 176 58 hvcurveto
            -180 4 128 -91 162 hhcurveto
            286 183 277 337 8 hvcurveto
            277 7 -122 165 -148 hhcurveto
            -91 -68 -79 -114 9 hvcurveto
            164 -40 108 -133 -4 -188 rrcurveto
            -193 -4 -112 -169 -142 hhcurveto
            -132 -81 93 275 63 hvcurveto
            51 230 -223 0 -48 -222 rlineto
            -272 -58 -72 -104 -115 hhcurveto
            -93 -55 67 165 4 hvcurveto
            5 274 116 227 175 112 rrcurveto
            -37 59 -316 -103 -182 -277 -10 -287 rlinecurve
            endchar
          </CharString>
          <CharString index="276">
            rmoveto
            146 120 87 175 111 hvcurveto
            -1 vlineto
            -183 14 66 -72 118 hhcurveto
            62 70 38 43 34 hvcurveto
            18 84 rlineto
            -9 -13 -27 -7 -23 hhcurveto
            -83 -34 25 228 -35 hvcurveto
            -10 62 313 562 rlineto
            -249 hlineto
            -26 -102 -44 -123 -42 -105 rrcurveto
            254 -21 -99 99 -177 hhcurveto
            -252 -226 -280 -385 -9 hvcurveto
            -222 -11 90 -168 219 hhcurveto
            -57 425 rmoveto
            316 6 122 189 133 hhcurveto
            110 20 -101 -395 31 hvcurveto
            1 -14 rlineto
            -185 -92 -92 -83 -95 hhcurveto
            -96 -54 86 187 6 hvcurveto
            endchar
          </CharString>
          <CharString index="277">
            rmoveto
            327 211 291 319 99 -21 89 -42 72 hvcurveto
            112 115 -72 71 -103 -105 rlineto
            65 -68 -94 38 -118 hhcurveto
            -327 -211 -290 -320 -100 22 -90 43 -73 hvcurveto
            -107 -110 72 -70 99 101 rlineto
            -64 67 93 -38 117 hhcurveto
            -168 382 rmoveto
            246 91 315 202 73 55 -43 -84 27 vhcurveto
            -448 -458 rlineto
            8 0 8 8 vvcurveto
            175 -270 rmoveto
            -71 -55 41 82 -28 hvcurveto
            446 456 rlineto
            -6 1 -6 -6 vvcurveto
            -246 -91 -315 -202 vhcurveto
            endchar
          </CharString>
          <CharString index="278">
            1064 -301 rmoveto
            78 -73 135 153 1 1 61 -40 rlineto
            -88 130 74 -23 90 hhcurveto
            117 123 70 194 97 hvcurveto
            -60 50 rlineto
            -90 -57 -61 -29 -53 hhcurveto
            -84 -56 25 62 -101 hvcurveto
            -66 40 567 626 18 85 -739 0 -81 -321 rlineto
            78 hlineto
            116 45 24 17 89 hhcurveto
            319 hlineto
            -1508 -456 rmoveto
            243 1 107 308 213 hhcurveto
            82 57 -40 -45 13 hvcurveto
            -87 -408 rlineto
            -198 -43 -101 -101 -100 hhcurveto
            -90 -53 69 172 1 hvcurveto
            endchar
          </CharString>
          <CharString index="279">
            rmoveto
            219 162 68 112 88 hvcurveto
            17 95 rlineto
            -69 -71 -158 -58 -150 hhcurveto
            -146 -73 59 89 132 118 56 242 hvcurveto
            40 hlineto
            17 161 rlineto
            -74 hlineto
            -196 -63 51 83 100 81 68 165 83 62 -15 -22 44 hvcurveto
            -35 -23 -15 -42 -32 vvcurveto
            -60 1 49 -52 71 hhcurveto
            69 52 53 74 124 -107 104 -274 -314 -158 -137 -179 -107 70 -81 134 -32 hvcurveto
            -194 -29 -121 -89 -158 vvcurveto
            -136 125 -108 240 vhcurveto
            endchar
          </CharString>
          <CharString index="280">
            39 118 137 107 hhcurveto
            88 44 -74 -121 -26 hvcurveto
            -146 -692 235 0 121 569 rlineto
            181 38 116 137 109 hhcurveto
            87 45 -74 -132 -28 hvcurveto
            -100 -470 rlineto
            -152 -32 48 68 callgsubr
            -57 callsubr
            98 456 rlineto
            220 48 -85 136 -199 hhcurveto
            -150 -116 -104 -155 -67 hvcurveto
            150 9 -75 109 -179 hhcurveto
            -148 -110 -84 -178 -81 hvcurveto
            55 252 -63 callsubr
            return
          </CharString>
          <CharString index="281">
            241 hlineto
            116 551 rlineto
            225 48 108 111 123 hhcurveto
            86 74 -62 -189 -38 hvcurveto
            -26 -122 -163 -748 -47 -226 rrcurveto
            239 hlineto
            238 1137 rlineto
            245 51 -119 111 -185 hhcurveto
            -165 -116 -105 -153 -71 hvcurveto
            190 19 -72 57 -114 hhcurveto
            -73 -67 -23 -35 -57 hvcurveto
            -18 -85 rlineto
            5 13 19 4 27 hhcurveto
            64 48 -33 -125 -21 hvcurveto
            -21 -130 -109 -466 -32 -134 rrcurveto
            endchar
          </CharString>
          <CharString index="282">
            rmoveto
            -12 -69 -160 -21 -17 -79 160 0 -155 -900 -46 -264 -59 -77 -80 -16 rlinecurve
            8 16 5 18 20 vvcurveto
            65 -50 48 -61 -63 -50 -50 -67 -88 69 -70 128 212 172 190 530 94 vhcurveto
            114 645 243 0 25 116 -251 -7 23 132 36 215 64 79 89 1 rlinecurve
            -14 -19 -8 -25 -26 vvcurveto
            -67 50 -49 62 67 54 51 70 93 -84 76 -149 -220 -141 -171 -300 -55 vhcurveto
            endchar
          </CharString>
          <CharString index="283">
            rmoveto
            -80 62 -61 95 170 134 102 333 233 vhcurveto
            563 806 78 111 32 19 137 16 rlinecurve
            18 88 -486 0 -18 -88 178 -20 -4 -8 -78 -118 rlinecurve
            -437 -662 -158 662 -28 117 -1 9 188 20 rlinecurve
            18 88 -620 0 -17 -88 130 -16 26 -17 30 -113 rlinecurve
            244 -908 -74 -101 -70 -68 -74 -34 rlinecurve
            1 6 1 7 6 vvcurveto
            75 -59 57 -73 -79 -62 -63 -77 vhcurveto
            endchar
          </CharString>
          <CharString index="284">
            719 1241 rmoveto
            2 -117 -169 -24 -121 -11 -14 -71 rcurveline
            2 13 19 3 25 hhcurveto
            127 55 -65 -72 hvcurveto
            -113 2 -88 -56 -90 hhcurveto
            -45 -33 9 14 -24 hvcurveto
            17 14 9 22 24 vvcurveto
            44 -31 35 -46 -46 -35 -35 -48 -103 128 -60 127 157 167 90 169 vhcurveto
            -2 96 -63 73 -105 30 113 14 118 65 -2 113 rrcurveto
            119 -114 60 -5 callgsubr
            return
          </CharString>
          <CharString index="285">
            rmoveto
            79 61 29 35 34 hvcurveto
            18 86 rlineto
            -18 -22 -30 -12 -34 hhcurveto
            -61 -39 55 77 68 31 73 67 67 hvcurveto
            459 11 284 401 416 vvcurveto
            363 -105 callsubr
            vhcurveto
            1 -341 205 -289 368 -34 rrcurveto
            -131 -82 -86 -102 -104 vvcurveto
            -103 86 -72 121 vhcurveto
            69 582 rmoveto
            -213 -145 163 323 -88 callgsubr
            -77 callgsubr
            hvcurveto
            endchar
          </CharString>
          <CharString index="286">
            rmoveto
            245 -127 126 -149 -135 -113 -78 -147 -71 vhcurveto
            159 688 -64 callsubr
            -60 callsubr
            126 0 90 95 rlineto
            -65 37 79 -53 124 hhcurveto
            315 218 321 364 hvcurveto
            -244 -18 rmoveto
            -243 -1 -107 -307 -213 hhcurveto
            -82 -58 39 46 -12 hvcurveto
            87 407 rlineto
            198 43 101 101 100 hhcurveto
            90 53 -68 -173 -1 hvcurveto
            return
          </CharString>
          <CharString index="287">
            rmoveto
            85 82 56 48 38 hvcurveto
            19 93 rlineto
            -27 -44 -33 -12 -30 hhcurveto
            -46 -42 24 64 -35 hvcurveto
            -204 355 103 108 73 77 48 53 40 36 rlinecurve
            -55 15 46 -38 64 hhcurveto
            71 60 58 76 69 -46 65 -93 -99 -79 -80 -174 -157 hvcurveto
            -236 -270 111 514 -407 -52 -17 78 callgsubr
            107 496 204 -353 rlineto
            -110 57 49 -50 92 hhcurveto
            endchar
          </CharString>
          <CharString index="288">
            rmoveto
            74 72 28 36 37 hvcurveto
            18 86 rlineto
            -18 -22 -31 -12 -33 hhcurveto
            -60 -44 46 84 72 33 80 51 63 hvcurveto
            301 27 193 276 305 vvcurveto
            253 -142 192 -267 -329 -213 -290 -320 -235 122 -182 230 -26 vhcurveto
            -119 -79 -72 -103 -105 vvcurveto
            -103 81 -75 120 vhcurveto
            54 576 rmoveto
            -104 -69 90 177 158 callsubr
            hvcurveto
            endchar
          </CharString>
          <CharString index="289">
            589 hlineto
            18 88 -139 14 -20 17 19 88 rlinecurve
            9 40 817 758 -170 -798 -19 -90 -18 -13 -153 -16 rlinecurve
            -19 -88 588 0 19 88 -142 14 -20 15 19 90 rlinecurve
            218 -59 callgsubr
            -588 0 -19 -88 144 -15 16 -14 -19 -90 rlinecurve
            -11 -50 -818 -759 172 809 159 callsubr
            88 callgsubr
            endchar
          </CharString>
          <CharString index="290">
            90 rlineto
            -32 -38 -54 -11 -33 hhcurveto
            -48 -13 35 54 12 hvcurveto
            157 737 rlineto
            -1 10 11 0 11 hhcurveto
            126 89 67 128 76 -33 70 -47 42 hvcurveto
            -77 hlineto
            5 -16 3 -24 -26 vvcurveto
            -151 -87 -104 -265 -36 vhcurveto
            -134 -19 -17 -77 86 -14 rlineto
            49 -11 10 -17 -9 -47 -83 -384 rcurveline
            -168 -35 -103 -117 -127 hhcurveto
            -94 -52 67 132 28 hvcurveto
            return
          </CharString>
          <CharString index="291">
            rmoveto
            -406 -53 -18 -84 91 -15 rlineto
            48 -7 11 -20 -9 -46 -81 -378 rcurveline
            -267 -56 115 -177 312 hhcurveto
            273 203 149 217 213 -175 95 -215 -69 -67 -10 -12 -40 hvcurveto
            -56 -264 rmoveto
            34 161 rlineto
            10 34 51 9 48 hhcurveto
            140 74 -74 -134 -155 -98 -95 -129 -133 -60 93 185 39 hvcurveto
            endchar
          </CharString>
          <CharString index="292">
            -156 -15 -18 -88 rcurveline
            559 hlineto
            447 296 164 291 hvcurveto
            -213 647 rmoveto
            -177 -130 -121 -219 1 vhcurveto
            -147 hlineto
            115 538 107 -4 rlineto
            181 -6 93 -75 -156 vvcurveto
            -65 -662 rmoveto
            -212 -151 -114 -321 -9 vhcurveto
            -108 -4 128 602 147 -1 rlineto
            200 105 -99 -163 hvcurveto
            return
          </CharString>
          <CharString index="293">
            328 214 289 318 154 -55 135 -115 77 vhcurveto
            -12 45 52 -8 51 hhcurveto
            179 120 77 146 78 -33 71 -46 42 hvcurveto
            -77 hlineto
            5 -16 3 -24 -25 vvcurveto
            -151 -118 -116 -155 vhcurveto
            -80 -63 22 -108 hhcurveto
            -330 -226 -265 -346 hvcurveto
            243 -65 rmoveto
            158 callsubr
            -104 -69 90 177 vhcurveto
            return
          </CharString>
          <CharString index="294">
            1067 -826 rmoveto
            101 413 rlineto
            -78 hlineto
            -108 -267 -88 -24 -263 -9 rrcurveto
            -299 -12 1008 1261 17 82 -993 0 -89 -371 rlineto
            78 hlineto
            86 211 57 39 241 9 rrcurveto
            300 11 -1007 -1261 -17 -82 rlineto
            -296 845 -63 callgsubr
            59 callgsubr
            endchar
          </CharString>
          <CharString index="295">
            319 -798 rmoveto
            78 -73 135 153 1 1 60 -40 rlineto
            -88 131 74 -23 90 hhcurveto
            117 122 70 194 97 hvcurveto
            -59 50 rlineto
            -90 -57 -62 -29 -53 hhcurveto
            -84 -55 25 62 -102 hvcurveto
            -65 40 566 626 19 85 -739 0 -81 -321 rlineto
            77 hlineto
            116 46 24 17 89 hhcurveto
            318 hlineto
            endchar
          </CharString>
          <CharString index="296">
            14 64 -82 10 -5 12 9 47 rlinecurve
            102 493 110 -626 93 0 131 259 1 0 236 370 -96 -502 -9 -45 -11 -11 -90 -8 rlinecurve
            -14 -64 369 0 14 64 -83 8 -8 10 9 46 rlinecurve
            104 538 9 45 12 11 89 9 rlinecurve
            14 63 -310 1 -306 -527 rlineto
            return
          </CharString>
          <CharString index="297">
            19 89 20 14 154 16 rlinecurve
            19 88 -588 0 -19 -88 140 -14 20 -17 -19 -88 rlinecurve
            -240 -1127 -548 0 240 1128 18 90 18 14 151 14 rlinecurve
            18 88 -580 0 -19 -88 139 -13 18 -16 -18 -89 rlinecurve
            -241 -1128 -549 0 240 150 callsubr
          </CharString>
          <CharString index="298">
            150 -1163 207 0 644 1157 89 160 28 24 131 15 rlinecurve
            18 88 -461 0 -19 -88 148 -20 14 -26 -80 -149 rlinecurve
            -499 -936 -104 937 -16 146 23 28 159 20 rlinecurve
            18 88 -594 0 -17 -88 115 -15 26 -24 20 -154 rlinecurve
            return
          </CharString>
          <CharString index="299">
            316 236 202 366 82 hvcurveto
            192 848 rlineto
            9 10 -1 10 hhcurveto
            162 105 78 139 77 -36 74 -45 45 hvcurveto
            -81 hlineto
            7 -16 3 -27 -26 vvcurveto
            -153 -109 -131 -211 vhcurveto
            -121 hlineto
            82 callsubr
            128 -20 15 -20 -20 -94 rlinecurve
            return
          </CharString>
          <CharString index="300">
            rmoveto
            331 204 291 317 254 -146 194 -267 -330 -205 -291 -317 -254 146 -194 267 hvcurveto
            4 114 rmoveto
            -108 -64 91 178 240 99 319 188 107 64 -90 -179 -240 -98 -319 -188 hvcurveto
            endchar
          </CharString>
          <CharString index="301">
            612 0 18 87 rlineto
            -167 17 -13 17 18 85 100 475 rcurveline
            219 -84 callgsubr
            73 hlineto
            106 503 rlineto
            -73 hlineto
            -175 -71 -26 -25 -65 hhcurveto
            -219 hlineto
            119 560 211 -8 218 -8 58 -39 3 -215 rlinecurve
            79 hlineto
            endchar
          </CharString>
          <CharString index="302">
            1358 1360 455 rmoveto
            163 -125 130 -210 29 vhcurveto
            215 28 169 113 4 195 rrcurveto
            203 3 -175 128 -366 hhcurveto
            -511 hlineto
            -19 -88 rlineto
            151 -15 12 -55 callgsubr
            185 callsubr
            return
          </CharString>
          <CharString index="303">
            1354 498 rmoveto
            208 -147 178 -385 81 callgsubr
            -596 0 -18 -88 rlineto
            145 -15 17 -16 -19 -88 -218 -1031 rcurveline
            -19 -87 -19 -15 -157 -16 -19 -88 rcurveline
            592 hlineto
            412 296 194 304 hvcurveto
            return
          </CharString>
          <CharString index="304">
            -361 -51 -17 -86 83 -13 rlineto
            52 -9 13 -17 3 -43 61 -805 rcurveline
            161 hlineto
            273 279 279 411 195 vvcurveto
            89 -59 59 -85 -82 -62 -59 -75 -71 59 -58 74 -1 vhcurveto
            -58 -197 -134 -196 -154 -181 rrcurveto
            return
          </CharString>
          <CharString index="305">
            131 74 -23 89 hhcurveto
            118 122 70 194 97 hvcurveto
            -59 50 rlineto
            -90 -58 -61 -29 -53 hhcurveto
            -84 -55 25 62 -102 hvcurveto
            -66 40 567 626 19 85 -740 0 -81 -321 rlineto
            78 hlineto
            116 46 24 17 89 hhcurveto
            318 hlineto
            return
          </CharString>
          <CharString index="306">
            -244 -36 -120 -568 rlineto
            -166 -35 -119 -132 -121 hhcurveto
            -88 -37 70 120 27 hvcurveto
            151 712 -245 -33 -120 -571 rlineto
            -167 -35 -120 -131 -120 hhcurveto
            -88 -36 70 120 25 hvcurveto
            return
          </CharString>
          <CharString index="307">
            1158 968 1467 rmoveto
            94 86 65 138 30 hvcurveto
            -96 hlineto
            -51 -10 -30 -20 -39 hhcurveto
            -25 -24 7 15 -36 hvcurveto
            -26 155 callsubr
            38 hhcurveto
            25 24 -7 -16 35 hvcurveto
            28 -11 rlineto
            -18 39 38 -11 47 hhcurveto
            return
          </CharString>
          <CharString index="308">
            1345 rmoveto
            -125 102 -81 147 171 110 97 133 125 -103 81 -147 -170 -110 -97 -133 vhcurveto
            160 -6 rmoveto
            83 56 59 63 56 35 -40 -66 -84 -57 -59 -62 -57 -34 41 66 vhcurveto
            return
          </CharString>
          <CharString index="309">
            -491 rmoveto
            78 74 28 35 32 hvcurveto
            19 87 rlineto
            -18 -29 -35 -11 -42 hhcurveto
            -60 -38 27 65 79 52 84 148 90 hvcurveto
            100 59 -93 0 -113 -59 rlineto
            -205 -112 -81 -92 -104 vvcurveto
            -97 82 -61 111 vhcurveto
            endchar
          </CharString>
          <CharString index="310">
            158 20 rlinecurve
            19 88 -569 0 -19 -88 148 -18 5 -26 -71 -147 rlinecurve
            -446 -928 -60 925 -9 148 15 26 159 20 rlinecurve
            18 88 -586 0 -17 -88 114 -15 31 -22 13 -156 rlinecurve
            return
          </CharString>
          <CharString index="311">
            hhcurveto
            66 35 -21 -34 -8 hvcurveto
            -7 -33 -41 -20 -85 -18 rrcurveto
            69 -49 122 28 84 39 16 77 rlinecurve
            76 16 -88 41 -106 hhcurveto
            -73 -460 63 callsubr
            return
          </CharString>
          <CharString index="312">
            rmoveto
            -1050 hlineto
            -18 -88 147 -15 15 66 callgsubr
            614 0 18 88 -168 18 -15 15 18 85 rlinecurve
            242 1137 220 -10 244 -11 34 -41 8 -208 rlinecurve
            75 hlineto
            endchar
          </CharString>
          <CharString index="313">
            -13 -24 -21 -29 hhcurveto
            -23 -18 11 23 -23 hvcurveto
            -26 23 rlineto
            31 -37 -38 18 -47 hhcurveto
            -82 -65 -59 -190 -20 hvcurveto
            85 hlineto
            95 14 22 21 30 hhcurveto
            22 19 -11 -22 23 hvcurveto
            26 -24 rlineto
            -31 37 return
          </CharString>
          <CharString index="314">
            -87 -371 rlineto
            78 hlineto
            99 238 59 20 216 8 rrcurveto
            96 4 -241 -1137 -18 -85 -19 -15 -175 -18 rlinecurve
            -18 -88 626 0 19 88 rlineto
            -165 18 -14 15 18 85 101 return
          </CharString>
          <CharString index="315">
            1207 1124 hmoveto
            101 413 rlineto
            -79 hlineto
            -107 -267 -89 -24 -262 -9 rrcurveto
            -299 -12 1007 1261 18 82 -993 0 -90 -371 rlineto
            79 hlineto
            35 callgsubr
            return
          </CharString>
          <CharString index="316">
            vvcurveto
            218 152 87 153 44 37 -6 -11 31 vhcurveto
            -29 -18 -19 -33 -44 vvcurveto
            -61 41 -55 75 67 53 52 67 124 -125 102 -223 -250 -248 -152 -306 -1 vhcurveto
            return
          </CharString>
          <CharString index="317">
            1899 rmoveto
            -79 -70 -31 -38 -35 hvcurveto
            -16 -67 rlineto
            18 29 42 13 47 hhcurveto
            70 31 -25 -40 -51 -60 -52 -86 -53 hvcurveto
            97 hlineto
            122 52 84 57 81 vvcurveto
            76 -67 60 -109 vhcurveto
            return
          </CharString>
          <CharString index="318">
            -103 -481 rcurveline
            -195 -41 64 -144 195 hhcurveto
            118 140 58 183 99 hvcurveto
            -143 -4 72 -98 165 hhcurveto
            120 145 64 191 97 hvcurveto
            -3 -9 -43 -4 vvcurveto
            return
          </CharString>
          <CharString index="319">
            1544 rmoveto
            -146 -61 callgsubr
            -535 -332 rmoveto
            66 53 53 67 61 -47 46 -63 -66 -53 24 callsubr
            -52 callgsubr
            -66 -53 24 callsubr
            return
          </CharString>
          <CharString index="320">
            1014 212 283 rmoveto
            63 -47 111 -37 142 -8 rrcurveto
            -41 -191 80 0 41 190 rlineto
            256 9 151 138 178 vvcurveto
            114 -50 89 -164 87 vhcurveto
            return
          </CharString>
          <CharString index="321">
            554 1475 rmoveto
            -65 -45 -38 -90 -15 hvcurveto
            -10 -63 -4 -88 -5 -126 rrcurveto
            -7 -204 76 0 67 178 rlineto
            67 175 37 85 64 vvcurveto
            63 -30 44 -66 vhcurveto
            return
          </CharString>
          <CharString index="322">
            -137 4 hvcurveto
            -216 2 -75 -265 -131 hhcurveto
            endchar
          </CharString>
          <CharString index="323">
            290 rmoveto
            -164 -7 hlineto
            118 -283 rlineto
            79 hlineto
            return
          </CharString>
          <CharString index="324">
            116 -4 224 -6 44 -25 -3 -235 rlinecurve
            77 hlineto
            return
          </CharString>
          <CharString index="325">
            102 0 -129 375 -168 0 -290 -375 rlineto
            return
          </CharString>
          <CharString index="326">
            86 hlineto
            99 18 66 57 108 hhcurveto
            93 63 -55 -70 -12 return
          </CharString>
          <CharString index="327">
            67 61 -46 46 -65 -65 -54 -52 -67 -61 47 -46 64 hvcurveto
            return
          </CharString>
          <CharString index="328">
            51 rlineto
            -3 4 -3 7 9 vvcurveto
            10 4 15 11 9 vhcurveto
            return
          </CharString>
          <CharString index="329">
            25 25 34 hhcurveto
            26 20 -13 -24 28 hvcurveto
            30 -28 rlineto
            -34 return
          </CharString>
          <CharString index="330">
            15 17 -32 hvcurveto
            -18 -79 rlineto
            -25 38 64 -22 71 hhcurveto
            endchar
          </CharString>
          <CharString index="331">
            10 25 7 33 31 vvcurveto
            126 -1 -106 89 -145 hhcurveto
            return
          </CharString>
          <CharString index="332">
            -12 hlineto
            -55 -53 -43 -55 -11 hvcurveto
            -55 -13 36 -41 55 hhcurveto
            return
          </CharString>
          <CharString index="333">
            -14 -169 -17 -19 -88 rcurveline
            608 hlineto
            412 296 return
          </CharString>
          <CharString index="334">
            -21 rrcurveto
            65 -58 121 33 82 45 20 91 rlinecurve
            90 19 return
          </CharString>
          <CharString index="335">
            -38 hhcurveto
            -17 -17 -1 -1 -17 hvcurveto
            35 165 -80 0 -37 return
          </CharString>
          <CharString index="336">
            -49 -19 -35 -42 hvcurveto
            -17 -76 rlineto
            6 16 31 5 28 hhcurveto
            return
          </CharString>
          <CharString index="337">
            -55 -117 -24 hvcurveto
            98 hlineto
            43 9 30 17 40 hhcurveto
            25 return
          </CharString>
          <CharString index="338">
            -88 608 0 19 88 -167 20 -13 16 18 81 rlinecurve
            return
          </CharString>
          <CharString index="339">
            -101 -413 rlineto
            82 hlineto
            195 86 82 37 227 hhcurveto
            return
          </CharString>
          <CharString index="340">
            rmoveto
            -225 -288 96 0 351 278 rlineto
            10 vlineto
            return
          </CharString>
          <CharString index="341">
            hlineto
            141 61 94 66 95 vvcurveto
            90 -77 71 -121 vhcurveto
            return
          </CharString>
          <CharString index="342">
            rlineto
            -86 -18 -51 -46 -52 hhcurveto
            -45 -29 30 82 -2 hvcurveto
            endchar
          </CharString>
        <CharString name=".notdef">
          2048 16 -494 rmoveto
          167 hlineto
          519 2444 rlineto
          -167 hlineto
          -109 83 callgsubr
          -109 83 callgsubr
          -110 83 callgsubr
          -109 83 callgsubr
          endchar
        </CharString>
        <CharString name=".null">
          0 endchar
        </CharString>
        <CharString name="A">
          1398 1261 281 -98 callsubr
        </CharString>
        <CharString name="AE">
          1999 2131 1444 128 callsubr
        </CharString>
        <CharString name="AEacute">
          1999 1634 -87 callsubr
          -52 callsubr
          274 -410 128 callsubr
        </CharString>
        <CharString name="AEmacron">
          1999 1268 8 callsubr
          834 -327 128 callsubr
        </CharString>
        <CharString name="Aacute">
          1398 1135 -87 callsubr
          -51 callsubr
          -96 -1573 -98 callsubr
        </CharString>
        <CharString name="Abreve">
          1398 1056 20 callsubr
          -63 56 70 11 1 12 1 7 hvcurveto
          -85 hlineto
          -10 -25 -8 -33 -31 vvcurveto
          -126 2 105 -89 145 hhcurveto
          205 -1306 -98 callsubr
        </CharString>
        <CharString name="Abreveacute">
          1398 1369 1849 rmoveto
          29 133 -620 -133 -15 -78 rlineto
          241 -249 63 callsubr
          -98 hlineto
          -58 -14 -93 37 callsubr
          257 -1241 -98 callsubr
        </CharString>
        <CharString name="Abrevecyrillic">
          1398 1007 1587 rmoveto
          172 140 157 callsubr
          -22 hvcurveto
          32 16 24 35 41 vvcurveto
          66 -47 50 -61 -69 -49 -52 -74 -107 92 -91 144 vhcurveto
          254 -1306 -98 callsubr
        </CharString>
        <CharString name="Abrevedotbelow">
          1398 1056 20 callsubr
          -63 56 70 11 1 12 1 7 hvcurveto
          -85 hlineto
          -10 -25 -8 -33 -31 vvcurveto
          -126 2 105 -89 145 hhcurveto
          205 -1306 rmoveto
          -28 callsubr
          34 callsubr
          -369 -788 -66 callsubr
          -65 callsubr
        </CharString>
        <CharString name="Abrevegrave">
          1398 779 104 callsubr
          198 -460 63 callsubr
          -98 hlineto
          -58 -14 -93 37 callsubr
          257 -1241 -98 callsubr
        </CharString>
        <CharString name="Abrevehookabove">
          1398 1077 89 callgsubr
          56 13 49 204 callsubr
          -98 hlineto
          -58 -14 -93 37 callsubr
          257 -1241 -98 callsubr
        </CharString>
        <CharString name="Abrevetilde">
          1398 1187 1794 rmoveto
          96 87 55 117 25 hvcurveto
          -99 hlineto
          -43 -8 -30 -18 -40 hhcurveto
          -26 -25 6 13 -36 hvcurveto
          -28 10 rlineto
          15 -41 -40 10 -48 hhcurveto
          -95 -89 230 callsubr
          26 -6 -12 36 -34 callgsubr
          -183 -272 63 callsubr
          -98 hlineto
          -58 -14 -93 37 callsubr
          257 -1241 -98 callsubr
        </CharString>
        <CharString name="Acaron">
          1398 1250 49 callsubr
          -58 callgsubr
          -91 -1599 -98 callsubr
        </CharString>
        <CharString name="Acircumflex">
          1398 850 -76 callsubr
          56 callsubr
          510 -1285 -98 callsubr
        </CharString>
        <CharString name="Acircumflexacute">
          1398 1364 1829 rmoveto
          29 145 callsubr
          -36 callsubr
          541 -1285 -98 callsubr
        </CharString>
        <CharString name="Acircumflexdotbelow">
          1398 850 -76 callsubr
          56 callsubr
          510 -1285 rmoveto
          -28 callsubr
          34 callsubr
          -369 -788 -66 callsubr
          -65 callsubr
        </CharString>
        <CharString name="Acircumflexgrave">
          1398 774 105 callsubr
          -98 -473 -91 callgsubr
          -36 callsubr
          541 -1285 -98 callsubr
        </CharString>
        <CharString name="Acircumflexhookabove">
          1398 1336 1941 rmoveto
          -73 -69 -24 -24 -43 -33 callgsubr
          64 31 -85 callgsubr
          -80 -92 callgsubr
          16 77 rlinecurve
          76 15 -84 120 callsubr
          -36 callsubr
          541 -1285 -98 callsubr
        </CharString>
        <CharString name="Acircumflextilde">
          1398 1183 1773 55 callsubr
          -64 callgsubr
          -41 -40 160 callsubr
          26 -7 -13 36 -34 callgsubr
          -96 callgsubr
          -36 callsubr
          541 -1285 -98 callsubr
        </CharString>
        <CharString name="Acyrillic">
          1398 1261 281 -98 callsubr
        </CharString>
        <CharString name="Adblgrave">
          1398 847 66 callsubr
          27 callgsubr
          80 hlineto
          83 -1285 -98 callsubr
        </CharString>
        <CharString name="Adieresis">
          1398 873 67 callsubr
          hvcurveto
          58 1 -44 45 -60 hhcurveto
          -62 -99 callgsubr
          337 hmoveto
          60 52 50 64 hvcurveto
          58 1 -44 45 -60 hhcurveto
          -62 -99 callgsubr
          51 -1322 -98 callsubr
        </CharString>
        <CharString name="Adieresismacron">
          1398 774 1826 rmoveto
          591 hlineto
          21 101 rlineto
          -590 hlineto
          42 -378 rmoveto
          52 49 35 47 10 hvcurveto
          46 11 -35 36 -52 hhcurveto
          -11 hlineto
          -54 -48 -36 -46 -10 hvcurveto
          -47 -10 33 -35 53 hhcurveto
          341 hmoveto
          54 48 35 47 10 hvcurveto
          46 10 -33 36 -53 hhcurveto
          -12 hlineto
          -52 -49 -36 -46 -11 hvcurveto
          -47 -10 34 -35 53 hhcurveto
          105 -1268 -98 callsubr
        </CharString>
        <CharString name="Adotaccent">
          1398 1041 -56 callsubr
          -67 callsubr
          220 -1316 -98 callsubr
        </CharString>
        <CharString name="Adotbelow">
          1398 1261 281 rmoveto
          -28 callsubr
          34 callsubr
          -369 -788 -66 callsubr
          -65 callsubr
        </CharString>
        <CharString name="Adotmacron">
          1398 769 1801 rmoveto
          590 hlineto
          22 102 rlineto
          -591 hlineto
          241 -361 rmoveto
          57 43 38 52 49 -48 39 -57 -57 -44 -39 -49 1 hvcurveto
          -52 46 -38 59 vhcurveto
          230 -1261 -98 callsubr
        </CharString>
        <CharString name="Agrave">
          1398 970 1855 rmoveto
          -201 -9 hlineto
          233 -279 rlineto
          81 hlineto
          178 -1286 -98 callsubr
        </CharString>
        <CharString name="Ahookabove">
          1398 1072 1899 rmoveto
          -79 -70 -31 -38 -35 hvcurveto
          -15 -67 rlineto
          18 28 42 15 callsubr
          -87 -53 hvcurveto
          97 hlineto
          122 52 84 57 81 vvcurveto
          76 -67 60 -109 vhcurveto
          189 -1618 -98 callsubr
        </CharString>
        <CharString name="Ainvertedbreve">
          1398 1044 111 callsubr
          87 hlineto
          99 17 66 87 callgsubr
          9 25 8 33 31 vvcurveto
          126 -2 -105 89 -145 hhcurveto
          217 -1610 -98 callsubr
        </CharString>
        <CharString name="Alphagreek">
          1398 1261 281 -98 callsubr
        </CharString>
        <CharString name="Alphatonosgreek">
          1398 1261 281 rmoveto
          -28 callsubr
          16 -147 -23 -28 -159 -20 rlinecurve
          -18 -88 593 0 -48 callgsubr
          -781 1163 103 callgsubr
          -163 -849 rmoveto
          331 621 70 -621 rlineto
          endchar
        </CharString>
        <CharString name="Amacron">
          1398 768 106 callsubr
          463 -1490 -98 callsubr
        </CharString>
        <CharString name="Aogonek">
          1398 1055 -485 rmoveto
          80 60 29 35 34 hvcurveto
          18 86 rlineto
          -18 -21 -31 -12 -33 hhcurveto
          -61 -40 56 81 74 35 80 76 74 hvcurveto
          232 hlineto
          -48 callgsubr
          -28 callsubr
          rlineto
          16 -147 -23 -28 -159 -20 -18 -88 rcurveline
          268 hlineto
          -138 -85 -92 -110 -115 vvcurveto
          -103 85 -72 121 vhcurveto
          -496 1080 rmoveto
          331 621 70 -621 rlineto
          endchar
        </CharString>
        <CharString name="Aring">
          1398 816 1749 rmoveto
          -115 93 -72 132 154 98 89 119 114 -93 73 -131 -153 -100 79 callgsubr
          -50 -52 -56 -52 -31 37 58 vhcurveto
          300 -1463 -98 callsubr
        </CharString>
        <CharString name="Aringacute">
          1398 1365 1833 rmoveto
          29 133 -620 -134 -15 -77 rlineto
          283 -251 rmoveto
          122 86 callgsubr
          -88 -43 -67 -14 hvcurveto
          -68 -15 71 -44 119 hhcurveto
          89 69 rmoveto
          -65 hlineto
          -42 -18 17 26 5 hvcurveto
          25 5 27 17 42 hhcurveto
          64 hlineto
          43 18 -17 -25 -5 hvcurveto
          -26 -5 -27 -17 -42 hhcurveto
          213 -1292 -98 callsubr
        </CharString>
        <CharString name="Aringbelow">
          1398 1261 281 rmoveto
          -28 callsubr
          34 callsubr
          -640 -911 rmoveto
          -109 3 105 -71 146 hhcurveto
          171 108 88 111 -5 hvcurveto
          109 -3 -104 71 -147 hhcurveto
          -170 -109 -88 -111 5 hvcurveto
          160 -5 rmoveto
          68 -3 54 46 62 hhcurveto
          56 36 -33 -53 3 hvcurveto
          -68 3 -54 -46 -61 hhcurveto
          -57 -37 33 53 -2 hvcurveto
          endchar
        </CharString>
        <CharString name="Atilde">
          1398 1146 107 callsubr
          206 callsubr
          37 -18 48 hhcurveto
          115 -1322 -98 callsubr
        </CharString>
        <CharString name="B">
          1358 1360 455 83 callsubr
        </CharString>
        <CharString name="Bdotaccent">
          1358 984 1597 rmoveto
          65 54 52 -67 callsubr
          376 -1142 83 callsubr
        </CharString>
        <CharString name="Bdotbelow">
          195 callsubr
          -498 -633 -66 callsubr
          -65 callsubr
        </CharString>
        <CharString name="Becyrillic">
          1352 1370 471 rmoveto
          201 -147 170 -385 vhcurveto
          -166 hlineto
          106 499 240 -9 244 -10 34 -42 10 -207 rlinecurve
          77 hlineto
          67 371 -1089 0 -18 -88 rlineto
          162 -17 16 -14 -19 -88 -218 -1031 rcurveline
          -19 -87 -23 226 callsubr
          185 286 hvcurveto
          -272 -4 rmoveto
          -196 -153 -155 -315 -9 vhcurveto
          -115 -4 133 629 rlineto
          134 hlineto
          200 116 -88 -177 hvcurveto
          endchar
        </CharString>
        <CharString name="Betagreek">
          1358 1360 455 83 callsubr
        </CharString>
        <CharString name="Blinebelow">
          195 callsubr
          -784 -813 -75 callsubr
        </CharString>
        <CharString name="C">
          1427 528 613 -39 callsubr
          -24 callsubr
        </CharString>
        <CharString name="Cacute">
          1427 1264 -87 callsubr
          -52 callsubr
          -959 -1241 -39 callsubr
          -24 callsubr
        </CharString>
        <CharString name="Ccaron">
          1427 1379 4 callsubr
          -954 -1267 -39 callsubr
          -24 callsubr
        </CharString>
        <CharString name="Ccedilla">
          1427 528 613 -39 callsubr
          -3 -391 240 -249 337 -37 rrcurveto
          -103 -113 -70 callgsubr
          -69 callgsubr
          115 callsubr
          36 callgsubr
        </CharString>
        <CharString name="Ccedillaacute">
          1427 1264 -87 callsubr
          -52 callsubr
          -959 -1241 -39 callsubr
          -3 -391 240 -249 337 -37 rrcurveto
          -103 -113 -70 callgsubr
          -69 callgsubr
          115 callsubr
          36 callgsubr
        </CharString>
        <CharString name="Ccircumflex">
          1427 980 -76 callsubr
          -37 callsubr
          -352 -953 -39 callsubr
          -24 callsubr
        </CharString>
        <CharString name="Cdotaccent">
          1427 1170 -45 callsubr
          -35 callgsubr
          -642 -984 -39 callsubr
          -24 callsubr
        </CharString>
        <CharString name="Checyrillic">
          1575 1143 207 rmoveto
          -19 -91 -22 -12 -158 -16 rrcurveto
          -18 -88 596 0 18 88 -142 14 -20 15 19 90 rlinecurve
          219 1030 19 90 24 14 150 15 rlinecurve
          19 88 -588 0 -19 -88 rlineto
          143 -15 16 -14 -19 -90 -108 -511 rcurveline
          -29 -106 -95 -21 -109 hhcurveto
          -212 -89 115 249 53 hvcurveto
          43 198 20 88 20 17 146 13 rlinecurve
          18 88 -582 0 -19 -88 rlineto
          146 -14 16 -16 -19 -88 -42 -202 rcurveline
          -326 -70 167 -152 358 hhcurveto
          136 87 25 31 109 hvcurveto
          endchar
        </CharString>
        <CharString name="Chigreek">
          1355 332 287 25 callsubr
        </CharString>
        <CharString name="D">
          1528 -13 callsubr
          -49 callsubr
          endchar
        </CharString>
        <CharString name="Dbar">
          1528 204 689 rmoveto
          169 hlineto
          -103 -482 rlineto
          -19 -86 -19 -18 -157 -15 -18 -88 rcurveline
          539 hlineto
          579 410 345 481 374 -276 244 -457 hvcurveto
          -488 hlineto
          -19 -88 rlineto
          150 -15 13 -17 -18 -87 -95 -446 rcurveline
          -169 hlineto
          1076 54 -63 callgsubr
          124 588 263 0 23 102 -264 0 117 552 78 -5 rlineto
          309 -18 149 -204 -271 vvcurveto
          endchar
        </CharString>
        <CharString name="Dcaron">
          1528 1178 4 callsubr
          304 -1054 32 callsubr
          -49 callsubr
          endchar
        </CharString>
        <CharString name="Dcircumflexbelow">
          1528 -13 callsubr
          -49 callsubr
          -929 -1321 -58 callsubr
          96 0 -123 338 -157 0 -267 -338 rlineto
          endchar
        </CharString>
        <CharString name="Dcommaaccent">
          1528 -13 callsubr
          -49 callsubr
          -755 -1336 -46 callsubr
          -64 229 callsubr
          102 callsubr
        </CharString>
        <CharString name="Ddotaccent">
          1528 970 -56 callsubr
          -67 callsubr
          615 -771 32 callsubr
          -49 callsubr
          endchar
        </CharString>
        <CharString name="Ddotbelow">
          1528 -13 callsubr
          -49 callsubr
          -722 -1038 56 callgsubr
        </CharString>
        <CharString name="Decyrillic">
          1505 644 781 rmoveto
          59 218 50 197 32 134 rrcurveto
          502 hlineto
          -260 -1216 rlineto
          -657 hlineto
          106 129 70 181 98 357 rrcurveto
          850 -667 rmoveto
          -213 hlineto
          239 1123 19 89 24 15 151 15 rlinecurve
          19 88 -1242 0 -18 -88 rlineto
          161 -18 15 -23 -35 -155 -35 -143 -34 -125 -30 -107 -89 -323 -79 -219 -143 -129 rrcurveto
          -145 hlineto
          -94 -416 rlineto
          97 hlineto
          265 128 29 37 166 hhcurveto
          736 hlineto
          171 14 -37 -265 16 hvcurveto
          96 hlineto
          endchar
        </CharString>
        <CharString name="Deltagreek">
          1183 16 1 rmoveto
          1151 hlineto
          17 85 -195 1359 -194 0 -761 -1358 rlineto
          151 21 rmoveto
          586 1090 139 -1090 rlineto
          endchar
        </CharString>
        <CharString name="Djecyrillic">
          1696 1689 415 rmoveto
          277 -174 133 -310 -102 -75 -11 -18 -72 vhcurveto
          116 547 217 callsubr
          71 371 -1244 0 207 callsubr
          477 rcurveline
          16 70 69 9 78 hhcurveto
          182 105 -94 -202 -298 -141 -288 -309 -147 hvcurveto
          27 -73 rlineto
          439 147 237 312 350 vvcurveto
          endchar
        </CharString>
        <CharString name="Dlinebelow">
          1528 -13 callsubr
          -49 callsubr
          -1007 -1218 rmoveto
          537 hlineto
          28 133 rlineto
          -538 hlineto
          endchar
        </CharString>
        <CharString name="Dzecyrillic">
          1148 604 -31 73 callsubr
          endchar
        </CharString>
        <CharString name="Dzhecyrillic">
          1591 154 callsubr
          534 hlineto
          95 18 -20 -282 -17 hvcurveto
          95 hlineto
          282 103 25 20 95 hhcurveto
          535 hlineto
          18 88 -147 15 -17 16 18 88 rlinecurve
          219 1030 19 89 21 14 156 16 rlinecurve
          19 88 -589 0 -18 -88 137 -14 19 -17 -18 -88 rlinecurve
          -241 -1127 -634 0 241 150 callsubr
        </CharString>
        <CharString name="E">
          1254 1428 1444 -90 callsubr
        </CharString>
        <CharString name="Eacute">
          1254 1062 -87 callsubr
          -51 callsubr
          144 -410 -90 callsubr
        </CharString>
        <CharString name="Ebreve">
          1254 983 20 callsubr
          42 callgsubr
          104 -89 146 hhcurveto
          445 -143 -90 callsubr
        </CharString>
        <CharString name="Ecaron">
          1254 1177 49 callsubr
          127 -290 68 callsubr
          149 -436 -90 callsubr
        </CharString>
        <CharString name="Ecedilla">
          1254 533 13 callsubr
          65 callsubr
          445 -27 callsubr
          68 371 -1064 0 -23 callsubr
          546 103 callsubr
          90 callsubr
        </CharString>
        <CharString name="Ecedillabreve">
          1254 983 20 callsubr
          42 callgsubr
          104 -89 146 hhcurveto
          -450 -2078 rmoveto
          115 callsubr
          100 110 445 -27 callsubr
          68 371 -1064 0 -23 callsubr
          546 103 callsubr
          90 callsubr
        </CharString>
        <CharString name="Ecircumflex">
          1254 777 -76 callsubr
          119 callsubr
          750 -122 -90 callsubr
        </CharString>
        <CharString name="Ecircumflexacute">
          1254 1290 1829 rmoveto
          29 145 callsubr
          -36 callsubr
          782 -122 -90 callsubr
        </CharString>
        <CharString name="Ecircumflexbelow">
          1254 1428 1444 rmoveto
          -1064 hlineto
          -23 callsubr
          1105 -27 callsubr
          -993 -1549 -58 callsubr
          96 10 callsubr
        </CharString>
        <CharString name="Ecircumflexdotbelow">
          1254 777 -76 callsubr
          119 callsubr
          750 -122 rmoveto
          -1064 hlineto
          -23 callsubr
          1105 -27 callsubr
          -785 -1266 -66 callsubr
          -65 callsubr
        </CharString>
        <CharString name="Ecircumflexgrave">
          1254 700 105 callsubr
          -98 -473 -91 callgsubr
          -36 callsubr
          782 -122 -90 callsubr
        </CharString>
        <CharString name="Ecircumflexhookabove">
          1254 1262 1941 rmoveto
          -73 -69 -24 -24 -43 -33 callgsubr
          64 31 -85 callgsubr
          -80 -92 callgsubr
          16 77 rlinecurve
          76 15 -84 120 callsubr
          -36 callsubr
          782 -122 -90 callsubr
        </CharString>
        <CharString name="Ecircumflextilde">
          1254 1109 1773 55 callsubr
          -64 callgsubr
          -41 -40 160 callsubr
          26 -7 -13 36 -34 callgsubr
          -96 callgsubr
          -36 callsubr
          782 -122 -90 callsubr
        </CharString>
        <CharString name="Ecyrillic">
          1429 528 613 rmoveto
          23 0 23 2 23 vhcurveto
          658 -5 25 121 -670 -5 rlineto
          338 59 224 222 261 hhcurveto
          218 115 -121 -223 9 hvcurveto
          4 callgsubr
          -24 callsubr
        </CharString>
        <CharString name="Edblgrave">
          1254 774 66 callsubr
          27 callgsubr
          79 hlineto
          324 -122 -90 callsubr
        </CharString>
        <CharString name="Edieresis">
          1254 800 67 callsubr
          -103 callgsubr
          337 hmoveto
          60 52 50 64 -103 callgsubr
          291 -159 -90 callsubr
        </CharString>
        <CharString name="Edotaccent">
          1254 968 -56 callsubr
          -67 callsubr
          460 -153 -90 callsubr
        </CharString>
        <CharString name="Edotbelow">
          1254 1428 1444 rmoveto
          -1064 hlineto
          -23 callsubr
          1105 -27 callsubr
          -785 -1266 -66 callsubr
          -65 callsubr
        </CharString>
        <CharString name="Efcyrillic">
          1872 218 690 rmoveto
          -273 234 -177 401 -30 vhcurveto
          -6 -29 -18 -86 -20 -14 -158 -16 rlinecurve
          -18 -87 591 0 19 87 rlineto
          -145 15 -20 15 18 86 6 25 rcurveline
          603 19 249 230 299 vvcurveto
          273 -234 178 -402 30 vhcurveto
          6 28 18 86 23 15 154 15 rlinecurve
          18 87 -590 0 -19 -87 rlineto
          149 -15 15 -15 -17 -86 -6 -26 rcurveline
          -602 -20 -249 -228 -299 vvcurveto
          280 -15 rmoveto
          260 129 171 419 21 vhcurveto
          -169 -806 rlineto
          -264 29 -115 127 198 vvcurveto
          1177 94 rmoveto
          -260 -130 -171 -420 -21 vhcurveto
          169 806 rlineto
          264 -28 117 -128 -198 vvcurveto
          endchar
        </CharString>
        <CharString name="Egrave">
          1254 896 1855 -54 callgsubr
          418 -123 -90 callsubr
        </CharString>
        <CharString name="Ehookabove">
          1254 999 210 callsubr
          429 -455 -90 callsubr
        </CharString>
        <CharString name="Einvertedbreve">
          1254 971 111 callsubr
          219 callsubr
          0 -11 -2 -8 hvcurveto
          86 hlineto
          10 25 8 33 31 vvcurveto
          126 -2 -105 89 -145 hhcurveto
          457 -447 -90 callsubr
        </CharString>
        <CharString name="Elcyrillic">
          1519 215 -31 rmoveto
          208 118 192 492 133 hvcurveto
          81 302 46 185 45 194 rrcurveto
          481 hlineto
          -241 -1127 -19 -90 -19 -13 -153 -16 rlinecurve
          -18 -88 588 0 19 88 -143 14 -20 15 19 90 rlinecurve
          219 -59 callgsubr
          -1221 -30 callgsubr
          -88 60 -64 99 hvcurveto
          endchar
        </CharString>
        <CharString name="Emacron">
          1254 695 106 callsubr
          703 -327 -90 callsubr
        </CharString>
        <CharString name="Emacronacute">
          1254 1295 1850 rmoveto
          29 133 -620 -134 -15 -77 rlineto
          -41 -192 rmoveto
          590 hlineto
          22 103 rlineto
          -591 hlineto
          759 -239 -90 callsubr
        </CharString>
        <CharString name="Emacrongrave">
          1254 705 104 callgsubr
          -84 -403 rmoveto
          590 hlineto
          22 103 rlineto
          -591 hlineto
          759 -239 -90 callsubr
        </CharString>
        <CharString name="Emcyrillic">
          1828 814 1444 27 callsubr
        </CharString>
        <CharString name="Encyrillic">
          2 callsubr
          -5 callsubr
          -8 callsubr
        </CharString>
        <CharString name="Eogonek">
          1254 913 -485 rmoveto
          79 61 29 35 34 hvcurveto
          17 86 rlineto
          -18 -21 -31 -12 -32 hhcurveto
          -61 -40 56 81 74 34 80 77 74 hvcurveto
          132 hlineto
          101 413 rlineto
          -78 hlineto
          -107 -269 -65 -24 -269 -10 rrcurveto
          -241 -9 123 587 rlineto
          243 -84 callgsubr
          -9 callgsubr
          57 -40 3 -213 rlinecurve
          78 hlineto
          68 371 -1064 0 -19 -88 rlineto
          151 -15 12 -18 -18 -86 -220 -1030 rcurveline
          -19 -86 -19 -18 -157 -15 -18 -88 rcurveline
          880 hlineto
          -139 -85 -92 -110 -115 vvcurveto
          -103 85 -72 122 vhcurveto
          endchar
        </CharString>
        <CharString name="Epsilongreek">
          1254 1428 1444 -90 callsubr
        </CharString>
        <CharString name="Epsilontonosgreek">
          1608 1783 1444 rmoveto
          -1065 hlineto
          -18 -88 150 -15 13 -18 -18 -86 rlinecurve
          -220 -1030 -19 -86 -19 -18 -157 -15 rlinecurve
          -19 -88 1106 0 101 413 rlineto
          -79 hlineto
          -107 -269 -65 -24 -269 -10 rrcurveto
          -241 -9 124 587 rlineto
          242 -84 callgsubr
          75 hlineto
          106 503 rlineto
          -73 hlineto
          -174 -71 -28 -26 -65 hhcurveto
          -242 hlineto
          117 553 238 -9 218 -8 57 -40 4 -213 rlinecurve
          77 hlineto
          -1314 371 45 callsubr
        </CharString>
        <CharString name="Ercyrillic">
          1316 673 hmoveto
          29 callsubr
        </CharString>
        <CharString name="Ereversedcyrillic">
          1467 437 1344 rmoveto
          -74 -316 rlineto
          78 hlineto
          226 96 138 99 179 hhcurveto
          265 130 -216 -318 hvcurveto
          -8 0 -9 -8 vvcurveto
          -642 5 -27 -124 660 4 rlineto
          -338 -44 -206 -254 -301 hhcurveto
          -217 -139 103 216 -10 hvcurveto
          -78 hlineto
          -42 -316 rlineto
          -50 59 221 -71 215 hhcurveto
          493 336 363 451 425 -262 267 -401 -159 -171 -56 -75 -97 hvcurveto
          endchar
        </CharString>
        <CharString name="Escyrillic">
          1427 528 613 -39 callsubr
          -24 callsubr
        </CharString>
        <CharString name="Etagreek">
          2 callsubr
          -5 callsubr
          -8 callsubr
        </CharString>
        <CharString name="Etatonosgreek">
          1958 879 207 rmoveto
          101 476 643 0 -102 -476 -18 -87 -22 -18 -148 -14 rlinecurve
          -19 -88 589 0 19 88 -148 15 -17 20 19 87 rlinecurve
          218 1024 19 87 24 20 155 15 rlinecurve
          18 88 -589 0 -18 102 callgsubr
          94 445 18 86 26 19 145 14 rlinecurve
          18 88 -589 0 -18 -88 150 -15 14 -21 -18 -86 rlinecurve
          -219 -1024 -19 -86 -21 -21 -158 -15 rlinecurve
          -18 -88 589 60 callsubr
          -479 1237 45 callsubr
        </CharString>
        <CharString name="Etilde">
          1254 1073 107 callsubr
          -13 -24 -21 88 callsubr
          77 callgsubr
          355 -159 -90 callsubr
        </CharString>
        <CharString name="Etildebelow">
          1254 1428 1444 rmoveto
          -1064 hlineto
          -23 callsubr
          1105 -27 callsubr
          -677 -1513 rmoveto
          92 69 66 209 23 hvcurveto
          -90 hlineto
          -106 -15 -25 -25 -35 hhcurveto
          -25 -21 13 25 -27 hvcurveto
          -32 27 rlineto
          35 -40 -42 21 -54 -7 callgsubr
          44 -22 52 hhcurveto
          endchar
        </CharString>
        <CharString name="F">
          1149 1403 1444 rmoveto
          -1039 82 callgsubr
          -18 -18 -158 -15 rlinecurve
          -18 -88 194 callsubr
        </CharString>
        <CharString name="Fdotaccent">
          1149 970 -56 callsubr
          -67 callsubr
          433 -153 rmoveto
          -1039 82 callgsubr
          -18 -18 -158 -15 rlinecurve
          -18 -88 194 callsubr
        </CharString>
        <CharString name="G">
          1570 253 651 -29 callsubr
        </CharString>
        <CharString name="Gacute">
          1570 1246 -87 callsubr
          -51 callsubr
          -1215 -1203 -29 callsubr
        </CharString>
        <CharString name="Gammagreek">
          1209 1454 1444 rmoveto
          -1082 hlineto
          -18 -88 163 -17 15 -14 -19 -87 rlinecurve
          -218 -1032 -19 -87 -22 -14 -169 -17 rlinecurve
          -19 -88 641 0 18 88 -180 19 -15 14 18 85 rlinecurve
          242 1137 237 -10 244 -11 32 -41 8 -208 rlinecurve
          76 hlineto
          endchar
        </CharString>
        <CharString name="Gbreve">
          1570 1167 20 callsubr
          42 callgsubr
          105 -89 145 hhcurveto
          -914 -936 -29 callsubr
        </CharString>
        <CharString name="Gcaron">
          1570 1361 49 callsubr
          -58 callgsubr
          -1210 -1229 -29 callsubr
        </CharString>
        <CharString name="Gcircumflex">
          1570 961 -76 callsubr
          56 callsubr
          -609 -915 -29 callsubr
        </CharString>
        <CharString name="Gcommaaccent">
          1570 253 651 rmoveto
          -2 -424 286 -257 387 -1 rrcurveto
          186 194 62 67 87 hvcurveto
          84 390 19 88 15 17 139 13 rlinecurve
          18 87 -563 0 -18 -87 rlineto
          165 -16 11 -13 -18 -87 -72 -343 rcurveline
          -35 -50 -89 -19 -79 hhcurveto
          -253 -167 211 309 438 255 302 304 219 114 -121 -223 9 hvcurveto
          78 -5 56 312 rlineto
          79 -90 84 callgsubr
          543 -1142 -46 callsubr
          -64 229 callsubr
          102 callsubr
        </CharString>
        <CharString name="Gdotaccent">
          1570 1152 -56 callsubr
          -67 callsubr
          -899 -946 -29 callsubr
        </CharString>
        <CharString name="Geacutecyrillic">
          1166 1035 -87 callsubr
          -52 callsubr
          153 -410 205 callsubr
        </CharString>
        <CharString name="Gecyrillic">
          1166 1411 1444 205 callsubr
        </CharString>
        <CharString name="Germandbls">
          1522 508 hmoveto
          283 1343 180 -6 rlineto
          252 -10 99 -82 -161 vvcurveto
          -133 -95 -98 -180 -27 vhcurveto
          -33 -151 rlineto
          180 -75 79 -118 -156 vvcurveto
          -151 -87 -86 -133 -134 -93 103 207 6 vhcurveto
          -80 hlineto
          -60 -313 rlineto
          -67 72 131 -50 158 hhcurveto
          239 218 141 273 178 -78 154 -180 96 hvcurveto
          163 18 139 108 178 vvcurveto
          208 -160 121 -308 vhcurveto
          -701 hlineto
          -19 -88 rlineto
          152 -15 17 -17 -19 -86 -217 -1032 rcurveline
          -19 -88 -21 -14 -161 -16 -17 -88 rcurveline
          endchar
        </CharString>
        <CharString name="Geupturncyrillic">
          1146 1370 1335 rmoveto
          86 412 rlineto
          -96 hlineto
          -264 -121 -25 -39 -165 hhcurveto
          -688 hlineto
          -18 -88 146 -15 16 66 callgsubr
          613 0 18 88 rlineto
          -160 18 -22 15 18 85 240 1129 rcurveline
          endchar
        </CharString>
        <CharString name="Gmacron">
          1570 879 106 callsubr
          -656 -1120 -29 callsubr
        </CharString>
        <CharString name="H">
          2 callsubr
          -5 callsubr
          -8 callsubr
        </CharString>
        <CharString name="Hacyrillic">
          1355 332 287 25 callsubr
        </CharString>
        <CharString name="Hardsigncyrillic">
          1530 1600 498 rmoveto
          208 -147 178 -386 81 callgsubr
          -844 0 -88 -371 rlineto
          79 hlineto
          100 238 54 21 203 7 rrcurveto
          46 1 -240 -1134 rlineto
          -19 -87 -18 -15 -157 -16 -18 -88 rcurveline
          591 hlineto
          412 297 194 304 hvcurveto
          -272 -5 rmoveto
          -210 -154 -167 -315 -9 vhcurveto
          -115 64 callgsubr
        </CharString>
        <CharString name="Hbar">
          2 callsubr
          -18 -18 -149 -14 rlinecurve
          -18 -88 583 0 18 88 -148 15 -15 17 19 87 rlinecurve
          175 824 171 0 21 102 -170 0 22 104 19 87 22 17 154 15 rlinecurve
          19 88 -583 0 -19 -88 142 -14 10 -18 -18 -87 rlinecurve
          -22 -104 -642 0 22 104 18 86 21 19 145 14 rlinecurve
          19 88 -583 0 -19 -88 151 -15 11 -18 -18 -86 rlinecurve
          -22 -104 -169 0 -21 -102 169 0 -176 -824 -18 -86 -19 -18 -158 -15 rlinecurve
          -18 -88 583 0 18 88 -138 14 -13 19 18 86 rlinecurve
          124 585 rmoveto
          51 239 642 0 -51 -239 rlineto
          endchar
        </CharString>
        <CharString name="Hbrevebelow">
          2 callsubr
          -5 callsubr
          590 60 callsubr
          217 -673 rmoveto
          175 109 121 198 7 hvcurveto
          -85 hlineto
          -103 -18 -68 -60 -112 hhcurveto
          -97 -65 59 73 -1 hvcurveto
          11 2 12 1 8 vhcurveto
          -86 hlineto
          -10 -26 -8 -35 -32 vvcurveto
          -132 1 107 -94 148 hhcurveto
          endchar
        </CharString>
        <CharString name="Hcaron">
          1604 1372 1879 rmoveto
          -203 -147 -135 147 -96 0 128 -289 158 0 250 289 rlineto
          -949 -1672 rmoveto
          42 callsubr
          -8 callsubr
        </CharString>
        <CharString name="Hcedilla">
          1604 233 13 callsubr
          65 callsubr
          227 60 callsubr
          42 callsubr
          249 103 callsubr
          -42 -32 -70 -58 -69 callgsubr
          endchar
        </CharString>
        <CharString name="Hcircumflex">
          1604 972 -76 callsubr
          56 callsubr
          -348 -1359 rmoveto
          42 callsubr
          -8 callsubr
        </CharString>
        <CharString name="Hdieresis">
          1604 995 67 callsubr
          58 -43 45 -60 -62 -99 callgsubr
          337 hmoveto
          60 52 50 64 58 -43 45 -60 -62 -99 callgsubr
          -807 -1396 rmoveto
          42 callsubr
          -8 callsubr
        </CharString>
        <CharString name="Hdotaccent">
          1604 1163 -56 callsubr
          220 callsubr
          -638 -1390 rmoveto
          42 callsubr
          -8 callsubr
        </CharString>
        <CharString name="Hdotbelow">
          2 callsubr
          -5 callsubr
          590 60 callsubr
          216 -400 -67 callgsubr
        </CharString>
        <CharString name="I">
          7 callsubr
          -93 callsubr
          -85 callsubr
        </CharString>
        <CharString name="IAcyrillic">
          1429 386 978 rmoveto
          -164 94 -107 163 -45 vhcurveto
          -192 -215 -148 -166 -162 -173 -89 -26 rlinecurve
          -19 -82 305 0 542 613 rlineto
          -1 19 21 -1 21 hhcurveto
          141 hlineto
          -87 -404 -18 -90 -24 -14 -148 -15 rlinecurve
          -19 -88 588 0 19 88 rlineto
          -145 15 -17 14 19 90 218 1031 rcurveline
          19 89 18 13 157 16 19 88 rcurveline
          -589 hlineto
          -469 -237 -184 -282 hvcurveto
          270 -4 rmoveto
          225 146 129 317 10 vhcurveto
          117 3 -131 -619 rlineto
          -137 hlineto
          -197 -115 87 165 hvcurveto
          endchar
        </CharString>
        <CharString name="IJ">
          1415 1243 260 rmoveto
          208 -74 callgsubr
          -80 callgsubr
          -109 -119 -236 -143 rlinecurve
          24 -74 369 156 192 122 81 376 rlinecurve
          -718 -53 -82 callsubr
          -81 callsubr
          -93 callsubr
          -85 callsubr
        </CharString>
        <CharString name="IJacute">
          1415 803 -87 callsubr
          -51 callsubr
          481 1 rmoveto
          -225 -289 95 0 352 279 rlineto
          9 vlineto
          -485 -1594 rmoveto
          208 -74 callgsubr
          -80 callgsubr
          -109 -119 -236 -143 rlinecurve
          24 -74 369 156 192 122 81 376 rlinecurve
          -718 -53 -82 callsubr
          -81 callsubr
          -93 callsubr
          -85 callsubr
        </CharString>
        <CharString name="IUcyrillic">
          2214 54 hmoveto
          589 hlineto
          18 88 rlineto
          -139 14 -20 17 19 88 101 476 rcurveline
          254 hlineto
          -1 -20 -1 -20 -20 vvcurveto
          -361 220 -293 405 446 330 400 452 361 -220 295 -405 -2 vhcurveto
          -389 -3 -301 -302 -70 -378 rrcurveto
          -245 hlineto
          95 445 159 callsubr
          88 callgsubr
          1432 -1 rmoveto
          -228 -122 177 299 365 171 429 318 228 122 -177 -299 -365 -172 -429 -317 hvcurveto
          endchar
        </CharString>
        <CharString name="Iacute">
          707 803 -87 callsubr
          -51 callsubr
          -500 -1647 -82 callsubr
          -81 callsubr
          -93 callsubr
          -85 callsubr
        </CharString>
        <CharString name="Ibreve">
          707 725 -24 callgsubr
          -200 -1380 -82 callsubr
          -81 callsubr
          -93 callsubr
          -85 callsubr
        </CharString>
        <CharString name="Icaron">
          707 918 19 callsubr
          166 callsubr
          -496 -1673 -82 callsubr
          -81 callsubr
          -93 callsubr
          -85 callsubr
        </CharString>
        <CharString name="Icircumflex">
          707 519 -76 callsubr
          -37 callsubr
          106 -1359 -82 callsubr
          -81 callsubr
          -93 callsubr
          -85 callsubr
        </CharString>
        <CharString name="Icyrillic">
          7 callsubr
          -93 callsubr
          -85 callsubr
        </CharString>
        <CharString name="Idblgrave">
          707 515 1856 rmoveto
          -172 -7 hlineto
          -94 callgsubr
          216 callsubr
          -321 -1359 -82 callsubr
          -81 callsubr
          -93 callsubr
          -85 callsubr
        </CharString>
        <CharString name="Idieresis">
          707 541 -20 callsubr
          -353 -1396 -82 callsubr
          -81 callsubr
          -93 callsubr
          -85 callsubr
        </CharString>
        <CharString name="Idieresisacute">
          707 1037 105 callgsubr
          75 -222 62 callsubr
          -53 hhcurveto
          -11 18 callsubr
          33 -35 54 hhcurveto
          341 hmoveto
          53 53 callsubr
          -53 -48 -37 callgsubr
          -299 -1342 -82 callsubr
          -81 callsubr
          -93 callsubr
          -85 callsubr
        </CharString>
        <CharString name="Idotaccent">
          707 709 -45 callsubr
          -34 callsubr
          -184 -1390 -82 callsubr
          -81 callsubr
          -93 callsubr
          -85 callsubr
        </CharString>
        <CharString name="Idotbelow">
          7 callsubr
          -93 callsubr
          -102 callgsubr
          -236 -400 56 callgsubr
        </CharString>
        <CharString name="Iecyrillic">
          1254 1428 1444 -90 callsubr
        </CharString>
        <CharString name="Igrave">
          707 638 46 callsubr
          -226 -1360 -82 callsubr
          -81 callsubr
          -93 callsubr
          -85 callsubr
        </CharString>
        <CharString name="Ihookabove">
          707 740 48 callsubr
          29 41 15 callsubr
          40 callsubr
          -215 -1692 -82 callsubr
          -81 callsubr
          -93 callsubr
          -85 callsubr
        </CharString>
        <CharString name="Iicyrillic">
          1611 54 hmoveto
          182 callsubr
        </CharString>
        <CharString name="Iinvertedbreve">
          707 712 1891 rmoveto
          -172 -105 -41 callgsubr
          65 87 callgsubr
          224 callsubr
          -187 -1684 -82 callsubr
          -81 callsubr
          -93 callsubr
          -85 callsubr
        </CharString>
        <CharString name="Iishortcyrillic">
          1611 1144 1587 rmoveto
          172 141 157 callsubr
          -23 hvcurveto
          33 16 23 35 41 vvcurveto
          66 -46 50 -61 -70 -49 -52 -74 -107 93 -91 143 vhcurveto
          -1090 -1587 rmoveto
          182 callsubr
        </CharString>
        <CharString name="Imacron">
          707 437 8 callsubr
          59 -1564 -82 callsubr
          -81 callsubr
          -93 callsubr
          -85 callsubr
        </CharString>
        <CharString name="Iocyrillic">
          1254 800 67 callsubr
          -103 callgsubr
          337 hmoveto
          60 52 50 64 -103 callgsubr
          291 -159 -90 callsubr
        </CharString>
        <CharString name="Iogonek">
          7 callsubr
          rlineto
          151 -14 11 -19 -18 -86 -219 -1030 rcurveline
          -18 -86 -19 -18 -158 -15 -18 -88 rcurveline
          263 hlineto
          -139 -85 -92 -110 -115 vvcurveto
          -103 86 -72 121 78 61 29 35 34 vhcurveto
          18 86 rlineto
          -18 -22 -30 -12 -33 hhcurveto
          -61 -39 56 81 74 34 80 77 74 hvcurveto
          237 hlineto
          -85 callsubr
        </CharString>
        <CharString name="Iotadieresisgreek">
          707 541 -20 callsubr
          -353 -1396 -82 callsubr
          -81 callsubr
          -93 callsubr
          -85 callsubr
        </CharString>
        <CharString name="Iotagreek">
          7 callsubr
          -93 callsubr
          -85 callsubr
        </CharString>
        <CharString name="Iotatonosgreek">
          1065 882 207 -82 callsubr
          157 15 rlinecurve
          19 88 -593 0 -19 -88 -93 callsubr
          -102 callgsubr
          -482 1237 45 callsubr
        </CharString>
        <CharString name="Itilde">
          707 814 163 callsubr
          -49 callgsubr
          -289 -1396 -82 callsubr
          -81 callsubr
          -93 callsubr
          -85 callsubr
        </CharString>
        <CharString name="Itildebelow">
          7 callsubr
          -93 callsubr
          -102 callgsubr
          -127 -647 122 callsubr
          -24 -25 -35 hhcurveto
          -25 -22 59 callsubr
          -53 hhcurveto
          -90 -97 callgsubr
          222 callsubr
          41 43 -22 53 hhcurveto
          endchar
        </CharString>
        <CharString name="J">
          707 535 -51 callgsubr
          80 callsubr
        </CharString>
        <CharString name="Jacute">
          707 798 -87 callsubr
          -52 callsubr
          -486 -1594 rmoveto
          209 978 18 86 19 17 80 callsubr
        </CharString>
        <CharString name="Jcircumflex">
          707 514 -76 callsubr
          -37 callsubr
          121 -1306 rmoveto
          209 978 18 86 19 17 80 callsubr
        </CharString>
        <CharString name="Jecyrillic">
          707 535 -51 callgsubr
          80 callsubr
        </CharString>
        <CharString name="K">
          1377 525 207 -6 callsubr
        </CharString>
        <CharString name="Kaacutecyrillic">
          1377 1244 5 callsubr
          -942 -1647 -6 callsubr
        </CharString>
        <CharString name="Kacute">
          1377 1244 5 callsubr
          -942 -1647 -6 callsubr
        </CharString>
        <CharString name="Kacyrillic">
          1377 525 207 -6 callsubr
        </CharString>
        <CharString name="Kappagreek">
          1377 525 207 -6 callsubr
        </CharString>
        <CharString name="Kcaron">
          1377 1359 4 callsubr
          -937 -1673 -6 callsubr
        </CharString>
        <CharString name="Kcommaaccent">
          129 callsubr
          215 -698 -46 callsubr
          -64 229 callsubr
          59 39 -32 -44 -50 52 callgsubr
        </CharString>
        <CharString name="Kdotbelow">
          129 callsubr
          248 -400 -68 callsubr
        </CharString>
        <CharString name="Klinebelow">
          129 callsubr
          -38 -580 -75 callsubr
        </CharString>
        <CharString name="L">
          6 callsubr
          endchar
        </CharString>
        <CharString name="Lacute">
          1164 810 5 callsubr
          73 -1854 rmoveto
          -22 callsubr
          -3 callsubr
          endchar
        </CharString>
        <CharString name="Lambdagreek">
          1444 1291 246 rmoveto
          -165 1198 -200 0 -660 -1182 -77 -138 -27 -22 -138 -14 rlinecurve
          -19 -88 482 0 18 88 -169 20 -7 20 104 194 rlinecurve
          475 880 117 -955 14 -120 -18 -21 -164 -18 rlinecurve
          -19 -88 601 0 19 88 -135 14 -15 23 -17 121 rlinecurve
          endchar
        </CharString>
        <CharString name="Lcaron">
          1164 1170 101 callsubr
          23 -1113 rmoveto
          -22 callsubr
          -3 callsubr
          endchar
        </CharString>
        <CharString name="Lcircumflexbelow">
          6 callsubr
          273 -476 rmoveto
          213 180 133 -180 95 10 callsubr
        </CharString>
        <CharString name="Lcommaaccent">
          6 callsubr
          447 -491 -46 callsubr
          -65 -48 -19 -35 -42 hvcurveto
          -17 -76 rlineto
          6 -101 callgsubr
          53 callgsubr
        </CharString>
        <CharString name="Ldot">
          6 callsubr
          1061 716 rmoveto
          78 62 62 78 72 -77 callsubr
          -79 -72 54 -54 75 hvcurveto
          endchar
        </CharString>
        <CharString name="Ldotbelow">
          6 callsubr
          480 -193 -68 callsubr
        </CharString>
        <CharString name="Ldotbelowmacron">
          1164 444 1637 rmoveto
          522 hlineto
          28 134 rlineto
          -521 hlineto
          633 -1771 rmoveto
          -22 callsubr
          -3 callsubr
          480 -193 -68 callsubr
        </CharString>
        <CharString name="Ljecyrillic">
          2058 56 121 rmoveto
          -88 60 -64 99 208 118 192 492 133 vhcurveto
          81 302 46 185 45 194 rrcurveto
          433 hlineto
          -239 -1128 rlineto
          -19 -87 -21 226 callsubr
          194 304 208 -147 178 -385 hvcurveto
          -158 hlineto
          75 353 19 89 25 13 156 17 rlinecurve
          18 88 -1180 -30 callgsubr
          hvcurveto
          1800 372 rmoveto
          -210 -154 -167 -314 -9 vhcurveto
          -116 64 callgsubr
        </CharString>
        <CharString name="Llinebelow">
          6 callsubr
          194 -373 -75 callsubr
        </CharString>
        <CharString name="Lslash">
          1164 181 593 rmoveto
          182 52 -93 -438 -18 -86 -19 -17 -158 -16 rlinecurve
          -18 -88 1049 0 -22 callsubr
          131 621 380 108 26 109 -382 -108 86 407 18 85 20 17 169 17 rlinecurve
          18 87 -605 0 -19 -88 151 -15 11 -17 -18 -87 rlinecurve
          -102 -483 -180 -51 rlineto
          endchar
        </CharString>
        <CharString name="M">
          1828 814 1444 27 callsubr
        </CharString>
        <CharString name="Macute">
          1828 1371 -87 callsubr
          -52 callsubr
          -780 -410 27 callsubr
        </CharString>
        <CharString name="Mdotaccent">
          1828 1277 1597 rmoveto
          65 55 52 68 60 -47 47 -35 callgsubr
          -463 -153 27 callsubr
        </CharString>
        <CharString name="Mdotbelow">
          1828 814 1444 rmoveto
          -442 hlineto
          -19 -88 142 -14 10 -28 -24 -104 rlinecurve
          -227 -989 -21 -93 -24 -21 -146 -19 rlinecurve
          -18 -88 455 0 19 88 -141 19 -11 21 20 93 rlinecurve
          204 984 194 -1205 127 0 176 315 512 887 -195 -997 -17 -86 -19 -17 -158 -14 rlinecurve
          -18 -88 587 0 18 88 -145 14 -17 17 18 86 rlinecurve
          204 1033 16 87 21 17 157 14 rlinecurve
          18 88 -468 0 -617 -1108 rlineto
          -198 -529 -66 callsubr
          -65 callsubr
        </CharString>
        <CharString name="Mugreek">
          1828 814 1444 27 callsubr
        </CharString>
        <CharString name="N">
          1530 744 1444 77 callsubr
          endchar
        </CharString>
        <CharString name="Nacute">
          1530 1174 5 callsubr
          -653 -410 77 callsubr
          endchar
        </CharString>
        <CharString name="Ncaron">
          1530 1289 4 callsubr
          -648 -436 77 callsubr
          endchar
        </CharString>
        <CharString name="Ncircumflexbelow">
          113 callsubr
          -780 -745 rmoveto
          214 180 133 -180 95 10 callsubr
        </CharString>
        <CharString name="Ncommaaccent">
          113 callsubr
          -605 -760 100 callsubr
          -41 hvcurveto
          -17 -76 rlineto
          6 -101 callgsubr
          -47 -29 -68 -47 100 callgsubr
        </CharString>
        <CharString name="Ndotaccent">
          1530 1081 -56 callsubr
          -67 callsubr
          -337 -153 77 callsubr
          endchar
        </CharString>
        <CharString name="Ndotbelow">
          113 callsubr
          -572 -462 -68 callsubr
        </CharString>
        <CharString name="Ngrave">
          1530 1009 1855 rmoveto
          -201 -9 hlineto
          234 -279 rlineto
          81 hlineto
          -379 -123 77 callsubr
          endchar
        </CharString>
        <CharString name="Njecyrillic">
          2150 548 207 rmoveto
          109 512 585 0 -109 -513 rlineto
          -19 -87 -19 -15 -156 -16 -18 -88 rcurveline
          590 hlineto
          413 296 185 286 196 -147 166 -386 hvcurveto
          -168 hlineto
          86 404 19 89 25 13 155 17 rlinecurve
          19 88 -596 0 -19 -88 145 -15 17 -16 -18 -88 rlinecurve
          -86 -404 -585 0 86 404 159 callsubr
          -15 -19 -89 rlinecurve
          -219 -1030 -18 -89 -20 -14 -155 -16 rlinecurve
          -19 -88 588 0 19 88 -140 15 -20 15 19 89 rlinecurve
          1400 260 rmoveto
          -196 -154 -155 -314 -9 vhcurveto
          -116 -4 133 619 rlineto
          136 hlineto
          199 116 -84 -171 hvcurveto
          endchar
        </CharString>
        <CharString name="Nlinebelow">
          113 callsubr
          -858 -642 -75 callsubr
        </CharString>
        <CharString name="Ntilde">
          1530 1185 1603 rmoveto
          84 62 59 190 22 hvcurveto
          -85 hlineto
          -95 -14 -23 -21 88 callsubr
          29 hhcurveto
          23 18 -11 -22 24 hvcurveto
          25 -24 rlineto
          -31 38 37 -18 47 hhcurveto
          -441 -159 77 callsubr
          endchar
        </CharString>
        <CharString name="Nugreek">
          1530 744 1444 77 callsubr
          endchar
        </CharString>
        <CharString name="O">
          1594 893 -26 -102 callsubr
          -105 callsubr
          -101 callsubr
          -96 callsubr
        </CharString>
        <CharString name="OE">
          2050 258 659 rmoveto
          -371 248 -319 430 vhcurveto
          143 89 31 150 hhcurveto
          639 hlineto
          103 413 rlineto
          -75 hlineto
          -103 -253 -85 -38 -260 -10 rrcurveto
          -255 -11 125 582 rlineto
          268 hlineto
          68 18 -29 -169 -8 hvcurveto
          74 hlineto
          108 506 rlineto
          -76 hlineto
          -173 -68 -27 -25 -66 hhcurveto
          -268 hlineto
          117 550 241 -10 242 -10 33 -42 8 -208 rlinecurve
          75 hlineto
          68 371 rlineto
          -745 hlineto
          -128 -81 31 -160 hhcurveto
          -516 -326 -362 -454 hvcurveto
          274 -22 rmoveto
          368 200 352 397 67 55 -8 -15 42 vhcurveto
          -264 -1242 rlineto
          -4 -20 -20 -1 -22 hhcurveto
          -291 -144 245 305 hvcurveto
          endchar
        </CharString>
        <CharString name="Oacute">
          1594 1192 -87 callsubr
          -52 callsubr
          -522 -1880 -102 callsubr
          -105 callsubr
          -101 callsubr
          -96 callsubr
        </CharString>
        <CharString name="Obreve">
          1594 1114 -24 callgsubr
          -221 -1613 -102 callsubr
          -105 callsubr
          -101 callsubr
          -96 callsubr
        </CharString>
        <CharString name="Ocaron">
          1594 1307 4 callsubr
          -517 -1906 -102 callsubr
          -105 callsubr
          -101 callsubr
          -96 callsubr
        </CharString>
        <CharString name="Ocircumflex">
          1594 908 -76 callsubr
          -37 callsubr
          85 -1592 -102 callsubr
          -105 callsubr
          -101 callsubr
          -96 callsubr
        </CharString>
        <CharString name="Ocircumflexacute">
          1594 1422 1829 rmoveto
          28 145 callsubr
          -236 64 callsubr
          116 -1592 -102 callsubr
          -105 callsubr
          -101 callsubr
          -96 callsubr
        </CharString>
        <CharString name="Ocircumflexdotbelow">
          1594 908 -76 callsubr
          -37 callsubr
          85 -1592 -102 callsubr
          -105 callsubr
          -101 callsubr
          138 callsubr
          -74 -290 -68 callsubr
        </CharString>
        <CharString name="Ocircumflexgrave">
          1594 832 105 callsubr
          -99 -473 -91 callgsubr
          -236 64 callsubr
          116 -1592 -102 callsubr
          -105 callsubr
          -101 callsubr
          -96 callsubr
        </CharString>
        <CharString name="Ocircumflexhookabove">
          1594 1393 1941 rmoveto
          -72 -70 -24 -24 -43 hvcurveto
          -14 -65 rlineto
          14 30 53 12 47 hhcurveto
          64 32 -85 callgsubr
          -81 -92 callgsubr
          16 77 rlinecurve
          76 16 -85 120 callsubr
          -236 64 callsubr
          116 -1592 -102 callsubr
          -105 callsubr
          -101 callsubr
          -96 callsubr
        </CharString>
        <CharString name="Ocircumflextilde">
          1594 1240 1773 117 callsubr
          -19 -41 hhcurveto
          -25 -25 7 13 -37 hvcurveto
          -28 10 rlineto
          15 -41 -40 10 -48 hhcurveto
          -94 -89 -56 -117 -24 hvcurveto
          98 hlineto
          43 9 30 19 39 hhcurveto
          26 25 -7 -13 36 -34 callgsubr
          -96 callgsubr
          -236 64 callsubr
          116 -1592 -102 callsubr
          -105 callsubr
          -101 callsubr
          -96 callsubr
        </CharString>
        <CharString name="Ocyrillic">
          1594 893 -26 -102 callsubr
          -105 callsubr
          -101 callsubr
          -96 callsubr
        </CharString>
        <CharString name="Odblgrave">
          1594 905 66 callsubr
          -94 callgsubr
          216 callsubr
          -342 -1592 -102 callsubr
          -105 callsubr
          -101 callsubr
          -96 callsubr
        </CharString>
        <CharString name="Odieresis">
          1594 930 -20 callsubr
          -374 -1629 -102 callsubr
          -105 callsubr
          -101 callsubr
          -96 callsubr
        </CharString>
        <CharString name="Odieresismacron">
          57 callgsubr
          42 -378 62 callsubr
          -53 hhcurveto
          -11 18 callsubr
          33 -35 54 hhcurveto
          341 hmoveto
          53 53 callsubr
          -53 -48 -37 callgsubr
          -321 -1575 -102 callsubr
          -105 callsubr
          -101 callsubr
          -96 callsubr
        </CharString>
        <CharString name="Odotaccent">
          1594 1098 -45 callsubr
          -35 callgsubr
          -205 -1623 -102 callsubr
          -105 callsubr
          -101 callsubr
          -96 callsubr
        </CharString>
        <CharString name="Odotaccentmacron">
          1594 826 1801 rmoveto
          591 hlineto
          21 102 rlineto
          -590 hlineto
          240 -361 rmoveto
          57 44 38 52 -1 hvcurveto
          49 -48 39 -57 -57 -43 -39 -49 -52 47 -38 58 vhcurveto
          -195 -1568 -102 callsubr
          -105 callsubr
          -101 callsubr
          -96 callsubr
        </CharString>
        <CharString name="Odotbelow">
          1594 893 -26 -102 callsubr
          -105 callsubr
          -101 callsubr
          138 callsubr
          -74 -290 -68 callsubr
        </CharString>
        <CharString name="Ograve">
          1594 1027 46 callsubr
          -247 -1593 -102 callsubr
          -105 callsubr
          -101 callsubr
          -96 callsubr
        </CharString>
        <CharString name="Ohookabove">
          1594 1129 48 callsubr
          29 41 15 callsubr
          40 callsubr
          -236 -1925 -102 callsubr
          -105 callsubr
          -101 callsubr
          -96 callsubr
        </CharString>
        <CharString name="Ohorn">
          1609 245 641 28 callsubr
        </CharString>
        <CharString name="Ohornacute">
          1609 1192 -87 callsubr
          -52 callsubr
          -1170 -1213 28 callsubr
        </CharString>
        <CharString name="Ohorndotbelow">
          1609 245 641 rmoveto
          -363 233 -304 415 470 293 406 423 238 -101 212 -184 118 vhcurveto
          -6 34 38 -3 41 hhcurveto
          176 153 73 158 81 -40 76 -51 47 hvcurveto
          -81 hlineto
          6 -16 3 -27 -26 vvcurveto
          -148 -93 -136 -178 vhcurveto
          -124 -86 26 -161 hhcurveto
          -471 -292 -406 -423 hvcurveto
          275 -58 rmoveto
          -88 callgsubr
          -77 callgsubr
          -214 -144 163 323 vhcurveto
          290 -776 -68 callsubr
        </CharString>
        <CharString name="Ohorngrave">
          1609 1027 46 callsubr
          -895 -926 28 callsubr
        </CharString>
        <CharString name="Ohornhookabove">
          1609 1129 48 callsubr
          29 41 15 callsubr
          40 callsubr
          -884 -1258 28 callsubr
        </CharString>
        <CharString name="Ohorntilde">
          1609 1203 163 callsubr
          24 hvcurveto
          25 -24 rlineto
          -31 37 38 -18 47 hhcurveto
          -958 -962 28 callsubr
        </CharString>
        <CharString name="Ohungarumlaut">
          1594 1025 1856 rmoveto
          -129 -290 91 0 206 283 rlineto
          7 vlineto
          135 hmoveto
          -193 -290 95 0 286 283 rlineto
          7 vlineto
          -623 -1882 -102 callsubr
          -105 callsubr
          -101 callsubr
          -96 callsubr
        </CharString>
        <CharString name="Oinvertedbreve">
          1594 1101 1891 rmoveto
          -172 -105 -41 callgsubr
          65 57 108 hhcurveto
          94 63 -55 -70 -12 -1 -11 -1 -8 hvcurveto
          86 hlineto
          224 callsubr
          -208 -1917 -102 callsubr
          -105 callsubr
          -101 callsubr
          -96 callsubr
        </CharString>
        <CharString name="Omacron">
          1594 826 8 callsubr
          38 -1797 -102 callsubr
          -105 callsubr
          -101 callsubr
          -96 callsubr
        </CharString>
        <CharString name="Omacronacute">
          1594 1426 1850 rmoveto
          29 133 -619 -134 -16 -77 rlineto
          -41 -192 rmoveto
          591 hlineto
          21 103 rlineto
          -590 hlineto
          92 -1709 -102 callsubr
          -105 callsubr
          -101 callsubr
          -96 callsubr
        </CharString>
        <CharString name="Omacrongrave">
          1594 837 1850 rmoveto
          574 -78 16 77 -563 134 rlineto
          -85 -403 rmoveto
          591 hlineto
          21 103 rlineto
          -590 hlineto
          92 -1709 -102 callsubr
          -105 callsubr
          -101 callsubr
          -96 callsubr
        </CharString>
        <CharString name="Omegagreek">
          1673 151 hmoveto
          587 hlineto
          63 -17 callgsubr
          -163 -255 -292 55 callgsubr
          -81 -27 -323 -3 15 -31 callgsubr
          -323 3 -42 26 -50 157 rlinecurve
          -70 hlineto
          endchar
        </CharString>
        <CharString name="Omegatonosgreek">
          1899 378 hmoveto
          588 hlineto
          62 -17 callgsubr
          -162 -255 -293 55 callgsubr
          -80 -27 -323 -3 14 -31 callgsubr
          -322 3 -43 26 -50 157 rlinecurve
          -70 hlineto
          -10 1113 45 callsubr
        </CharString>
        <CharString name="Omicrongreek">
          1594 893 -26 -102 callsubr
          -105 callsubr
          -101 callsubr
          -96 callsubr
        </CharString>
        <CharString name="Omicrontonosgreek">
          1784 1082 -26 -102 callsubr
          -233 304 -414 -471 -292 -406 -422 -101 callsubr
          414 hhcurveto
          -682 1470 rmoveto
          -176 -391 131 0 286 378 rlineto
          13 vlineto
          425 -1347 rmoveto
          -212 -145 163 322 391 197 374 308 212 145 -162 -323 -391 -202 -374 -303 hvcurveto
          endchar
        </CharString>
        <CharString name="Oogonek">
          1594 809 -485 178 callsubr
        </CharString>
        <CharString name="Oogonekmacron">
          1594 826 8 callsubr
          -46 -2256 178 callsubr
        </CharString>
        <CharString name="Oslash">
          1594 893 -26 167 callsubr
        </CharString>
        <CharString name="Oslashacute">
          1594 1192 -87 callsubr
          -52 callsubr
          -522 -1880 167 callsubr
        </CharString>
        <CharString name="Otilde">
          1594 1203 163 callsubr
          24 hvcurveto
          25 -24 rlineto
          -31 37 38 -18 47 hhcurveto
          -310 -1629 -102 callsubr
          -105 callsubr
          -101 callsubr
          -96 callsubr
        </CharString>
        <CharString name="Otildeacute">
          1594 1426 1849 rmoveto
          29 133 -619 -133 -16 -78 rlineto
          372 -223 55 callsubr
          97 callsubr
          -95 -89 -55 -118 -24 hvcurveto
          99 hlineto
          43 9 29 19 40 hhcurveto
          26 25 54 callsubr
          -299 -1574 -102 callsubr
          -105 callsubr
          -101 callsubr
          -96 callsubr
        </CharString>
        <CharString name="Otildedieresis">
          1594 946 1795 rmoveto
          54 48 35 46 10 hvcurveto
          47 11 -34 36 -53 hhcurveto
          -11 hlineto
          -53 -49 -36 -47 -10 hvcurveto
          -46 -10 69 callsubr
          48 35 46 11 hvcurveto
          47 10 -33 36 -54 hhcurveto
          -11 hlineto
          -53 -48 -36 -47 -11 hvcurveto
          -46 -10 33 -35 54 hhcurveto
          -74 -247 55 callsubr
          97 callsubr
          -95 -89 -55 -118 -24 hvcurveto
          99 hlineto
          43 9 29 19 40 hhcurveto
          26 25 54 callsubr
          -299 -1574 -102 callsubr
          -105 callsubr
          -101 callsubr
          -96 callsubr
        </CharString>
        <CharString name="Otildemacron">
          57 callgsubr
          339 -379 55 callsubr
          97 callsubr
          -95 -89 -55 -118 -24 hvcurveto
          99 hlineto
          43 9 29 19 40 hhcurveto
          26 25 54 callsubr
          -299 -1574 -102 callsubr
          -105 callsubr
          -101 callsubr
          -96 callsubr
        </CharString>
        <CharString name="P">
          1316 673 hmoveto
          29 callsubr
        </CharString>
        <CharString name="Pacute">
          1316 1070 1855 233 callsubr
          -619 -1855 rmoveto
          29 callsubr
        </CharString>
        <CharString name="Pdotaccent">
          1316 976 -45 callsubr
          -34 callsubr
          -303 -1597 rmoveto
          29 callsubr
        </CharString>
        <CharString name="Pecyrillic">
          1596 1411 207 rmoveto
          219 -59 callgsubr
          -1482 0 -18 -88 147 -16 17 -15 -19 -88 rlinecurve
          -219 -1030 -19 -89 -20 -13 -157 -17 rlinecurve
          -19 -88 589 0 18 88 -137 14 -19 17 19 88 rlinecurve
          240 1127 634 0 -240 -1127 -19 -90 -19 -13 -153 -16 rlinecurve
          -19 -88 589 0 18 88 -142 14 -21 15 19 90 rlinecurve
          endchar
        </CharString>
        <CharString name="Phigreek">
          1804 244 719 rmoveto
          -42 -313 217 -168 414 -20 rrcurveto
          -3 -18 -18 -87 -20 -17 -140 -15 rlinecurve
          -17 -83 536 0 18 83 rlineto
          -136 15 -11 17 18 87 4 16 rcurveline
          455 9 304 178 43 323 41 313 -227 167 -404 20 rrcurveto
          4 16 18 88 19 16 140 15 rlinecurve
          17 83 -537 0 -17 -83 137 -14 10 -17 -18 -88 rlinecurve
          -3 -14 -445 -9 -315 -174 -42 -326 rlinecurve
          279 8 rmoveto
          31 239 156 149 313 6 rrcurveto
          -167 -795 -265 21 -100 137 32 243 rlinecurve
          1064 -7 rmoveto
          -33 -242 -156 -150 -312 -5 rrcurveto
          168 795 266 -21 99 -136 -32 -241 rlinecurve
          endchar
        </CharString>
        <CharString name="Pigreek">
          1658 1452 207 rmoveto
          218 1029 19 89 26 15 165 16 rlinecurve
          19 88 -1527 0 -18 -88 161 -17 17 -13 -19 -89 rlinecurve
          -219 -1030 -18 -89 -24 -13 -167 -17 rlinecurve
          -19 -88 620 0 18 88 -154 16 -21 14 19 89 rlinecurve
          239 1126 649 0 -238 -1126 -19 -89 -21 -13 -166 -17 rlinecurve
          -19 -88 619 0 19 88 -158 15 -20 15 19 89 rlinecurve
          endchar
        </CharString>
        <CharString name="Psigreek">
          1756 568 hmoveto
          614 hlineto
          18 87 rlineto
          -165 16 -15 18 19 85 60 284 rcurveline
          327 16 192 131 131 353 73 197 rcurveline
          46 125 30 27 97 7 19 88 rcurveline
          4 -27 -52 5 -59 hhcurveto
          -146 -71 -37 -182 -65 hvcurveto
          -81 -219 -94 -258 -100 -123 -197 -23 rlinecurve
          135 637 19 86 17 18 134 14 rlinecurve
          18 88 -529 0 -18 -88 rlineto
          128 -14 10 -18 -19 -86 -135 -637 rcurveline
          -186 24 -46 122 17 258 14 203 rcurveline
          182 11 -57 53 -154 hhcurveto
          -51 -58 -5 -4 -28 hvcurveto
          -19 -88 96 -7 25 -27 -7 -125 rlinecurve
          -13 -197 -23 -354 136 -131 320 -15 rlinecurve
          -60 -284 -19 -85 -21 -18 -172 -16 rlinecurve
          endchar
        </CharString>
        <CharString name="Q">
          1597 1279 -382 rmoveto
          86 76 17 25 59 hvcurveto
          16 80 rlineto
          -128 5 -74 26 -139 126 -109 97 rcurveline
          368 86 222 355 367 vvcurveto
          364 -105 callsubr
          vhcurveto
          1 -320 179 -274 326 -61 173 -172 rcurveline
          -154 154 94 -43 107 hhcurveto
          -402 479 rmoveto
          -213 -144 163 322 391 197 374 307 212 145 -162 -323 -391 -202 -374 -302 hvcurveto
          endchar
        </CharString>
        <CharString name="R">
          1384 1081 hmoveto
          26 callsubr
          endchar
        </CharString>
        <CharString name="Racute">
          1384 1088 -87 callsubr
          -51 callsubr
          -229 -1854 rmoveto
          26 callsubr
          endchar
        </CharString>
        <CharString name="Rcaron">
          1384 1203 1880 rmoveto
          -203 -148 -135 148 -95 0 127 -290 158 0 250 290 rlineto
          -224 -1880 rmoveto
          26 callsubr
          endchar
        </CharString>
        <CharString name="Rcommaaccent">
          1384 1081 hmoveto
          26 callsubr
          -501 -1558 -46 callsubr
          -64 229 callsubr
          102 callsubr
        </CharString>
        <CharString name="Rdblgrave">
          1384 800 66 callsubr
          192 -283 rlineto
          85 hlineto
          194 290 rmoveto
          -164 -7 hlineto
          117 -283 rlineto
          80 hlineto
          -50 -1566 rmoveto
          26 callsubr
          endchar
        </CharString>
        <CharString name="Rdotaccent">
          1384 994 -45 callsubr
          -34 callsubr
          87 -1597 rmoveto
          26 callsubr
          endchar
        </CharString>
        <CharString name="Rdotbelow">
          1384 1081 hmoveto
          26 callsubr
          -467 -1260 -66 callsubr
          -65 callsubr
        </CharString>
        <CharString name="Rdotbelowmacron">
          1384 722 8 callsubr
          330 -1771 rmoveto
          26 callsubr
          -467 -1260 -66 callsubr
          -65 callsubr
        </CharString>
        <CharString name="Rhogreek">
          1316 673 hmoveto
          29 callsubr
        </CharString>
        <CharString name="Rinvertedbreve">
          1384 997 111 callsubr
          87 hlineto
          99 17 66 87 callgsubr
          10 25 7 33 31 vvcurveto
          126 -2 -105 89 -145 hhcurveto
          84 -1891 rmoveto
          26 callsubr
          endchar
        </CharString>
        <CharString name="Rlinebelow">
          1384 1081 hmoveto
          26 callsubr
          -753 -1440 rmoveto
          538 hlineto
          27 133 rlineto
          -537 hlineto
          endchar
        </CharString>
        <CharString name="S">
          1148 604 -31 73 callsubr
          endchar
        </CharString>
        <CharString name="Sacute">
          1148 1004 5 callsubr
          -623 -1885 73 callsubr
          endchar
        </CharString>
        <CharString name="Sacutedotaccent">
          1148 946 1759 rmoveto
          57 44 38 51 -1 hvcurveto
          51 -1 101 callgsubr
          241 -146 rmoveto
          29 132 -619 -134 -16 -77 rlineto
          23 -1565 73 callsubr
          endchar
        </CharString>
        <CharString name="Scaron">
          1148 1119 4 callsubr
          -618 -1911 73 callsubr
          endchar
        </CharString>
        <CharString name="Scarondotaccent">
          1148 950 1779 rmoveto
          57 44 38 52 hvcurveto
          50 -2 -46 39 -58 hhcurveto
          -57 -43 -39 -50 hvcurveto
          -52 1 47 -38 57 hhcurveto
          13 callgsubr
          -608 -1711 73 callsubr
          endchar
        </CharString>
        <CharString name="Scedilla">
          1148 477 13 callsubr
          -69 68 -115 16 hvcurveto
          72 80 rlineto
          281 11 229 170 266 vvcurveto
          165 -81 120 -191 119 vhcurveto
          -78 48 rlineto
          -151 94 -54 76 101 vvcurveto
          130 111 81 150 183 109 -105 -198 11 vhcurveto
          78 hlineto
          47 315 rlineto
          61 -76 -171 51 -176 hhcurveto
          -322 -191 -174 -238 -166 92 -119 190 -118 hvcurveto
          77 -48 rlineto
          149 -93 48 -77 -108 vvcurveto
          -152 -132 -89 -155 -195 -133 112 202 -11 vhcurveto
          -78 hlineto
          -52 -315 70 -54 157 -51 154 -14 rlinecurve
          -102 -112 -18 -81 rlineto
          24 hlineto
          83 45 -32 -53 -48 -41 -32 -70 -59 -49 16 24 -36 hvcurveto
          -20 -84 rlineto
          -37 49 66 -25 83 hhcurveto
          endchar
        </CharString>
        <CharString name="Schwa">
          1503 782 -31 rmoveto
          455 297 372 446 410 -225 277 -421 -172 -168 -45 -67 -100 hvcurveto
          -75 -320 rlineto
          80 hlineto
          231 97 143 78 184 hhcurveto
          264 114 -211 -321 -40 -1 -39 -3 -38 hvcurveto
          -1004 hlineto
          -21 -74 -12 -74 -67 vvcurveto
          -291 182 -227 386 vhcurveto
          -329 481 rmoveto
          48 5 48 9 45 vhcurveto
          770 hlineto
          -297 -50 -155 -207 -250 hhcurveto
          -220 -109 145 218 hvcurveto
          endchar
        </CharString>
        <CharString name="Scircumflex">
          1148 720 -76 callsubr
          119 callsubr
          -17 -1597 73 callsubr
          endchar
        </CharString>
        <CharString name="Scommaaccent">
          1148 604 -31 73 callsubr
          -119 -460 -46 callsubr
          -64 229 callsubr
          102 callsubr
        </CharString>
        <CharString name="Sdotaccent">
          1148 911 -56 callsubr
          -67 callsubr
          -307 -1628 73 callsubr
          endchar
        </CharString>
        <CharString name="Sdotbelow">
          1148 604 -31 73 callsubr
          -85 -162 -67 callgsubr
        </CharString>
        <CharString name="Sdotbelowdotaccent">
          1148 911 -56 callsubr
          -67 callsubr
          -307 -1628 73 callsubr
          -85 -162 -67 callgsubr
        </CharString>
        <CharString name="Shacyrillic">
          2307 486 1237 rmoveto
          -218 -1030 -19 -90 -24 -14 -152 -15 rlinecurve
          -19 -88 2199 0 18 88 -145 15 -17 16 19 88 rlinecurve
          219 1030 190 callsubr
        </CharString>
        <CharString name="Shchacyrillic">
          2331 154 callsubr
          1897 hlineto
          168 8 -36 -266 19 hvcurveto
          96 hlineto
          77 412 -212 0 240 1127 190 callsubr
        </CharString>
        <CharString name="Sigmagreek">
          108 callgsubr
          -82 339 -651 -587 -629 -17 -82 1109 0 112 455 rlineto
          -86 hlineto
          -244 -99 -75 -30 -276 hhcurveto
          -417 hlineto
          557 588 7 34 -278 541 395 -11 229 -6 47 -50 7 -204 rlinecurve
          80 hlineto
          endchar
        </CharString>
        <CharString name="Softsigncyrillic">
          1285 196 callsubr
          -272 -5 -18 callgsubr
        </CharString>
        <CharString name="T">
          -25 callsubr
          endchar
        </CharString>
        <CharString name="Taugreek">
          -25 callsubr
          endchar
        </CharString>
        <CharString name="Tbar">
          1333 433 689 rmoveto
          253 hlineto
          -103 -483 -18 -86 -21 -16 -175 -17 rlinecurve
          -18 -87 -95 callgsubr
          16 18 86 rlinecurve
          103 483 253 0 22 102 -253 0 117 551 55 -1 257 -9 59 -34 -10 -225 rlinecurve
          78 hlineto
          68 371 -1226 0 44 callsubr
          1 -117 -551 rlineto
          -253 hlineto
          endchar
        </CharString>
        <CharString name="Tcaron">
          1333 1232 19 callsubr
          166 callsubr
          251 -436 rmoveto
          -1226 hlineto
          44 callsubr
          98 callsubr
          -95 callgsubr
          93 callsubr
          endchar
        </CharString>
        <CharString name="Tcedilla">
          1333 565 13 callsubr
          65 callsubr
          233 0 19 87 -169 17 -13 93 callsubr
          68 371 -1226 0 44 callsubr
          98 callsubr
          284 103 callsubr
          -42 -32 -70 -58 -69 callgsubr
          endchar
        </CharString>
        <CharString name="Tcircumflexbelow">
          -25 callsubr
          -1119 -1549 -58 callsubr
          96 10 callsubr
        </CharString>
        <CharString name="Tcommaaccent">
          -25 callsubr
          -944 -1564 -44 callgsubr
          -99 -65 229 callsubr
          59 87 callsubr
        </CharString>
        <CharString name="Tdotaccent">
          1333 1023 -45 callsubr
          -34 callsubr
          563 -153 rmoveto
          -1226 hlineto
          44 callsubr
          98 callsubr
          -95 callgsubr
          93 callsubr
          endchar
        </CharString>
        <CharString name="Tdotbelow">
          -25 callsubr
          -911 -1266 -66 callsubr
          -65 callsubr
        </CharString>
        <CharString name="Tecyrillic">
          -25 callsubr
          endchar
        </CharString>
        <CharString name="Thetagreek">
          1653 895 -31 rmoveto
          447 341 393 446 9 hvcurveto
          10 377 -236 292 -407 -2 -447 -3 -342 -390 -9 -446 rrcurveto
          -377 -9 236 -290 407 hhcurveto
          13 114 rmoveto
          -252 -127 201 321 7 hvcurveto
          367 8 177 389 324 hhcurveto
          252 128 -201 -321 -8 hvcurveto
          -368 -7 -180 -388 -322 hhcurveto
          -300 376 rmoveto
          72 hlineto
          165 64 31 28 69 hhcurveto
          210 hlineto
          68 20 -28 -165 -7 hvcurveto
          72 hlineto
          106 500 rlineto
          -72 hlineto
          -169 -70 -28 -24 -64 hhcurveto
          -212 hlineto
          -65 -17 24 169 2 hvcurveto
          -72 hlineto
          endchar
        </CharString>
        <CharString name="Thorn">
          1345 286 206 rmoveto
          -19 -88 -20 -14 -155 -16 rrcurveto
          -18 -88 590 0 19 88 rlineto
          -142 14 -20 16 19 88 25 120 rcurveline
          165 hlineto
          372 312 160 282 234 -198 132 -312 hvcurveto
          -168 hlineto
          22 103 19 89 23 14 153 16 rlinecurve
          18 88 -591 0 -19 -88 145 -16 17 -14 -19 -89 rlinecurve
          639 -465 rmoveto
          -160 -95 -172 -335 -9 vhcurveto
          -126 -3 128 604 128 -3 rlineto
          180 -4 120 -97 -156 vvcurveto
          endchar
        </CharString>
        <CharString name="Tlinebelow">
          -25 callsubr
          -1197 -1446 -75 callsubr
        </CharString>
        <CharString name="Tsecyrillic">
          1612 154 callsubr
          1180 hlineto
          169 8 -36 -266 19 hvcurveto
          96 hlineto
          76 412 -214 0 240 1127 19 89 20 14 155 16 rlinecurve
          19 88 -588 0 -19 -88 139 -14 19 -17 -18 -88 rlinecurve
          -240 -1127 -634 0 240 150 callsubr
        </CharString>
        <CharString name="Tshecyrillic">
          1820 1601 1444 rmoveto
          -1244 hlineto
          207 callsubr
          476 rcurveline
          16 71 75 9 84 hhcurveto
          230 79 -121 -241 -51 hvcurveto
          -72 -345 422 0 19 88 rlineto
          -146 14 -15 15 18 89 28 137 rcurveline
          323 65 -151 158 -387 hhcurveto
          -98 -76 -12 -17 -71 hvcurveto
          116 548 217 callsubr
          endchar
        </CharString>
        <CharString name="U">
          1509 787 -31 -83 callsubr
        </CharString>
        <CharString name="Uacute">
          1509 1244 -87 callsubr
          95 0 352 279 rlineto
          9 vlineto
          -679 -1885 -83 callsubr
        </CharString>
        <CharString name="Ubreve">
          1509 1165 20 callsubr
          54 callgsubr
          2 104 -89 146 hhcurveto
          -378 -1618 -83 callsubr
        </CharString>
        <CharString name="Ubrevecyrillic">
          1444 1105 1587 rmoveto
          172 141 157 callsubr
          99 callgsubr
          -74 -107 92 -91 143 vhcurveto
          -871 -1477 176 callsubr
        </CharString>
        <CharString name="Ucaron">
          1509 1358 19 callsubr
          -107 callgsubr
          68 callsubr
          -674 -1911 -83 callsubr
        </CharString>
        <CharString name="Ucircumflex">
          1509 959 -76 callsubr
          119 callsubr
          -73 -1597 -83 callsubr
        </CharString>
        <CharString name="Ucircumflexbelow">
          79 callsubr
          -264 -445 -58 callsubr
          96 10 callsubr
        </CharString>
        <CharString name="Ucyrillic">
          1444 234 110 176 callsubr
        </CharString>
        <CharString name="Udblgrave">
          1509 956 66 callsubr
          -94 callgsubr
          290 rmoveto
          -163 -7 hlineto
          117 -283 rlineto
          79 hlineto
          -499 -1597 -83 callsubr
        </CharString>
        <CharString name="Udieresis">
          1509 981 1603 rmoveto
          61 52 50 64 58 -43 45 -61 -46 callgsubr
          337 hmoveto
          61 52 50 64 58 -43 45 -61 -46 callgsubr
          -531 -1634 -83 callsubr
        </CharString>
        <CharString name="Udieresisacute">
          1509 1478 105 callgsubr
          75 -222 62 callsubr
          -52 hhcurveto
          -12 18 callsubr
          69 callsubr
          53 callsubr
          -52 -49 -37 callgsubr
          -478 -1580 -83 callsubr
        </CharString>
        <CharString name="Udieresisbelow">
          79 callsubr
          -264 -389 rmoveto
          25 callgsubr
          401 hmoveto
          25 callgsubr
          endchar
        </CharString>
        <CharString name="Udieresiscaron">
          1509 1507 1983 rmoveto
          -314 -89 -275 34 callgsubr
          48 35 47 10 hvcurveto
          46 11 -34 36 -52 hhcurveto
          -12 18 callsubr
          69 callsubr
          53 callsubr
          -52 -49 -37 callgsubr
          -478 -1580 -83 callsubr
        </CharString>
        <CharString name="Udieresisgrave">
          1509 888 104 callsubr
          31 -433 62 callsubr
          -52 hhcurveto
          -12 18 callsubr
          69 callsubr
          53 callsubr
          -52 -49 -37 callgsubr
          -478 -1580 -83 callsubr
        </CharString>
        <CharString name="Udieresismacron">
          1509 883 1826 rmoveto
          590 hlineto
          22 101 rlineto
          -591 hlineto
          42 -378 62 callsubr
          -52 hhcurveto
          -12 18 callsubr
          69 callsubr
          53 callsubr
          -52 -49 -37 callgsubr
          -478 -1580 -83 callsubr
        </CharString>
        <CharString name="Udotbelow">
          79 callsubr
          -56 -162 -66 callsubr
          -65 callsubr
        </CharString>
        <CharString name="Ugrave">
          1509 1078 1855 -54 callgsubr
          -405 -1598 -83 callsubr
        </CharString>
        <CharString name="Uhookabove">
          1509 1181 210 callsubr
          -394 -1930 -83 callsubr
        </CharString>
        <CharString name="Uhorn">
          1593 319 589 rmoveto
          -12 callsubr
          192 callsubr
          endchar
        </CharString>
        <CharString name="Uhornacute">
          1593 1240 -87 callsubr
          -51 callsubr
          -1143 -1265 rmoveto
          -12 callsubr
          192 callsubr
          endchar
        </CharString>
        <CharString name="Uhorndotbelow">
          1593 319 589 rmoveto
          -12 callsubr
          192 callsubr
          270 -1415 -68 callsubr
        </CharString>
        <CharString name="Uhorngrave">
          1593 1075 46 callsubr
          -869 -978 rmoveto
          -12 callsubr
          192 callsubr
          endchar
        </CharString>
        <CharString name="Uhornhookabove">
          1593 1177 48 callsubr
          28 42 15 callsubr
          40 callsubr
          -858 -1310 rmoveto
          -12 callsubr
          192 callsubr
          endchar
        </CharString>
        <CharString name="Uhorntilde">
          1593 1251 1603 rmoveto
          83 63 -65 callgsubr
          -23 -18 144 callsubr
          -49 callgsubr
          -932 -1014 rmoveto
          -12 callsubr
          192 callsubr
          endchar
        </CharString>
        <CharString name="Uhungarumlaut">
          1509 1076 1856 rmoveto
          -129 -290 92 0 206 283 rlineto
          7 vlineto
          135 hmoveto
          -194 -290 95 0 287 283 rlineto
          7 vlineto
          -781 -1887 -83 callsubr
        </CharString>
        <CharString name="Uinvertedbreve">
          1509 1153 111 callsubr
          219 callsubr
          -1 -11 -1 65 callgsubr
          -366 -1922 -83 callsubr
        </CharString>
        <CharString name="Umacron">
          1509 877 106 callsubr
          -120 -1802 -83 callsubr
        </CharString>
        <CharString name="Umacrondieresis">
          1509 998 1795 rmoveto
          54 49 35 46 9 hvcurveto
          47 11 -34 36 -53 hhcurveto
          -11 hlineto
          -53 -48 -36 -47 -11 hvcurveto
          -46 -10 34 -35 52 hhcurveto
          341 hmoveto
          54 47 35 46 11 hvcurveto
          47 10 -33 36 -53 hhcurveto
          -12 hlineto
          -53 -48 -36 -47 -11 hvcurveto
          -46 -10 34 -35 53 hhcurveto
          109 callgsubr
          -86 -1714 -83 callsubr
        </CharString>
        <CharString name="Uogonek">
          1509 736 -485 rmoveto
          79 60 29 35 35 hvcurveto
          18 86 rlineto
          -18 -22 -31 -12 -32 hhcurveto
          -61 -40 55 77 67 30 71 65 66 hvcurveto
          292 21 216 199 76 346 rrcurveto
          152 685 21 94 22 20 136 20 rlinecurve
          19 88 -455 0 82 callsubr
          128 -20 15 -20 -20 -94 rlinecurve
          -135 -633 -80 -380 201 -216 296 -22 rlinecurve
          -126 -80 -80 -100 -101 vvcurveto
          -103 85 -72 121 vhcurveto
          endchar
        </CharString>
        <CharString name="Upsilondieresisgreek">
          1330 896 -20 callsubr
          -760 -434 -62 callsubr
        </CharString>
        <CharString name="Upsilongreek">
          1330 473 1169 -62 callsubr
        </CharString>
        <CharString name="Upsilontonosgreek">
          1724 867 1169 rmoveto
          198 -540 -89 -423 -18 -85 -21 -17 -176 -17 rlinecurve
          -18 -87 631 0 19 87 -168 17 -14 17 18 85 rlinecurve
          92 -78 callgsubr
          18 88 -449 0 -19 -88 149 147 callsubr
          -18 -88 110 -16 28 -27 53 -144 rlinecurve
          -467 275 45 callsubr
        </CharString>
        <CharString name="Uring">
          1509 925 1749 rmoveto
          -115 93 -72 131 155 98 89 119 114 -93 73 -131 -154 -99 -90 -118 vhcurveto
          145 -5 rmoveto
          75 49 50 57 51 32 -36 -57 -75 -51 -52 -55 -52 -31 37 58 vhcurveto
          -283 -1775 -83 callsubr
        </CharString>
        <CharString name="Utilde">
          1509 1255 107 callsubr
          -14 -23 -21 88 callsubr
          77 callgsubr
          -468 -1634 -83 callsubr
        </CharString>
        <CharString name="Utildeacute">
          1509 1478 105 callgsubr
          372 -223 rmoveto
          96 88 56 117 24 hvcurveto
          -99 hlineto
          -43 -8 -30 97 callsubr
          -94 -89 -55 -118 -25 hvcurveto
          99 hlineto
          43 9 30 19 39 hhcurveto
          27 24 54 callsubr
          -456 -1579 -83 callsubr
        </CharString>
        <CharString name="Utildebelow">
          79 callsubr
          52 -409 rmoveto
          91 69 66 209 24 hvcurveto
          -90 hlineto
          -106 -16 -24 -25 -35 hhcurveto
          -25 -22 59 callsubr
          -53 hhcurveto
          -90 -71 -65 -209 -22 hvcurveto
          90 hlineto
          105 15 25 25 34 hhcurveto
          26 20 -13 -24 28 hvcurveto
          31 -28 rlineto
          -34 40 43 -22 53 hhcurveto
          endchar
        </CharString>
        <CharString name="V">
          107 callgsubr
          endchar
        </CharString>
        <CharString name="Vdotbelow">
          107 callgsubr
          199 -1356 rmoveto
          -65 -54 -53 -67 -60 46 -48 65 65 -65 callsubr
        </CharString>
        <CharString name="Vecyrillic">
          1358 1360 455 83 callsubr
        </CharString>
        <CharString name="Vtilde">
          1398 1223 107 callsubr
          206 callsubr
          38 -18 47 hhcurveto
          -779 -440 rmoveto
          191 callsubr
          endchar
        </CharString>
        <CharString name="W">
          2121 441 1163 -4 callsubr
        </CharString>
        <CharString name="Wacute">
          2121 1587 -87 callsubr
          -52 callsubr
          -1369 -691 -4 callsubr
        </CharString>
        <CharString name="Wcircumflex">
          2121 1303 -76 callsubr
          -37 callsubr
          -762 -403 -4 callsubr
        </CharString>
        <CharString name="Wdieresis">
          2121 1325 1603 rmoveto
          61 52 50 64 58 -43 45 -61 -62 -50 -50 -65 -1 hvcurveto
          -58 44 -44 60 vhcurveto
          337 hmoveto
          61 52 50 64 58 -43 45 -61 -62 -50 -50 -65 -1 hvcurveto
          -58 44 -44 60 vhcurveto
          -1221 -440 -4 callsubr
        </CharString>
        <CharString name="Wdotaccent">
          2121 1494 -56 callsubr
          -67 callsubr
          -1053 -434 -4 callsubr
        </CharString>
        <CharString name="Wdotbelow">
          2121 441 1163 rmoveto
          102 -1163 205 0 545 1075 75 -1075 208 0 594 1158 83 161 34 22 129 15 rlinecurve
          18 88 -459 0 -18 -88 146 -18 7 -26 -72 -147 rlinecurve
          -448 -928 -58 925 -9 148 15 26 203 callsubr
          563 -1356 -68 callsubr
        </CharString>
        <CharString name="Wgrave">
          2121 1422 1855 rmoveto
          -201 -9 hlineto
          234 -279 rlineto
          81 hlineto
          -1095 -404 -4 callsubr
        </CharString>
        <CharString name="X">
          1355 332 287 25 callsubr
        </CharString>
        <CharString name="Xdieresis">
          1355 934 -20 callsubr
          -939 -1316 25 callsubr
        </CharString>
        <CharString name="Xdotaccent">
          1355 1102 -45 callsubr
          -34 callsubr
          -770 -1310 25 callsubr
        </CharString>
        <CharString name="Xigreek">
          1340 1594 1444 rmoveto
          -1193 hlineto
          232 callsubr
          365 hlineto
          227 66 -37 -195 4 hvcurveto
          82 hlineto
          -813 -356 rmoveto
          254 1 callgsubr
          -254 0 callgsubr
          582 -675 rmoveto
          94 callgsubr
          -285 hlineto
          -277 -60 28 246 5 hvcurveto
          -82 hlineto
          -79 -455 rlineto
          endchar
        </CharString>
        <CharString name="Xigreek.1">
          1386 94 hmoveto
          1196 hlineto
          94 callgsubr
          -95 hlineto
          105 494 rlineto
          80 1 callgsubr
          -79 hlineto
          102 480 rlineto
          135 hlineto
          227 66 -37 -195 4 hvcurveto
          82 hlineto
          73 413 -1193 0 232 callsubr
          135 hlineto
          -102 -480 rlineto
          -80 0 callgsubr
          79 hlineto
          -104 -494 rlineto
          -96 hlineto
          -277 -60 28 246 5 hvcurveto
          -82 hlineto
          endchar
        </CharString>
        <CharString name="Y">
          1331 473 1169 -62 callsubr
        </CharString>
        <CharString name="Yacute">
          1330 1158 -87 callsubr
          -51 callsubr
          -907 -685 -62 callsubr
        </CharString>
        <CharString name="Ycircumflex">
          1330 874 1566 rmoveto
          201 148 135 -148 92 0 -37 callsubr
          -301 -397 -62 callsubr
        </CharString>
        <CharString name="Ydieresis">
          1330 896 -20 callsubr
          -760 -434 -62 callsubr
        </CharString>
        <CharString name="Ydotaccent">
          1330 1064 -45 callsubr
          -34 callsubr
          -591 -428 -62 callsubr
        </CharString>
        <CharString name="Ydotbelow">
          1330 473 1169 rmoveto
          199 -540 -90 -423 -18 -85 -21 -17 -175 -17 rlinecurve
          -19 -87 632 0 18 87 -168 17 -13 17 18 85 rlinecurve
          91 -78 callgsubr
          19 88 -450 0 -18 -88 148 147 callsubr
          -17 -88 109 -16 28 -27 53 -144 rlinecurve
          130 -1362 -68 callsubr
        </CharString>
        <CharString name="Yericyrillic">
          1942 196 callsubr
          408 -291 rmoveto
          220 1030 18 86 19 18 157 15 rlinecurve
          19 88 -593 0 -19 -88 -93 callsubr
          18 88 -150 15 -12 18 18 86 rlinecurve
          -680 286 -18 callgsubr
        </CharString>
        <CharString name="Ygrave">
          1330 993 46 callsubr
          -633 -398 -62 callsubr
        </CharString>
        <CharString name="Yhookabove">
          1330 1095 48 callsubr
          28 42 15 callsubr
          40 callsubr
          -622 -730 -62 callsubr
        </CharString>
        <CharString name="Yicyrillic">
          707 541 -20 callsubr
          -353 -1396 -82 callsubr
          -81 callsubr
          -93 callsubr
          -85 callsubr
        </CharString>
        <CharString name="Ymacron">
          1330 792 8 callsubr
          -348 -602 -62 callsubr
        </CharString>
        <CharString name="Ytilde">
          1330 1169 1603 rmoveto
          83 63 -65 callgsubr
          -23 -18 144 callsubr
          -49 callgsubr
          -696 -434 -62 callsubr
        </CharString>
        <CharString name="Z">
          1207 1124 hmoveto
          -2 callsubr
        </CharString>
        <CharString name="Zacute">
          1207 1038 -87 callsubr
          -51 callsubr
          -136 -1854 rmoveto
          -2 callsubr
        </CharString>
        <CharString name="Zcaron">
          1207 1153 49 callsubr
          -58 callgsubr
          -131 -1880 rmoveto
          -2 callsubr
        </CharString>
        <CharString name="Zcircumflex">
          1207 753 1566 rmoveto
          202 148 134 -148 93 0 -37 callsubr
          470 -1566 rmoveto
          -2 callsubr
        </CharString>
        <CharString name="Zdotaccent">
          1207 944 -45 callsubr
          -34 callsubr
          180 -1597 rmoveto
          -2 callsubr
        </CharString>
        <CharString name="Zdotbelow">
          208 callsubr
          467 -193 -68 callsubr
        </CharString>
        <CharString name="Zecyrillic">
          1294 661 -31 rmoveto
          377 258 188 294 167 -127 111 -196 27 hvcurveto
          219 40 169 119 219 vvcurveto
          208 -169 133 -296 -172 -174 -60 -71 -101 vhcurveto
          -75 -316 rlineto
          78 hlineto
          229 99 137 94 180 hhcurveto
          147 81 -91 -137 -214 -143 -117 -227 hvcurveto
          -153 hlineto
          -23 -109 rlineto
          153 hlineto
          205 115 -77 -181 -176 -108 -155 -260 -4 hvcurveto
          -177 -2 -142 93 -12 225 rrcurveto
          -79 hlineto
          -42 -316 rlineto
          -52 65 181 -69 212 hhcurveto
          endchar
        </CharString>
        <CharString name="Zetagreek">
          1207 1124 hmoveto
          -2 callsubr
        </CharString>
        <CharString name="Zhecyrillic">
          2090 313 hmoveto
          637 683 119 0 -101 -477 -19 -88 -23 -13 -167 -17 rlinecurve
          -19 -88 623 0 19 88 -158 16 -20 14 18 88 rlinecurve
          102 477 122 0 331 -683 313 0 17 82 -67 27 -43 51 -103 206 rlinecurve
          -240 476 276 255 219 201 60 38 144 20 rlinecurve
          18 88 -503 0 -18 -88 155 -13 -1 -33 -164 -160 rlinecurve
          -366 -355 -127 0 94 443 19 88 26 14 164 16 rlinecurve
          19 88 -623 0 -19 -88 161 -16 17 -14 -18 -88 rlinecurve
          -94 -443 -120 0 -225 356 -107 169 47 24 146 12 rlinecurve
          18 88 -521 0 -17 -88 139 -24 45 -31 141 -204 rlinecurve
          163 -236 -461 -495 rlineto
          -187 -202 -59 -56 -75 -26 -19 -82 rcurveline
          endchar
        </CharString>
        <CharString name="Zlinebelow">
          208 callsubr
          181 -373 -75 callsubr
        </CharString>
        <CharString name="a">
          1158 -73 callsubr
          -106 callsubr
          -95 callsubr
        </CharString>
        <CharString name="a.dnum">
          742 128 198 rmoveto
          -138 75 -73 91 85 68 50 87 39 vhcurveto
          -1 -5 -4 -15 -6 vvcurveto
          -69 18 callgsubr
          37 8 hvcurveto
          87 408 -91 0 -62 -60 rlineto
          41 -23 -47 33 -76 hhcurveto
          -181 -129 -170 -213 2 hvcurveto
          171 10 rmoveto
          121 -2 54 165 74 callgsubr
        </CharString>
        <CharString name="a.numr">
          742 265 848 rmoveto
          -138 76 -73 91 85 68 50 87 39 vhcurveto
          -2 -4 -3 -16 -5 vvcurveto
          -70 -11 30 -39 68 hhcurveto
          61 68 29 39 33 hvcurveto
          13 65 rlineto
          -14 -20 -28 -6 -18 hhcurveto
          -28 -9 19 38 8 hvcurveto
          87 407 -92 0 -62 -59 rlineto
          40 -22 7 callgsubr
          114 hhcurveto
          44 29 -18 -19 6 hvcurveto
          -48 -229 235 callsubr
        </CharString>
        <CharString name="a.sups">
          742 304 1030 rmoveto
          -138 76 -73 91 85 68 50 87 39 vhcurveto
          -1 -5 -4 -15 -5 vvcurveto
          -70 18 callgsubr
          38 8 hvcurveto
          87 407 -91 0 -62 -59 rlineto
          40 -23 7 callgsubr
          74 callgsubr
        </CharString>
        <CharString name="aacute">
          1158 924 112 callsubr
          -1006 -1196 -104 callsubr
          -106 callsubr
          -95 callsubr
        </CharString>
        <CharString name="abreve">
          1158 828 1178 rmoveto
          189 117 134 220 10 hvcurveto
          -92 hlineto
          -114 -20 -73 -66 -121 hhcurveto
          -105 -69 65 81 13 2 13 1 8 hvcurveto
          -92 hlineto
          -12 -28 -8 -39 -35 vvcurveto
          -147 114 -105 159 vhcurveto
          -638 -830 -104 callsubr
          -106 callsubr
          -95 callsubr
        </CharString>
        <CharString name="abreveacute">
          1158 1148 50 callsubr
          225 -305 -38 callsubr
          -74 46 68 14 hvcurveto
          -96 hlineto
          -157 -42 101 -101 175 hhcurveto
          -587 -790 -104 callsubr
          -106 callsubr
          -95 callsubr
        </CharString>
        <CharString name="abrevecyrillic">
          1158 791 -25 callgsubr
          -601 -827 -104 callsubr
          -106 callsubr
          -95 callsubr
        </CharString>
        <CharString name="abrevedotbelow">
          1158 828 1178 rmoveto
          189 117 134 220 10 hvcurveto
          -92 hlineto
          -114 -20 -73 -66 -121 hhcurveto
          -105 -69 65 81 13 2 13 1 8 hvcurveto
          -92 hlineto
          -12 -28 -8 -39 -35 vvcurveto
          -147 114 -105 159 vhcurveto
          -638 -830 -104 callsubr
          -106 callsubr
          38 callsubr
          178 -793 -50 callsubr
          43 callsubr
        </CharString>
        <CharString name="abrevegrave">
          45 callgsubr
          172 -553 -38 callsubr
          -74 46 68 14 hvcurveto
          -96 hlineto
          -157 -42 101 -101 175 hhcurveto
          -587 -790 -104 callsubr
          -106 callsubr
          -95 callsubr
        </CharString>
        <CharString name="abrevehookabove">
          1158 866 1683 rmoveto
          -73 -73 -26 -30 -44 hvcurveto
          -16 -76 rlineto
          16 30 54 14 49 hhcurveto
          65 31 -24 -40 -9 hvcurveto
          -8 -39 -40 67 callgsubr
          -105 hhcurveto
          -89 -545 -38 callsubr
          -74 46 68 14 hvcurveto
          -96 hlineto
          -157 -42 101 -101 175 hhcurveto
          -587 -790 -104 callsubr
          -106 callsubr
          -95 callsubr
        </CharString>
        <CharString name="abrevetilde">
          200 callsubr
          -191 -329 -38 callsubr
          -74 46 68 14 hvcurveto
          -96 hlineto
          -157 -42 101 -101 175 hhcurveto
          -587 -790 -104 callsubr
          -106 callsubr
          -95 callsubr
        </CharString>
        <CharString name="acaron">
          1158 1045 -6 callgsubr
          -966 -1196 -104 callsubr
          -106 callsubr
          -95 callsubr
        </CharString>
        <CharString name="acircumflex">
          1158 601 -47 callsubr
          51 callsubr
          -299 -821 -104 callsubr
          -106 callsubr
          -95 callsubr
        </CharString>
        <CharString name="acircumflexacute">
          1158 1148 50 callsubr
          -62 -305 -90 callgsubr
          -57 0 -294 -168 rlineto
          -320 -884 -104 callsubr
          -106 callsubr
          -95 callsubr
        </CharString>
        <CharString name="acircumflexdotbelow">
          1158 601 -47 callsubr
          51 callsubr
          -299 -821 -104 callsubr
          -106 callsubr
          38 callsubr
          178 -793 -50 callsubr
          43 callsubr
        </CharString>
        <CharString name="acircumflexgrave">
          45 callgsubr
          -115 -553 -90 callgsubr
          -57 0 -294 -168 rlineto
          -320 -884 -104 callsubr
          -106 callsubr
          -95 callsubr
        </CharString>
        <CharString name="acircumflexhookabove">
          1158 1097 1683 rmoveto
          -73 -73 -26 -30 -44 hvcurveto
          -17 -76 rlineto
          16 31 54 14 49 hhcurveto
          64 32 -24 -40 -9 hvcurveto
          -8 -39 -40 -23 -83 227 callsubr
          -86 48 -104 hhcurveto
          -607 -545 -90 callgsubr
          -57 0 -294 -168 rlineto
          -320 -884 -104 callsubr
          -106 callsubr
          -95 callsubr
        </CharString>
        <CharString name="acircumflextilde">
          200 callsubr
          -478 -329 -90 callgsubr
          -57 0 -294 -168 rlineto
          -320 -884 -104 callsubr
          -106 callsubr
          -95 callsubr
        </CharString>
        <CharString name="acute">
          1024 901 -86 callsubr
          -10 callsubr
          endchar
        </CharString>
        <CharString name="acutecmb">
          0 389 -86 callsubr
          -10 callsubr
          endchar
        </CharString>
        <CharString name="acutecmb.short">
          0 362 1421 233 callsubr
          endchar
        </CharString>
        <CharString name="acutedotaccentcmb">
          6 callgsubr
          93 callgsubr
          endchar
        </CharString>
        <CharString name="acutedotaccentcmb.short">
          0 395 1759 rmoveto
          57 44 38 51 hvcurveto
          51 -2 101 callgsubr
          242 -146 rmoveto
          28 132 -619 -134 -16 -77 rlineto
          endchar
        </CharString>
        <CharString name="acyrillic">
          1158 -73 callsubr
          -106 callsubr
          -95 callsubr
        </CharString>
        <CharString name="adblgrave">
          1158 579 21 callsubr
          237 36 callsubr
          -801 -821 -104 callsubr
          -106 callsubr
          -95 callsubr
        </CharString>
        <CharString name="adieresis">
          1158 602 114 callsubr
          -59 -58 -74 -68 51 -51 70 hvcurveto
          432 hmoveto
          73 58 58 74 68 -51 51 -70 -72 callsubr
          -844 -882 -104 callsubr
          -106 callsubr
          -95 callsubr
        </CharString>
        <CharString name="adieresismacron">
          1158 564 1495 rmoveto
          576 hlineto
          26 119 rlineto
          -577 hlineto
          10 -457 rmoveto
          56 52 41 55 13 hvcurveto
          55 11 -34 43 -56 hhcurveto
          225 callsubr
          359 hmoveto
          55 53 41 55 11 hvcurveto
          55 13 -36 43 -55 hhcurveto
          -11 -42 callgsubr
          55 hhcurveto
          -745 -809 -104 callsubr
          -106 callsubr
          -95 callsubr
        </CharString>
        <CharString name="adotaccent">
          1158 818 -74 callsubr
          -77 callsubr
          -71 callsubr
          -628 -874 -104 callsubr
          -106 callsubr
          -95 callsubr
        </CharString>
        <CharString name="adotbelow">
          1158 -73 callsubr
          -106 callsubr
          38 callsubr
          178 -793 -50 callsubr
          43 callsubr
        </CharString>
        <CharString name="adotmacron">
          1158 562 1482 rmoveto
          576 hlineto
          25 120 rlineto
          -576 hlineto
          217 -444 rmoveto
          60 47 44 61 59 -47 46 -60 -61 -48 -46 -59 -61 48 -44 61 hvcurveto
          -614 -810 -104 callsubr
          -106 callsubr
          -95 callsubr
        </CharString>
        <CharString name="ae">
          1524 269 790 127 callsubr
        </CharString>
        <CharString name="aeacute">
          1524 1155 112 callsubr
          -1158 -754 127 callsubr
        </CharString>
        <CharString name="aemacron">
          1524 746 -19 callsubr
          -508 -624 127 callsubr
        </CharString>
        <CharString name="agrave">
          1158 775 1544 rmoveto
          -249 -12 hlineto
          -7 callsubr
          -699 -821 -104 callsubr
          -106 callsubr
          -95 callsubr
        </CharString>
        <CharString name="ahookabove">
          1158 856 69 callgsubr
          52 hhcurveto
          77 36 -29 -47 -61 -66 -36 callgsubr
          94 66 95 vvcurveto
          90 -76 71 -121 vhcurveto
          -666 -1202 -104 callsubr
          -106 callsubr
          -95 callsubr
        </CharString>
        <CharString name="ainvertedbreve">
          1158 820 -29 callgsubr
          -630 -1184 -104 callsubr
          -106 callsubr
          -95 callsubr
        </CharString>
        <CharString name="alphagreek">
          1245 485 -22 169 callsubr
        </CharString>
        <CharString name="alphatonosgreek">
          1245 905 -21 callsubr
          -662 -1566 169 callsubr
        </CharString>
        <CharString name="amacron">
          1158 515 -19 callsubr
          -356 -1066 -104 callsubr
          -106 callsubr
          -95 callsubr
        </CharString>
        <CharString name="ampersand">
          1525 153 336 rmoveto
          -208 149 -159 265 172 138 84 150 153 vhcurveto
          170 -203 306 0 15 71 -107 61 -84 104 -112 134 rlinecurve
          -15 19 161 196 139 165 48 25 123 22 rlinecurve
          18 88 -475 0 -19 -88 168 -19 11 -27 -105 -138 rlinecurve
          -123 -160 -299 357 -1 2 rlineto
          263 94 121 121 147 vvcurveto
          181 -145 120 -239 -255 -154 -161 -198 -6 vhcurveto
          -3 -96 33 -106 85 -125 rrcurveto
          -248 -90 -148 -140 -223 vvcurveto
          513 832 rmoveto
          113 74 74 112 119 56 -96 -103 -119 -64 -89 -164 -74 vhcurveto
          -101 132 -32 83 79 vvcurveto
          -284 -749 rmoveto
          148 92 86 125 67 vhcurveto
          9 -11 9 -11 9 -12 351 -418 rcurveline
          -82 -88 -79 -57 -117 hhcurveto
          -184 -127 127 163 hvcurveto
          endchar
        </CharString>
        <CharString name="anoteleiagreek">
          553 465 740 rmoveto
          85 68 67 87 81 -66 67 -87 -85 -69 -68 -87 -81 67 -66 87 hvcurveto
          endchar
        </CharString>
        <CharString name="aogonek">
          1158 -73 callsubr
          -106 callsubr
          9 9 1 1 9 hvcurveto
          -176 -109 -73 -97 -98 vvcurveto
          -100 76 -66 110 80 66 31 33 31 vhcurveto
          19 86 rlineto
          -19 -24 -32 -11 -35 hhcurveto
          -50 -35 36 65 100 88 108 178 141 hvcurveto
          1 hlineto
          19 -107 callsubr
          -32 hhcurveto
          -27 callgsubr
          endchar
        </CharString>
        <CharString name="approxequal">
          1206 1006 801 rmoveto
          -141 -117 204 -194 hhcurveto
          -158 -137 -113 -264 -35 hvcurveto
          141 hlineto
          145 25 78 60 79 142 115 -205 194 hhcurveto
          159 137 114 263 35 hvcurveto
          -142 hlineto
          -145 -24 -79 -59 -78 hhcurveto
          -103 -482 rmoveto
          -141 -116 204 -194 hhcurveto
          -159 -137 -115 -262 -35 hvcurveto
          142 hlineto
          145 24 79 58 78 142 116 -203 194 hhcurveto
          158 137 114 263 35 hvcurveto
          -141 hlineto
          -146 -25 -78 -58 -79 hhcurveto
          endchar
        </CharString>
        <CharString name="aring">
          1158 558 118 callsubr
          110 97 133 125 -103 81 -146 -170 -111 -97 -133 vhcurveto
          160 -6 rmoveto
          83 57 59 62 57 34 -40 -66 -84 -57 -59 -61 -58 -34 41 66 vhcurveto
          -528 -991 -104 callsubr
          -106 callsubr
          -95 callsubr
        </CharString>
        <CharString name="aringacute">
          1158 1149 1538 rmoveto
          33 156 -610 -156 -19 -92 rlineto
          261 -336 rmoveto
          129 94 59 89 19 hvcurveto
          89 18 -68 59 -129 hhcurveto
          -87 hlineto
          -126 -97 -59 -89 -18 hvcurveto
          -89 -19 37 callgsubr
          42 hhcurveto
          69 hlineto
          44 18 -24 -33 -7 hvcurveto
          -33 -7 -29 -24 -44 hhcurveto
          -634 -853 -104 callsubr
          -106 callsubr
          -95 callsubr
        </CharString>
        <CharString name="aringbelow">
          1158 -73 callsubr
          -106 callsubr
          38 callsubr
          -86 -682 rmoveto
          -109 3 105 -71 146 hhcurveto
          171 3 callgsubr
          160 -5 rmoveto
          68 -3 55 46 61 hhcurveto
          57 36 -33 -53 3 hvcurveto
          -68 3 -55 -46 -61 hhcurveto
          -57 -36 33 53 -3 hvcurveto
          endchar
        </CharString>
        <CharString name="asciicircum">
          1206 838 1444 rmoveto
          -539 -599 99 -89 484 510 266 -510 118 89 -285 599 rlineto
          endchar
        </CharString>
        <CharString name="asciitilde">
          1206 956 567 rmoveto
          -141 -116 204 -195 hhcurveto
          -158 -137 -114 -262 -35 hvcurveto
          141 hlineto
          144 24 79 59 79 142 116 -203 194 hhcurveto
          157 138 113 263 35 hvcurveto
          -141 hlineto
          -145 -25 -78 -59 -79 hhcurveto
          endchar
        </CharString>
        <CharString name="asterisk">
          756 668 1472 rmoveto
          -53 -32 -36 -61 -16 1 -18 2 -29 hvcurveto
          14 -182 31 0 89 188 rlineto
          19 36 4 22 19 vvcurveto
          44 -31 33 -44 vhcurveto
          -283 -123 rmoveto
          -47 -30 -38 -39 -36 22 -34 69 -25 hvcurveto
          183 -73 18 26 -99 138 rlineto
          62 -43 -39 19 -34 hhcurveto
          506 -54 rmoveto
          -35 -27 -15 -42 -56 hvcurveto
          -142 -108 11 -28 191 26 rlineto
          96 10 41 32 52 vvcurveto
          42 -33 31 -46 vhcurveto
          -558 -383 rmoveto
          36 27 14 42 56 hvcurveto
          141 107 -11 29 -191 -26 rlineto
          -97 -10 -40 -33 -51 vvcurveto
          -42 32 -30 47 vhcurveto
          583 22 rmoveto
          37 -22 33 -69 24 vhcurveto
          -183 74 -18 -27 99 -137 rlineto
          -62 43 39 -19 34 hhcurveto
          48 29 38 39 hvcurveto
          -360 -201 rmoveto
          54 32 37 61 16 -1 18 -2 29 hvcurveto
          -15 181 -31 0 -90 -187 rlineto
          -17 -37 -6 -21 -19 vvcurveto
          -44 32 -34 44 vhcurveto
          endchar
        </CharString>
        <CharString name="at">
          2022 1460 -290 rmoveto
          3 88 rlineto
          -65 -126 -126 -23 -168 hhcurveto
          -397 -282 273 456 429 317 443 538 417 268 -228 -383 -354 -214 -193 -171 -83 -11 48 62 13 hvcurveto
          152 709 -124 0 -92 -128 rlineto
          95 -27 -78 61 -114 hhcurveto
          -266 -190 -317 -306 -213 92 -122 157 113 100 69 152 80 hvcurveto
          -5 -23 -1 -22 -23 vvcurveto
          -118 109 -56 110 305 280 267 424 424 -321 293 -502 -614 -374 -489 -515 -505 340 -329 447 181 183 50 69 81 vhcurveto
          -544 663 rmoveto
          241 117 285 164 85 50 -63 -92 -1 vhcurveto
          -62 -294 rlineto
          -158 -33 -97 -116 -99 hhcurveto
          -90 -34 81 116 hvcurveto
          endchar
        </CharString>
        <CharString name="atilde">
          1158 942 -31 callsubr
          -18 callsubr
          -27 -23 14 27 -28 hvcurveto
          -34 31 rlineto
          39 -44 -45 23 -57 hhcurveto
          -97 -76 110 callsubr
          27 23 -14 -27 29 hvcurveto
          33 -31 rlineto
          -38 42 47 -24 57 hhcurveto
          -752 -861 -104 callsubr
          -106 callsubr
          -95 callsubr
        </CharString>
        <CharString name="austral">
          1426 87 375 rmoveto
          237 hlineto
          -80 -141 -61 -108 -24 -26 -133 -12 rlinecurve
          -17 -88 450 0 20 88 -139 15 -15 21 59 110 rlinecurve
          76 141 555 0 16 -141 13 -113 -15 -17 -158 -16 rlinecurve
          -17 -88 551 0 19 88 -128 12 -14 25 -13 109 rlinecurve
          -18 141 246 0 18 80 -274 0 -25 201 341 0 17 80 -368 0 -87 708 -194 0 -399 -708 -361 0 -18 -80 334 0 -112 -201 rlineto
          -264 hlineto
          549 281 rmoveto
          265 491 56 -491 rlineto
          -472 -281 rmoveto
          108 201 373 0 22 -201 rlineto
          endchar
        </CharString>
        <CharString name="austral.tnum">
          1218 95 453 rmoveto
          -18 -80 195 0 -70 -139 -55 -109 -20 -27 -109 -10 rlinecurve
          -19 -88 393 0 19 88 -122 13 -10 19 57 114 rlinecurve
          68 139 459 0 9 -139 7 -114 -16 -18 -133 -14 rlinecurve
          -19 -88 508 0 18 88 -106 10 -7 25 -9 111 rlinecurve
          -11 139 195 0 17 80 -218 0 -16 200 276 0 18 80 -300 0 -55 711 -208 0 -359 -711 -299 0 -18 -80 277 0 -101 -200 rlineto
          266 280 rmoveto
          235 479 28 -479 rlineto
          -399 -280 rmoveto
          97 200 307 0 12 -200 rlineto
          endchar
        </CharString>
        <CharString name="b">
          -66 callgsubr
          endchar
        </CharString>
        <CharString name="backslash">
          669 440 -280 rmoveto
          168 hlineto
          -103 1860 rlineto
          -168 hlineto
          endchar
        </CharString>
        <CharString name="baht">
          -15 callgsubr
          3 156 -111 108 -241 31 rrcurveto
          49 228 -80 0 -47 -221 rlineto
          1 -25 -26 1 -27 hhcurveto
          -490 hlineto
          -18 -88 rlineto
          150 -15 12 -17 -18 -87 -209 -970 rcurveline
          -19 -86 -19 -18 -156 -15 -18 -88 rcurveline
          549 hlineto
          6 7 0 7 hhcurveto
          -47 -219 80 0 47 222 rlineto
          359 24 230 150 250 vvcurveto
          -670 346 rmoveto
          108 512 106 -3 rlineto
          21 19 -2 -2 19 hvcurveto
          -108 -504 rlineto
          -1 -8 -9 0 -9 hhcurveto
          340 296 rmoveto
          -143 -84 -107 -147 -34 vhcurveto
          101 475 rlineto
          87 -30 43 -63 -98 vvcurveto
          -500 -395 rmoveto
          138 hlineto
          9 9 0 -1 9 hvcurveto
          -121 -569 rlineto
          -20 -1 -20 -1 -21 -1 -108 -2 rcurveline
          560 314 rmoveto
          -164 -98 -101 -211 -34 vhcurveto
          117 548 rlineto
          128 -30 64 -90 -129 vvcurveto
          endchar
        </CharString>
        <CharString name="baht.tnum">
          -14 callgsubr
          154 -99 102 -215 32 vhcurveto
          48 229 -80 0 -47 -221 rlineto
          1 -25 -26 1 -28 hhcurveto
          -470 hlineto
          -19 -88 rlineto
          147 -15 13 -18 -19 -86 -208 -970 rcurveline
          -19 -86 -18 -18 -154 -15 -19 -88 rcurveline
          532 hlineto
          7 6 0 6 hhcurveto
          -47 -219 81 0 47 223 rlineto
          336 24 217 151 248 vvcurveto
          -628 346 rmoveto
          107 512 100 -2 rlineto
          21 20 -2 -3 18 hvcurveto
          -107 -504 rlineto
          -1 -10 -10 0 -10 hhcurveto
          317 302 rmoveto
          -140 -74 -107 -130 -39 vhcurveto
          100 468 rlineto
          69 -31 35 -60 -91 vvcurveto
          -467 -401 rmoveto
          123 hlineto
          12 12 -1 -1 11 hvcurveto
          -121 -569 rlineto
          -1 -19 -19 -1 -21 hhcurveto
          -103 -2 rlineto
          526 323 rmoveto
          -166 -91 -106 -191 -36 vhcurveto
          116 545 rlineto
          112 -33 54 -86 -118 vvcurveto
          endchar
        </CharString>
        <CharString name="bar">
          669 191 -280 rmoveto
          168 hlineto
          395 1860 rlineto
          -168 hlineto
          endchar
        </CharString>
        <CharString name="bdotaccent">
          1155 682 1656 rmoveto
          78 62 62 79 71 -77 callsubr
          -79 -72 54 -54 75 hvcurveto
          498 -994 179 callsubr
          endchar
        </CharString>
        <CharString name="bdotbelow">
          -66 callgsubr
          -363 -1071 rmoveto
          123 callsubr
          -58 -56 -71 -65 51 -49 70 vhcurveto
          endchar
        </CharString>
        <CharString name="becyrillic">
          1140 1151 585 rmoveto
          250 -138 186 -231 -193 -142 -117 -167 -78 vhcurveto
          28 256 106 195 302 22 rrcurveto
          124 9 254 19 99 71 40 193 rlinecurve
          -86 hlineto
          -20 -47 -61 -16 -114 -2 rrcurveto
          -574 -11 -257 -446 -508 vvcurveto
          -299 133 -196 273 321 214 287 321 vhcurveto
          -244 61 rmoveto
          -242 -99 -313 -188 -103 -66 89 175 242 99 313 188 104 65 -90 -174 vhcurveto
          endchar
        </CharString>
        <CharString name="betagreek">
          1123 19 -460 rmoveto
          242 hlineto
          101 549 rlineto
          -58 54 104 -53 118 hhcurveto
          308 190 225 256 6 hvcurveto
          8 194 -101 147 -192 36 200 56 126 135 4 187 rrcurveto
          184 6 -125 127 -233 hhcurveto
          -249 -178 -166 -339 -72 hvcurveto
          240 50 rmoveto
          209 46 60 125 138 hhcurveto
          101 55 -72 -134 -5 hvcurveto
          -5 -198 -112 -114 -210 -2 rrcurveto
          -36 -166 211 -1 88 -93 -5 -191 rlinecurve
          -197 -5 -138 -136 -165 hhcurveto
          -86 -65 27 65 -60 hvcurveto
          endchar
        </CharString>
        <CharString name="bitcoin">
          -15 callgsubr
          2 130 -76 96 -164 47 rrcurveto
          54 250 -80 0 -51 -233 rlineto
          9 -55 -63 5 -71 hhcurveto
          46 219 -80 0 -47 -219 -410 0 -18 -88 150 -15 12 -17 -18 -87 rlinecurve
          -209 -970 -19 -86 -19 -18 -156 -15 rlinecurve
          -18 -88 412 0 -47 -219 80 0 47 219 rlineto
          57 hlineto
          47 46 2 4 44 hvcurveto
          -48 -225 81 0 49 235 rlineto
          290 47 180 143 221 vvcurveto
          -191 642 rmoveto
          -175 -126 -121 -214 vhcurveto
          -139 hlineto
          108 512 106 -3 rlineto
          177 -5 88 -68 -140 vvcurveto
          -65 -656 rmoveto
          -198 -141 -105 -311 -9 vhcurveto
          -108 -2 125 575 rlineto
          138 hlineto
          198 -1 99 -100 -160 vvcurveto
          endchar
        </CharString>
        <CharString name="bitcoin.tnum">
          -14 callgsubr
          128 -69 92 -147 46 vhcurveto
          54 251 -80 0 -50 -233 rlineto
          9 -52 -60 5 -68 hhcurveto
          -10 hlineto
          46 219 -80 0 -46 -219 -380 0 -19 -88 147 -15 13 -18 -19 -86 rlinecurve
          -208 -970 -19 -86 -18 -18 -154 -15 rlinecurve
          -19 -88 382 0 -47 -219 80 0 47 219 rlineto
          70 hlineto
          43 42 2 4 39 hvcurveto
          -48 -225 81 0 50 235 rlineto
          274 46 172 144 221 vvcurveto
          -182 648 rmoveto
          -176 -118 -126 -199 vhcurveto
          -129 hlineto
          107 512 100 -3 rlineto
          160 -7 79 -63 -137 vvcurveto
          -66 -653 rmoveto
          -201 -135 -110 -288 -10 vhcurveto
          -103 -2 125 575 rlineto
          123 hlineto
          188 -1 90 -99 -152 vvcurveto
          endchar
        </CharString>
        <CharString name="blinebelow">
          -66 callgsubr
          -641 -1017 -75 callsubr
        </CharString>
</ttFont>
